<?xml version="1.0" standalone="yes"?>

<svg version="1.1" viewBox="0.0 0.0 409.65616797900265 391.36745406824144" fill="none" stroke="none" stroke-linecap="square" stroke-miterlimit="10" xmlns="http://www.w3.org/2000/svg" xmlns:xlink="http://www.w3.org/1999/xlink"><clipPath id="p.0"><path d="m0 0l409.65616 0l0 391.36746l-409.65616 0l0 -391.36746z" clip-rule="nonzero"></path></clipPath><g clip-path="url(#p.0)"><path fill="#000000" fill-opacity="0.0" d="m0 0l409.65616 0l0 391.36746l-409.65616 0z" fill-rule="nonzero"></path><path fill="#d9ead3" d="m23.106535 44.657436l0 0c-0.9764633 -8.1447525 2.2294579 -16.207565 8.25737 -20.767088c6.027914 -4.5595226 13.820654 -4.8161125 20.071474 -0.6608925l0 0c2.2142296 -4.735697 6.266922 -8.005369 10.932209 -8.820004c4.665287 -0.8146353 9.395222 0.92144966 12.759083 4.6831217l0 0c1.8862381 -4.293688 5.589905 -7.1784973 9.796745 -7.630748c4.206833 -0.45225143 8.321472 1.592061 10.883827 5.407508l0 0c3.4077682 -4.551297 8.829613 -6.4675837 13.919472 -4.919669c5.0898666 1.5479145 8.933556 6.28201 9.867882 12.153815l0 0c4.1750946 1.2925892 7.6528625 4.578518 9.534752 9.00881c1.881897 4.430294 1.9833221 9.570347 0.27804565 14.09214l0 0c4.111252 6.0732574 5.0729675 14.165798 2.5262756 21.25763c-2.5467072 7.091835 -8.219215 12.117493 -14.900658 13.201492c-0.047088623 6.655937 -3.2631912 12.763351 -8.4086685 15.96817c-5.1454773 3.2048187 -11.416847 3.0065994 -16.396858 -0.51825714c-2.1212158 7.9716415 -8.091743 13.837097 -15.332085 15.062279c-7.240341 1.2251816 -14.452526 -2.4095535 -18.520622 -9.333862c-4.986637 3.4130096 -10.970188 4.3961945 -16.600883 2.7277527c-5.6306953 -1.6684341 -10.434233 -5.847954 -13.32703 -11.595734l0 0c-5.0957184 0.67681885 -10.022573 -2.3197403 -12.335384 -7.5025024c-2.3128119 -5.1827545 -1.5192385 -11.448425 1.9868736 -15.68737l0 0c-4.545512 -3.036583 -6.8649063 -9.062168 -5.7487097 -14.93465c1.1161966 -5.8724823 5.4150496 -10.261135 10.654876 -10.877449z" fill-rule="nonzero"></path><path fill="#000000" fill-opacity="0.0" d="m18.09964 70.78345l0 0c2.1450424 1.4329681 4.623068 2.0830002 7.101362 1.8628082m3.2460327 21.327583c1.0657578 -0.14155579 2.110403 -0.4413147 3.1069946 -0.89154816m26.81943 9.759155c-0.7495842 -1.2758713 -1.3771744 -2.639244 -1.872078 -4.0668945m35.72608 -1.6617584l0 0c0.38672638 -1.4533463 0.6372986 -2.9491577 0.74752045 -4.462471m24.057068 -10.986885c0.05014038 -7.086273 -3.495926 -13.574539 -9.115067 -16.677895m21.489326 -17.78048c-0.91000366 2.4130096 -2.2992172 4.5535583 -4.0587234 6.253811m-5.7532196 -29.355392l0 0c0.15505981 0.9744282 0.22681427 1.963501 0.2142868 2.9535103m-24.001236 -10.187363l0 0c-0.85006714 1.1353226 -1.550415 2.4040318 -2.0792236 3.7666225m-18.601547 -1.5438786l0 0c-0.45301056 1.0312061 -0.7912903 2.1223965 -1.0070496 3.2484398m-22.684586 0.8885288l0 0c1.32267 0.87924194 2.546318 1.9375038 3.6440659 3.1515388m-31.972544 18.276556l0 0c0.13458061 1.1225586 0.3472271 2.2312775 0.6359482 3.3157806" fill-rule="nonzero"></path><path stroke="#000000" stroke-width="2.0" stroke-linejoin="round" stroke-linecap="butt" d="m23.106535 44.657436l0 0c-0.9764633 -8.1447525 2.2294579 -16.207565 8.25737 -20.767088c6.027914 -4.5595226 13.820654 -4.8161125 20.071474 -0.6608925l0 0c2.2142296 -4.735697 6.266922 -8.005369 10.932209 -8.820004c4.665287 -0.8146353 9.395222 0.92144966 12.759083 4.6831217l0 0c1.8862381 -4.293688 5.589905 -7.1784973 9.796745 -7.630748c4.206833 -0.45225143 8.321472 1.592061 10.883827 5.407508l0 0c3.4077682 -4.551297 8.829613 -6.4675837 13.919472 -4.919669c5.0898666 1.5479145 8.933556 6.28201 9.867882 12.153815l0 0c4.1750946 1.2925892 7.6528625 4.578518 9.534752 9.00881c1.881897 4.430294 1.9833221 9.570347 0.27804565 14.09214l0 0c4.111252 6.0732574 5.0729675 14.165798 2.5262756 21.25763c-2.5467072 7.091835 -8.219215 12.117493 -14.900658 13.201492c-0.047088623 6.655937 -3.2631912 12.763351 -8.4086685 15.96817c-5.1454773 3.2048187 -11.416847 3.0065994 -16.396858 -0.51825714c-2.1212158 7.9716415 -8.091743 13.837097 -15.332085 15.062279c-7.240341 1.2251816 -14.452526 -2.4095535 -18.520622 -9.333862c-4.986637 3.4130096 -10.970188 4.3961945 -16.600883 2.7277527c-5.6306953 -1.6684341 -10.434233 -5.847954 -13.32703 -11.595734l0 0c-5.0957184 0.67681885 -10.022573 -2.3197403 -12.335384 -7.5025024c-2.3128119 -5.1827545 -1.5192385 -11.448425 1.9868736 -15.68737l0 0c-4.545512 -3.036583 -6.8649063 -9.062168 -5.7487097 -14.93465c1.1161966 -5.8724823 5.4150496 -10.261135 10.654876 -10.877449z" fill-rule="nonzero"></path><path stroke="#000000" stroke-width="2.0" stroke-linejoin="round" stroke-linecap="butt" d="m18.09964 70.78345l0 0c2.1450424 1.4329681 4.623068 2.0830002 7.101362 1.8628082m3.2460327 21.327583c1.0657578 -0.14155579 2.110403 -0.4413147 3.1069946 -0.89154816m26.81943 9.759155c-0.7495842 -1.2758713 -1.3771744 -2.639244 -1.872078 -4.0668945m35.72608 -1.6617584l0 0c0.38672638 -1.4533463 0.6372986 -2.9491577 0.74752045 -4.462471m24.057068 -10.986885c0.05014038 -7.086273 -3.495926 -13.574539 -9.115067 -16.677895m21.489326 -17.78048c-0.91000366 2.4130096 -2.2992172 4.5535583 -4.0587234 6.253811m-5.7532196 -29.355392l0 0c0.15505981 0.9744282 0.22681427 1.963501 0.2142868 2.9535103m-24.001236 -10.187363l0 0c-0.85006714 1.1353226 -1.550415 2.4040318 -2.0792236 3.7666225m-18.601547 -1.5438786l0 0c-0.45301056 1.0312061 -0.7912903 2.1223965 -1.0070496 3.2484398m-22.684586 0.8885288l0 0c1.32267 0.87924194 2.546318 1.9375038 3.6440659 3.1515388m-31.972544 18.276556l0 0c0.13458061 1.1225586 0.3472271 2.2312775 0.6359482 3.3157806" fill-rule="nonzero"></path><path fill="#fff2cc" d="m297.60324 48.48571l0 0c-0.7676697 -6.2999496 1.7527161 -12.536518 6.4916077 -16.063301c4.738922 -3.526781 10.865295 -3.725254 15.779449 -0.51119804l0 0c1.7407532 -3.6630535 4.926819 -6.1921387 8.594482 -6.822256c3.667694 -0.6301193 7.3861694 0.71273994 10.030731 3.622385l0 0c1.4828796 -3.3211594 4.394562 -5.552553 7.7018127 -5.9023685c3.307251 -0.34981537 6.542053 1.2314568 8.5564575 4.1826973l0 0c2.6790771 -3.52042 6.9415283 -5.0026646 10.942963 -3.805355c4.001465 1.1973095 7.023224 4.8591213 7.757782 9.400951l0 0c3.2822876 0.9998169 6.016388 3.5414772 7.4958496 6.9683c1.4794617 3.4268227 1.5592041 7.402645 0.21859741 10.900238l0 0c3.2320862 4.6976547 3.9881592 10.957218 1.9860535 16.442741c-2.0021362 5.4855194 -6.4616394 9.372856 -11.714325 10.211327c-0.03704834 5.1483536 -2.5653992 9.872421 -6.6105957 12.351341c-4.045166 2.47892 -8.975494 2.3255997 -12.8905945 -0.40086365c-1.6676025 6.166046 -6.3614197 10.702965 -12.053497 11.650642c-5.6920776 0.94767 -11.36203 -1.8637924 -14.560211 -7.2197266c-3.9203186 2.6399612 -8.624359 3.400444 -13.050995 2.1099167c-4.4266357 -1.290535 -8.203003 -4.523384 -10.477203 -8.969284l0 0c-4.006073 0.5235214 -7.8793945 -1.7943192 -9.697632 -5.8031693c-1.8182373 -4.00885 -1.1943665 -8.855331 1.5620117 -12.134155l0 0c-3.5735168 -2.3487854 -5.396942 -7.0095634 -4.519409 -11.551918c0.87750244 -4.542351 4.2571106 -7.936966 8.376465 -8.413685z" fill-rule="nonzero"></path><path fill="#000000" fill-opacity="0.0" d="m293.667 68.69413l0 0c1.6863403 1.1083984 3.634491 1.6111908 5.5828247 1.4408798m2.5519104 16.496841c0.8378601 -0.10948944 1.6591187 -0.34135437 2.4425964 -0.6896057m21.084442 7.548683c-0.58929443 -0.9868851 -1.0827026 -2.0414505 -1.4717712 -3.1457367m28.086517 -1.2853622l0 0c0.3040161 -1.1241608 0.5010071 -2.2811737 0.5876465 -3.4517212m18.91278 -8.498329c0.039398193 -5.4812164 -2.7483826 -10.499878 -7.165924 -12.900322m16.894104 -13.753162c-0.7154236 1.8664589 -1.8075562 3.5221672 -3.1908264 4.837311m-4.522949 -22.706337l0 0c0.12188721 0.7537155 0.17831421 1.5187645 0.16845703 2.2845345m-18.868866 -7.8799057l0 0c-0.66830444 0.87817 -1.2188721 1.8595123 -1.634613 2.9134731m-14.62384 -1.1941853l0 0c-0.35614014 0.7976341 -0.6220703 1.6416702 -0.7917175 2.512661m-17.83374 0.68727493l0 0c1.0398254 0.68009186 2.0018005 1.4986572 2.8648071 2.4377098m-25.13559 14.136879l0 0c0.10580444 0.8682976 0.27297974 1.7258911 0.49993896 2.5647507" fill-rule="nonzero"></path><path stroke="#000000" stroke-width="2.0" stroke-linejoin="round" stroke-linecap="butt" d="m297.60324 48.48571l0 0c-0.7676697 -6.2999496 1.7527161 -12.536518 6.4916077 -16.063301c4.738922 -3.526781 10.865295 -3.725254 15.779449 -0.51119804l0 0c1.7407532 -3.6630535 4.926819 -6.1921387 8.594482 -6.822256c3.667694 -0.6301193 7.3861694 0.71273994 10.030731 3.622385l0 0c1.4828796 -3.3211594 4.394562 -5.552553 7.7018127 -5.9023685c3.307251 -0.34981537 6.542053 1.2314568 8.5564575 4.1826973l0 0c2.6790771 -3.52042 6.9415283 -5.0026646 10.942963 -3.805355c4.001465 1.1973095 7.023224 4.8591213 7.757782 9.400951l0 0c3.2822876 0.9998169 6.016388 3.5414772 7.4958496 6.9683c1.4794617 3.4268227 1.5592041 7.402645 0.21859741 10.900238l0 0c3.2320862 4.6976547 3.9881592 10.957218 1.9860535 16.442741c-2.0021362 5.4855194 -6.4616394 9.372856 -11.714325 10.211327c-0.03704834 5.1483536 -2.5653992 9.872421 -6.6105957 12.351341c-4.045166 2.47892 -8.975494 2.3255997 -12.8905945 -0.40086365c-1.6676025 6.166046 -6.3614197 10.702965 -12.053497 11.650642c-5.6920776 0.94767 -11.36203 -1.8637924 -14.560211 -7.2197266c-3.9203186 2.6399612 -8.624359 3.400444 -13.050995 2.1099167c-4.4266357 -1.290535 -8.203003 -4.523384 -10.477203 -8.969284l0 0c-4.006073 0.5235214 -7.8793945 -1.7943192 -9.697632 -5.8031693c-1.8182373 -4.00885 -1.1943665 -8.855331 1.5620117 -12.134155l0 0c-3.5735168 -2.3487854 -5.396942 -7.0095634 -4.519409 -11.551918c0.87750244 -4.542351 4.2571106 -7.936966 8.376465 -8.413685z" fill-rule="nonzero"></path><path stroke="#000000" stroke-width="2.0" stroke-linejoin="round" stroke-linecap="butt" d="m293.667 68.69413l0 0c1.6863403 1.1083984 3.634491 1.6111908 5.5828247 1.4408798m2.5519104 16.496841c0.8378601 -0.10948944 1.6591187 -0.34135437 2.4425964 -0.6896057m21.084442 7.548683c-0.58929443 -0.9868851 -1.0827026 -2.0414505 -1.4717712 -3.1457367m28.086517 -1.2853622l0 0c0.3040161 -1.1241608 0.5010071 -2.2811737 0.5876465 -3.4517212m18.91278 -8.498329c0.039398193 -5.4812164 -2.7483826 -10.499878 -7.165924 -12.900322m16.894104 -13.753162c-0.7154236 1.8664589 -1.8075562 3.5221672 -3.1908264 4.837311m-4.522949 -22.706337l0 0c0.12188721 0.7537155 0.17831421 1.5187645 0.16845703 2.2845345m-18.868866 -7.8799057l0 0c-0.66830444 0.87817 -1.2188721 1.8595123 -1.634613 2.9134731m-14.62384 -1.1941853l0 0c-0.35614014 0.7976341 -0.6220703 1.6416702 -0.7917175 2.512661m-17.83374 0.68727493l0 0c1.0398254 0.68009186 2.0018005 1.4986572 2.8648071 2.4377098m-25.13559 14.136879l0 0c0.10580444 0.8682976 0.27297974 1.7258911 0.49993896 2.5647507" fill-rule="nonzero"></path><path fill="#6fa8dc" d="m162.1076 186.98294l89.51181 0l0 194.80316l-89.51181 0z" fill-rule="nonzero"></path><path fill="#6fa8dc" d="m146.31233 133.01443l0 0c0 -29.805984 27.109695 -53.968506 60.551178 -53.968506l0 0c33.441498 0 60.551193 24.162521 60.551193 53.968506l0 0c0 29.805984 -27.109695 53.968506 -60.551193 53.968506l0 0c-33.441483 0 -60.551178 -24.162521 -60.551178 -53.968506z" fill-rule="nonzero"></path><path fill="#6fa8dc" d="m248.68007 184.25804l48.598434 110.92912l-20.503937 8.976379l-48.598434 -110.92914z" fill-rule="nonzero"></path><path fill="#b4a7d6" d="m314.4974 58.643612l0 0c0 1.193718 4.2092285 2.161419 9.401581 2.161419c5.192322 0 9.40155 -0.96770096 9.40155 -2.161419l0 12.968502c0 1.193718 -4.2092285 2.1614227 -9.40155 2.1614227c-5.1923523 0 -9.401581 -0.9677048 -9.401581 -2.1614227z" fill-rule="nonzero"></path><path fill="#d2cae6" d="m314.4974 58.643612l0 0c0 -1.193718 4.2092285 -2.161419 9.401581 -2.161419c5.192322 0 9.40155 0.96770096 9.40155 2.161419l0 0c0 1.193718 -4.2092285 2.161419 -9.40155 2.161419c-5.1923523 0 -9.401581 -0.96770096 -9.401581 -2.161419z" fill-rule="nonzero"></path><path fill="#000000" fill-opacity="0.0" d="m333.30054 58.643612l0 0c0 1.193718 -4.2092285 2.161419 -9.40155 2.161419c-5.1923523 0 -9.401581 -0.96770096 -9.401581 -2.161419l0 0c0 -1.193718 4.2092285 -2.161419 9.401581 -2.161419c5.192322 0 9.40155 0.96770096 9.40155 2.161419l0 12.968502c0 1.193718 -4.2092285 2.1614227 -9.40155 2.1614227c-5.1923523 0 -9.401581 -0.9677048 -9.401581 -2.1614227l0 -12.968502" fill-rule="nonzero"></path><path fill="#f6b26b" d="m77.137375 46.17318l6.086296 -4.7168083l19.448456 30.715977l-3.6517715 2.8300858z" fill-rule="nonzero"></path><path fill="#f6b26b" d="m71.88732 58.056202l4.8587265 -6.1032295l25.76831 24.988281l-2.9152298 3.6619415z" fill-rule="nonzero"></path><path fill="#f6b26b" d="m87.6619 48.019875l2.858055 7.381523l-32.912224 12.504593l-1.7148323 -4.428913z" fill-rule="nonzero"></path><path fill="#f6b26b" d="m62.685463 80.24971l-3.3191986 -7.162842l32.04638 -14.8041115l1.9915237 4.2977066z" fill-rule="nonzero"></path><path fill="#6fa8dc" d="m466.37534 94.50394l0 0c0 -5.6707 7.0717773 -10.267715 15.795258 -10.267715l0 0c8.723511 0 15.795288 4.5970154 15.795288 10.267715l0 0c0 5.6707 -7.0717773 10.267715 -15.795288 10.267715l0 0c-8.72348 0 -15.795258 -4.5970154 -15.795258 -10.267715z" fill-rule="nonzero"></path><path fill="#3d85c6" d="m458.29398 82.7231l0 0c0 -5.6707077 7.0717773 -10.267715 15.795258 -10.267715l0 0c8.72348 0 15.795288 4.5970078 15.795288 10.267715l0 0c0 5.6707 -7.071808 10.267715 -15.795288 10.267715l0 0c-8.72348 0 -15.795258 -4.5970154 -15.795258 -10.267715z" fill-rule="nonzero"></path><path fill="#76a5af" d="m484.0013 82.7231l0 0c0 -5.6707077 7.0717773 -10.267715 15.795288 -10.267715l0 0c8.72348 0 15.795258 4.5970078 15.795258 10.267715l0 0c0 5.6707 -7.0717773 10.267715 -15.795258 10.267715l0 0c-8.723511 0 -15.795288 -4.5970154 -15.795288 -10.267715z" fill-rule="nonzero"></path><path fill="#76a5af" d="m476.84253 64.42782l0 0c0 -5.6707 7.0717773 -10.267712 15.795258 -10.267712l0 0c8.723511 0 15.795288 4.5970116 15.795288 10.267712l0 0c0 5.6707077 -7.0717773 10.267723 -15.795288 10.267723l0 0c-8.72348 0 -15.795258 -4.5970154 -15.795258 -10.267723z" fill-rule="nonzero"></path><path fill="#76a5af" d="m458.29398 67.58662l0 0c0 -5.670704 7.0717773 -10.267719 15.795258 -10.267719l0 0c8.72348 0 15.795288 4.5970154 15.795288 10.267719l0 0c0 5.6707 -7.071808 10.267715 -15.795288 10.267715l0 0c-8.72348 0 -15.795258 -4.5970154 -15.795258 -10.267715z" fill-rule="nonzero"></path><path fill="#76a5af" d="m446.10367 82.7231l0 0c0 -5.6707077 7.0717773 -10.267715 15.795288 -10.267715l0 0c8.72348 0 15.795258 4.5970078 15.795258 10.267715l0 0c0 5.6707 -7.0717773 10.267715 -15.795258 10.267715l0 0c-8.723511 0 -15.795288 -4.5970154 -15.795288 -10.267715z" fill-rule="nonzero"></path><path fill="#e06666" d="m-74.944885 309.12598c4.1076126 -8.965881 20.1273 0 0 11.527557c-20.127296 -11.527557 -4.107605 -20.493439 0 -11.527557z" fill-rule="nonzero"></path><path stroke="#000000" stroke-width="1.0" stroke-linejoin="round" stroke-linecap="butt" d="m-74.944885 309.12598c4.1076126 -8.965881 20.1273 0 0 11.527557c-20.127296 -11.527557 -4.107605 -20.493439 0 -11.527557z" fill-rule="nonzero"></path><path fill="#e06666" d="m-66.65642 298.41766c-0.020996094 -9.858246 18.26247 -8.423859 4.818901 10.464569c-23.081367 -2.04068 -12.293961 -16.884491 -4.818901 -10.464569z" fill-rule="nonzero"></path><path stroke="#000000" stroke-width="1.0" stroke-linejoin="round" stroke-linecap="butt" d="m-66.65642 298.41766c-0.020996094 -9.858246 18.26247 -8.423859 4.818901 10.464569c-23.081367 -2.04068 -12.293961 -16.884491 -4.818901 -10.464569z" fill-rule="nonzero"></path><path fill="#e06666" d="m-104.45694 312.4203c-0.020996094 -9.858246 18.262466 -8.423859 4.818901 10.464569c-23.081367 -2.04068 -12.293968 -16.884491 -4.818901 -10.464569z" fill-rule="nonzero"></path><path stroke="#000000" stroke-width="1.0" stroke-linejoin="round" stroke-linecap="butt" d="m-104.45694 312.4203c-0.020996094 -9.858246 18.262466 -8.423859 4.818901 10.464569c-23.081367 -2.04068 -12.293968 -16.884491 -4.818901 -10.464569z" fill-rule="nonzero"></path><path fill="#b4a7d6" d="m329.92407 55.881668l0 0c0 1.7025185 6.275055 3.0826797 14.015747 3.0826797c7.740692 0 14.015747 -1.3801613 14.015747 -3.0826797l0 18.496063c0 1.7025146 -6.275055 3.0826797 -14.015747 3.0826797c-7.740692 0 -14.015747 -1.3801651 -14.015747 -3.0826797z" fill-rule="nonzero"></path><path fill="#d2cae6" d="m329.92407 55.881668l0 0c0 -1.7025146 6.275055 -3.082676 14.015747 -3.082676c7.740692 0 14.015747 1.3801613 14.015747 3.082676l0 0c0 1.7025185 -6.275055 3.0826797 -14.015747 3.0826797c-7.740692 0 -14.015747 -1.3801613 -14.015747 -3.0826797z" fill-rule="nonzero"></path><path fill="#000000" fill-opacity="0.0" d="m357.95557 55.881668l0 0c0 1.7025185 -6.275055 3.0826797 -14.015747 3.0826797c-7.740692 0 -14.015747 -1.3801613 -14.015747 -3.0826797l0 0c0 -1.7025146 6.275055 -3.082676 14.015747 -3.082676c7.740692 0 14.015747 1.3801613 14.015747 3.082676l0 18.496063c0 1.7025146 -6.275055 3.0826797 -14.015747 3.0826797c-7.740692 0 -14.015747 -1.3801651 -14.015747 -3.0826797l0 -18.496063" fill-rule="nonzero"></path><path fill="#000000" fill-opacity="0.0" d="m79.839294 44.73084c-6.0140915 -6.3544083 -22.859283 -15.563456 -16.054295 -20.954203c6.9159584 -5.478655 5.521534 22.949934 14.165447 22.949934" fill-rule="evenodd"></path><path stroke="#6aa84f" stroke-width="4.0" stroke-linejoin="round" stroke-linecap="butt" d="m79.839294 44.73084c-6.0140915 -6.3544083 -22.859283 -15.563456 -16.054295 -20.954203c6.9159584 -5.478655 5.521534 22.949934 14.165447 22.949934" fill-rule="evenodd"></path><path fill="#000000" fill-opacity="0.0" d="m58.118015 65.68938c-2.518467 0 -5.774578 -1.8815918 -7.5554047 0c-0.9955139 1.0518494 0.62986755 4.657242 1.8888512 3.9914703c2.4220924 -1.2808533 -3.9844246 -5.685066 -6.611923 -4.990326c-3.4145164 0.9028244 -6.5158997 7.0537186 -9.44426 4.990326c-1.3356857 -0.9411621 -2.0787163 -3.790863 -0.94348526 -4.990326c5.635647 -5.954544 16.479694 0.2284851 23.609707 3.9914627" fill-rule="evenodd"></path><path stroke="#6aa84f" stroke-width="4.0" stroke-linejoin="round" stroke-linecap="butt" d="m58.118015 65.68938c-2.518467 0 -5.774578 -1.8815918 -7.5554047 0c-0.9955139 1.0518494 0.62986755 4.657242 1.8888512 3.9914703c2.4220924 -1.2808533 -3.9844246 -5.685066 -6.611923 -4.990326c-3.4145164 0.9028244 -6.5158997 7.0537186 -9.44426 4.990326c-1.3356857 -0.9411621 -2.0787163 -3.790863 -0.94348526 -4.990326c5.635647 -5.954544 16.479694 0.2284851 23.609707 3.9914627" fill-rule="evenodd"></path><path fill="#000000" fill-opacity="0.0" d="m63.786102 76.66577c-7.247738 0 -14.474998 -0.99687195 -21.722736 -0.99687195c-2.6712418 0 -8.25819 5.303314 -5.6665573 5.9872055c8.746105 2.3079453 18.3825 -10.250244 26.443924 -5.9872055" fill-rule="evenodd"></path><path stroke="#6aa84f" stroke-width="4.0" stroke-linejoin="round" stroke-linecap="butt" d="m63.786102 76.66577c-7.247738 0 -14.474998 -0.99687195 -21.722736 -0.99687195c-2.6712418 0 -8.25819 5.303314 -5.6665573 5.9872055c8.746105 2.3079453 18.3825 -10.250244 26.443924 -5.9872055" fill-rule="evenodd"></path><path fill="#000000" fill-opacity="0.0" d="m75.119125 55.709106c-6.464546 -2.562233 -13.382935 -14.798912 -8.500771 -19.957333c5.618065 -5.9359684 5.2768097 20.954205 13.221962 20.954205" fill-rule="evenodd"></path><path stroke="#6aa84f" stroke-width="4.0" stroke-linejoin="round" stroke-linecap="butt" d="m75.119125 55.709106c-6.464546 -2.562233 -13.382935 -14.798912 -8.500771 -19.957333c5.618065 -5.9359684 5.2768097 20.954205 13.221962 20.954205" fill-rule="evenodd"></path><path fill="#000000" d="m228.17586 127.56934l0 0c0 -2.243927 2.3549042 -4.062996 5.259842 -4.062996l0 0c2.9049225 0 5.259842 1.8190689 5.259842 4.062996l0 0c0 2.2439346 -2.3549194 4.062996 -5.259842 4.062996l0 0c-2.9049377 0 -5.259842 -1.8190613 -5.259842 -4.062996z" fill-rule="nonzero"></path><path stroke="#000000" stroke-width="1.0" stroke-linejoin="round" stroke-linecap="butt" d="m228.17586 127.56934l0 0c0 -2.243927 2.3549042 -4.062996 5.259842 -4.062996l0 0c2.9049225 0 5.259842 1.8190689 5.259842 4.062996l0 0c0 2.2439346 -2.3549194 4.062996 -5.259842 4.062996l0 0c-2.9049377 0 -5.259842 -1.8190613 -5.259842 -4.062996z" fill-rule="nonzero"></path><path fill="#000000" d="m180.24934 125.66883l0 0c0 -1.7568741 1.6710052 -3.181099 3.7322845 -3.181099l0 0c2.0612793 0 3.7322845 1.4242249 3.7322845 3.181099l0 0c0 1.7568741 -1.6710052 3.181099 -3.7322845 3.181099l0 0c-2.0612793 0 -3.7322845 -1.4242249 -3.7322845 -3.181099z" fill-rule="nonzero"></path><path stroke="#000000" stroke-width="1.0" stroke-linejoin="round" stroke-linecap="butt" d="m180.24934 125.66883l0 0c0 -1.7568741 1.6710052 -3.181099 3.7322845 -3.181099l0 0c2.0612793 0 3.7322845 1.4242249 3.7322845 3.181099l0 0c0 1.7568741 -1.6710052 3.181099 -3.7322845 3.181099l0 0c-2.0612793 0 -3.7322845 -1.4242249 -3.7322845 -3.181099z" fill-rule="nonzero"></path><path fill="#000000" fill-opacity="0.0" d="m459.07465 71.521515c-5.240753 0 -11.494049 6.2816772 -10.753265 11.469818c0.6558533 4.593376 7.3201904 5.8110657 11.469818 7.8871384c3.853119 1.927742 16.759094 -1.2102661 12.905487 0.7165375c-3.1774597 1.5887299 -10.127014 5.9147644 -7.1705933 7.884514c7.4009705 4.930977 18.57135 6.8473816 26.524933 2.8687668c3.9289246 -1.9653625 1.9120178 -9.079987 5.0183716 -12.186356c3.2805786 -3.280571 11.54538 1.2812424 13.619415 -2.8687668c1.8285217 -3.658638 2.952118 -8.388779 1.433075 -12.186348c-1.153595 -2.8839722 -9.0401 -0.5103607 -8.601044 -3.5853043c0.58984375 -4.1310577 6.1244507 -9.579235 2.86615 -12.186352c-12.744843 -10.197742 -58.137573 3.5133476 -46.595795 15.055119" fill-rule="evenodd"></path><path stroke="#000000" stroke-width="1.0" stroke-linejoin="round" stroke-linecap="butt" d="m459.07465 71.521515c-5.240753 0 -11.494049 6.2816772 -10.753265 11.469818c0.6558533 4.593376 7.3201904 5.8110657 11.469818 7.8871384c3.853119 1.927742 16.759094 -1.2102661 12.905487 0.7165375c-3.1774597 1.5887299 -10.127014 5.9147644 -7.1705933 7.884514c7.4009705 4.930977 18.57135 6.8473816 26.524933 2.8687668c3.9289246 -1.9653625 1.9120178 -9.079987 5.0183716 -12.186356c3.2805786 -3.280571 11.54538 1.2812424 13.619415 -2.8687668c1.8285217 -3.658638 2.952118 -8.388779 1.433075 -12.186348c-1.153595 -2.8839722 -9.0401 -0.5103607 -8.601044 -3.5853043c0.58984375 -4.1310577 6.1244507 -9.579235 2.86615 -12.186352c-12.744843 -10.197742 -58.137573 3.5133476 -46.595795 15.055119" fill-rule="evenodd"></path><path fill="#000000" fill-opacity="0.0" d="m460.50656 72.238846c6.2947083 5.036682 16.744568 9.163864 23.658783 5.0183716c5.8327026 -3.4970474 0.34664917 -19.354332 -6.454071 -19.354332" fill-rule="evenodd"></path><path stroke="#000000" stroke-width="1.0" stroke-linejoin="round" stroke-linecap="butt" d="m460.50656 72.238846c6.2947083 5.036682 16.744568 9.163864 23.658783 5.0183716c5.8327026 -3.4970474 0.34664917 -19.354332 -6.454071 -19.354332" fill-rule="evenodd"></path><path fill="#000000" fill-opacity="0.0" d="m504.23706 71.52231c-7.499237 0 -20.586456 4.0724945 -19.35434 11.469818c1.0679626 6.4117203 12.471313 7.7904053 18.637817 5.734909" fill-rule="evenodd"></path><path stroke="#000000" stroke-width="1.0" stroke-linejoin="round" stroke-linecap="butt" d="m504.23706 71.52231c-7.499237 0 -20.586456 4.0724945 -19.35434 11.469818c1.0679626 6.4117203 12.471313 7.7904053 18.637817 5.734909" fill-rule="evenodd"></path><path fill="#000000" fill-opacity="0.0" d="m476.27823 77.25722c1.1419983 4.5722504 -2.5959778 11.04335 -7.1679993 12.186356" fill-rule="evenodd"></path><path stroke="#000000" stroke-width="1.0" stroke-linejoin="round" stroke-linecap="butt" d="m476.27823 77.25722c1.1419983 4.5722504 -2.5959778 11.04335 -7.1679993 12.186356" fill-rule="evenodd"></path><path fill="#000000" fill-opacity="0.0" d="m467.67715 89.44357c7.650299 0 15.517395 1.1373291 22.939636 -0.7165375" fill-rule="evenodd"></path><path stroke="#000000" stroke-width="1.0" stroke-linejoin="round" stroke-linecap="butt" d="m467.67715 89.44357c7.650299 0 15.517395 1.1373291 22.939636 -0.7165375" fill-rule="evenodd"></path><path fill="#000000" fill-opacity="0.0" d="m343.54608 52.296494c-4.8388977 0 -13.331177 -0.8450813 -14.017578 3.1384888c-0.5751343 3.337532 7.830902 1.8684235 11.86026 2.2406082c5.8502197 0.54037094 20.277405 1.0599594 17.25061 -3.1384926c-3.2980042 -4.574642 -12.782623 -4.8252068 -18.867096 -3.1384888" fill-rule="evenodd"></path><path stroke="#000000" stroke-width="1.0" stroke-linejoin="round" stroke-linecap="butt" d="m343.54608 52.296494c-4.8388977 0 -13.331177 -0.8450813 -14.017578 3.1384888c-0.5751343 3.337532 7.830902 1.8684235 11.86026 2.2406082c5.8502197 0.54037094 20.277405 1.0599594 17.25061 -3.1384926c-3.2980042 -4.574642 -12.782623 -4.8252068 -18.867096 -3.1384888" fill-rule="evenodd"></path><path fill="#000000" fill-opacity="0.0" d="m358.101 58.124557c0 5.6809006 2.6989746 11.647438 0.5388489 17.036812" fill-rule="evenodd"></path><path stroke="#000000" stroke-width="1.0" stroke-linejoin="round" stroke-linecap="butt" d="m358.101 58.124557c0 5.6809006 2.6989746 11.647438 0.5388489 17.036812" fill-rule="evenodd"></path><path fill="#000000" fill-opacity="0.0" d="m330.0697 55.883854c0 5.9851456 -4.677185 14.339161 1.0776672 17.933056c7.908325 4.9387436 22.650208 6.7067413 29.64972 0.89624023" fill-rule="evenodd"></path><path stroke="#000000" stroke-width="1.0" stroke-linejoin="round" stroke-linecap="butt" d="m330.0697 55.883854c0 5.9851456 -4.677185 14.339161 1.0776672 17.933056c7.908325 4.9387436 22.650208 6.7067413 29.64972 0.89624023" fill-rule="evenodd"></path><path fill="#000000" fill-opacity="0.0" d="m313.8977 59.47062c0 5.0830917 -2.8088074 10.523155 -0.53881836 15.242691c2.2062988 4.5871964 12.152924 0.66438293 17.789429 -0.89624023" fill-rule="evenodd"></path><path stroke="#000000" stroke-width="1.0" stroke-linejoin="round" stroke-linecap="butt" d="m313.8977 59.47062c0 5.0830917 -2.8088074 10.523155 -0.53881836 15.242691c2.2062988 4.5871964 12.152924 0.66438293 17.789429 -0.89624023" fill-rule="evenodd"></path><path fill="#000000" fill-opacity="0.0" d="m313.8974 59.918213c5.0343018 0 10.775574 2.60104 15.093292 0.44812393c1.7230225 -0.85914993 4.4932556 -3.736023 2.6961365 -4.4828568c-5.389038 -2.239521 -15.34552 -0.27021027 -17.25061 4.4828568" fill-rule="evenodd"></path><path stroke="#000000" stroke-width="1.0" stroke-linejoin="round" stroke-linecap="butt" d="m313.8974 59.918213c5.0343018 0 10.775574 2.60104 15.093292 0.44812393c1.7230225 -0.85914993 4.4932556 -3.736023 2.6961365 -4.4828568c-5.389038 -2.239521 -15.34552 -0.27021027 -17.25061 4.4828568" fill-rule="evenodd"></path><path fill="#000000" fill-opacity="0.0" d="m64.02252 79.11453c8.5518875 -4.017952 16.318619 -9.70472 24.688774 -14.129311c2.0858078 -1.1025925 5.57193 -4.0551147 4.1147995 -5.979244c-2.2900543 -3.0239944 -7.370285 0.81404495 -10.802048 2.1748123c-7.035324 2.7896614 -16.69767 3.767521 -20.059868 10.868092c-1.2129936 2.5616913 4.6289062 4.2012405 4.6289062 7.065651" fill-rule="evenodd"></path><path stroke="#000000" stroke-width="1.0" stroke-linejoin="round" stroke-linecap="butt" d="m64.02252 79.11453c8.5518875 -4.017952 16.318619 -9.70472 24.688774 -14.129311c2.0858078 -1.1025925 5.57193 -4.0551147 4.1147995 -5.979244c-2.2900543 -3.0239944 -7.370285 0.81404495 -10.802048 2.1748123c-7.035324 2.7896614 -16.69767 3.767521 -20.059868 10.868092c-1.2129936 2.5616913 4.6289062 4.2012405 4.6289062 7.065651" fill-rule="evenodd"></path><path fill="#000000" fill-opacity="0.0" d="m78.937416 45.418667c8.610619 -1.5153809 15.758614 10.814926 18.517532 19.56535c0.8127136 2.5776901 6.171776 4.3468933 4.6289062 6.5204544c-3.494545 4.92305 -9.364983 -7.5758324 -12.858505 -12.499695c-3.4370804 -4.8443108 -10.802048 -8.074924 -10.802048 -14.129314" fill-rule="evenodd"></path><path stroke="#000000" stroke-width="1.0" stroke-linejoin="round" stroke-linecap="butt" d="m78.937416 45.418667c8.610619 -1.5153809 15.758614 10.814926 18.517532 19.56535c0.8127136 2.5776901 6.171776 4.3468933 4.6289062 6.5204544c-3.494545 4.92305 -9.364983 -7.5758324 -12.858505 -12.499695c-3.4370804 -4.8443108 -10.802048 -8.074924 -10.802048 -14.129314" fill-rule="evenodd"></path><path fill="#000000" fill-opacity="0.0" d="m56.30713 63.895966c8.220146 -2.8933296 14.927925 -9.595238 23.144554 -12.499695" fill-rule="evenodd"></path><path stroke="#000000" stroke-width="1.0" stroke-linejoin="round" stroke-linecap="butt" d="m56.30713 63.895966c8.220146 -2.8933296 14.927925 -9.595238 23.144554 -12.499695" fill-rule="evenodd"></path><path fill="#000000" fill-opacity="0.0" d="m57.84946 65.52807c6.210514 -1.460289 12.480854 -2.7673454 18.517529 -4.8908386" fill-rule="evenodd"></path><path stroke="#000000" stroke-width="1.0" stroke-linejoin="round" stroke-linecap="butt" d="m57.84946 65.52807c6.210514 -1.460289 12.480854 -2.7673454 18.517529 -4.8908386" fill-rule="evenodd"></path><path fill="#000000" fill-opacity="0.0" d="m73.28031 55.744137c2.2718582 1.9206772 4.5572968 3.9645233 6.171257 6.5224457" fill-rule="evenodd"></path><path stroke="#000000" stroke-width="1.0" stroke-linejoin="round" stroke-linecap="butt" d="m73.28031 55.744137c2.2718582 1.9206772 4.5572968 3.9645233 6.171257 6.5224457" fill-rule="evenodd"></path><path fill="#000000" fill-opacity="0.0" d="m84.5964 67.15792c5.00721 3.1743164 8.301987 8.896629 13.37262 11.95649c1.2719574 0.76755524 3.2359238 2.867752 4.1147995 1.6296158c4.0064087 -5.64415 -8.651024 -10.770157 -13.37262 -15.758934" fill-rule="evenodd"></path><path stroke="#000000" stroke-width="1.0" stroke-linejoin="round" stroke-linecap="butt" d="m84.5964 67.15792c5.00721 3.1743164 8.301987 8.896629 13.37262 11.95649c1.2719574 0.76755524 3.2359238 2.867752 4.1147995 1.6296158c4.0064087 -5.64415 -8.651024 -10.770157 -13.37262 -15.758934" fill-rule="evenodd"></path><path fill="#6fa8dc" d="m125.44752 135.2116l54.803154 66.14172l-17.259842 14.267715l-54.803154 -66.14172z" fill-rule="nonzero"></path><path fill="#6fa8dc" d="m170.45532 115.81896l-45.826767 49.6063l-16.440948 -15.212601l45.826767 -49.6063z" fill-rule="nonzero"></path><path fill="#000000" fill-opacity="0.0" d="m218.9377 185.30911c27.109436 -7.9065704 67.18297 -43.761353 51.51445 -67.254585c-10.030762 -15.039986 -26.652405 -26.021523 -43.64305 -32.196854c-12.572266 -4.5694427 -26.824875 3.1762314 -39.351715 7.868767c-10.060226 3.768547 -27.966873 -8.442024 -32.19684 1.433075c-7.433304 17.353462 -9.545685 38.612076 -3.5774384 56.52231c5.173935 15.526566 24.191223 22.065445 35.774277 33.62729" fill-rule="evenodd"></path><path stroke="#000000" stroke-width="2.0" stroke-linejoin="round" stroke-linecap="butt" d="m218.9377 185.30911c27.109436 -7.9065704 67.18297 -43.761353 51.51445 -67.254585c-10.030762 -15.039986 -26.652405 -26.021523 -43.64305 -32.196854c-12.572266 -4.5694427 -26.824875 3.1762314 -39.351715 7.868767c-10.060226 3.768547 -27.966873 -8.442024 -32.19684 1.433075c-7.433304 17.353462 -9.545685 38.612076 -3.5774384 56.52231c5.173935 15.526566 24.191223 22.065445 35.774277 33.62729" fill-rule="evenodd"></path><path fill="#000000" fill-opacity="0.0" d="m219.65355 188.17017c12.394348 0 28.74289 -2.5214233 36.488174 7.1548615c4.6586304 5.8200836 1.7441406 14.810272 2.8609009 22.181091c1.6325378 10.774902 8.999603 19.865982 12.879272 30.049881c6.9002686 18.112854 33.317963 42.47522 18.603668 55.091858c-16.692963 14.313263 -23.803009 -37.39618 -39.3517 -52.944885" fill-rule="evenodd"></path><path stroke="#000000" stroke-width="2.0" stroke-linejoin="round" stroke-linecap="butt" d="m219.65355 188.17017c12.394348 0 28.74289 -2.5214233 36.488174 7.1548615c4.6586304 5.8200836 1.7441406 14.810272 2.8609009 22.181091c1.6325378 10.774902 8.999603 19.865982 12.879272 30.049881c6.9002686 18.112854 33.317963 42.47522 18.603668 55.091858c-16.692963 14.313263 -23.803009 -37.39618 -39.3517 -52.944885" fill-rule="evenodd"></path><path fill="#000000" fill-opacity="0.0" d="m186.73972 184.59317c0 19.777283 -46.123825 -13.401291 -49.367447 -32.91075c-0.7051544 -4.2413177 6.6523895 -5.798218 10.732285 -7.1548615" fill-rule="evenodd"></path><path stroke="#000000" stroke-width="2.0" stroke-linejoin="round" stroke-linecap="butt" d="m186.73972 184.59317c0 19.777283 -46.123825 -13.401291 -49.367447 -32.91075c-0.7051544 -4.2413177 6.6523895 -5.798218 10.732285 -7.1548615" fill-rule="evenodd"></path><path fill="#000000" fill-opacity="0.0" d="m152.39723 102.31233c-12.018845 6.8724136 -18.11528 20.974312 -27.902893 30.766403c-5.194023 5.196411 -14.660439 10.759171 -12.879265 17.887146c7.043892 28.188492 50.80053 41.776764 50.80053 70.832016" fill-rule="evenodd"></path><path stroke="#000000" stroke-width="2.0" stroke-linejoin="round" stroke-linecap="butt" d="m152.39723 102.31233c-12.018845 6.8724136 -18.11528 20.974312 -27.902893 30.766403c-5.194023 5.196411 -14.660439 10.759171 -12.879265 17.887146c7.043892 28.188492 50.80053 41.776764 50.80053 70.832016" fill-rule="evenodd"></path><path fill="#000000" fill-opacity="0.0" d="m162.41432 219.65355c0 36.25334 -0.98020935 72.57753 1.4304504 108.750656c1.0149841 15.230438 -4.192383 31.115448 0 45.792633c2.6307526 9.210083 18.013779 6.549347 27.18898 9.299225c13.1493225 3.9409485 27.054962 -5.7217712 40.78215 -5.7217712c6.67717 0 18.583298 6.518219 20.031494 0c7.1430206 -32.150177 -3.577423 -65.80344 -3.577423 -98.73755c0 -10.324554 -5.006653 -25.029663 3.577423 -30.766403" fill-rule="evenodd"></path><path stroke="#000000" stroke-width="2.0" stroke-linejoin="round" stroke-linecap="butt" d="m162.41432 219.65355c0 36.25334 -0.98020935 72.57753 1.4304504 108.750656c1.0149841 15.230438 -4.192383 31.115448 0 45.792633c2.6307526 9.210083 18.013779 6.549347 27.18898 9.299225c13.1493225 3.9409485 27.054962 -5.7217712 40.78215 -5.7217712c6.67717 0 18.583298 6.518219 20.031494 0c7.1430206 -32.150177 -3.577423 -65.80344 -3.577423 -98.73755c0 -10.324554 -5.006653 -25.029663 3.577423 -30.766403" fill-rule="evenodd"></path><path fill="#783f04" d="m271.88712 365.7782l0 0c-14.228943 -10.95871 -17.063293 -31.144684 -6.3306885 -45.08661q9.716522 -12.62204 19.433044 -25.24411q12.881897 9.921265 25.763794 19.84253l0 0c14.228943 10.95871 17.063293 31.144684 6.330719 45.08661l0 0c-10.732605 13.941925 -30.967926 16.36029 -45.19687 5.401581z" fill-rule="nonzero"></path><path fill="#fff2cc" d="m263.64212 91.06718l0 0c-0.16775513 -1.656395 0.38302612 -3.2961197 1.4186401 -4.223381c1.0355835 -0.927269 2.3743896 -0.9794464 3.4482727 -0.13440704l0 0c0.3804016 -0.9630966 1.0766602 -1.6280441 1.8781433 -1.7937164c0.8015137 -0.1656723 1.6141052 0.18739319 2.1920166 0.9524002l0 0c0.32406616 -0.87319946 0.96035767 -1.459877 1.6831055 -1.551857c0.7227173 -0.09197235 1.4296265 0.32377625 1.8698425 1.0997238l0 0c0.5854492 -0.9255905 1.5169373 -1.3153076 2.3913574 -1.0005112c0.8744507 0.31479645 1.53479 1.277565 1.6953125 2.4717102l0 0c0.71728516 0.2628708 1.3147583 0.93112946 1.638092 1.8321152c0.32330322 0.9009781 0.34072876 1.9463043 0.04776001 2.8658981l0 0c0.7062988 1.235115 0.871521 2.8808823 0.434021 4.323143c-0.43753052 1.4422607 -1.4120789 2.4643173 -2.5599365 2.6847687c-0.008117676 1.3536148 -0.5606384 2.5956726 -1.4446411 3.247429c-0.88397217 0.6517639 -1.9613953 0.6114502 -2.816986 -0.105392456c-0.3644104 1.6211853 -1.3901672 2.8140335 -2.6340332 3.0631943c-1.2438965 0.2491684 -2.4829712 -0.49002838 -3.1818542 -1.8982162c-0.85672 0.6940994 -1.8847046 0.8940506 -2.8520508 0.5547409c-0.9673462 -0.3393097 -1.7926025 -1.1892929 -2.2895813 -2.3582077l0 0c-0.87545776 0.1376419 -1.7218933 -0.4717636 -2.1192322 -1.5257797c-0.39733887 -1.0540085 -0.26098633 -2.3282547 0.3413391 -3.1903229l0 0c-0.7809143 -0.6175461 -1.1793823 -1.8429642 -0.98760986 -3.037239c0.19174194 -1.1942825 0.93029785 -2.0867996 1.8305054 -2.2121353z" fill-rule="nonzero"></path><path fill="#000000" fill-opacity="0.0" d="m262.78195 96.380394l0 0c0.36849976 0.29141998 0.79422 0.4236145 1.2200012 0.3788376m0.5576782 4.337364c0.18310547 -0.028785706 0.36254883 -0.0897522 0.53378296 -0.18131256m4.6075745 1.9847107c-0.12878418 -0.2594757 -0.23660278 -0.53674316 -0.32162476 -0.8270798m6.1377563 -0.33795166l0 0c0.06643677 -0.29557037 0.10949707 -0.5997696 0.12841797 -0.90753174m4.133026 -2.2343903c0.008605957 -1.441124 -0.60058594 -2.7606354 -1.565979 -3.3917618m3.6918945 -3.6159973c-0.15634155 0.4907303 -0.39501953 0.9260483 -0.69729614 1.2718277m-0.9884033 -5.9699707l0 0c0.026641846 0.1981659 0.038970947 0.39931488 0.0368042 0.6006546m-4.123413 -2.0717926l0 0c-0.14605713 0.23088837 -0.26635742 0.48889923 -0.35720825 0.7660141m-3.1957703 -0.3139801l0 0c-0.077819824 0.2097168 -0.1359253 0.431633 -0.17300415 0.6606293m-3.8972168 0.18070221l0 0c0.22723389 0.17881012 0.43746948 0.3940277 0.6260376 0.64092255m-5.4928894 3.7168884l0 0c0.023132324 0.22828674 0.059661865 0.45376587 0.10925293 0.67432404" fill-rule="nonzero"></path><path stroke="#000000" stroke-width="2.0" stroke-linejoin="round" stroke-linecap="butt" d="m263.64212 91.06718l0 0c-0.16775513 -1.656395 0.38302612 -3.2961197 1.4186401 -4.223381c1.0355835 -0.927269 2.3743896 -0.9794464 3.4482727 -0.13440704l0 0c0.3804016 -0.9630966 1.0766602 -1.6280441 1.8781433 -1.7937164c0.8015137 -0.1656723 1.6141052 0.18739319 2.1920166 0.9524002l0 0c0.32406616 -0.87319946 0.96035767 -1.459877 1.6831055 -1.551857c0.7227173 -0.09197235 1.4296265 0.32377625 1.8698425 1.0997238l0 0c0.5854492 -0.9255905 1.5169373 -1.3153076 2.3913574 -1.0005112c0.8744507 0.31479645 1.53479 1.277565 1.6953125 2.4717102l0 0c0.71728516 0.2628708 1.3147583 0.93112946 1.638092 1.8321152c0.32330322 0.9009781 0.34072876 1.9463043 0.04776001 2.8658981l0 0c0.7062988 1.235115 0.871521 2.8808823 0.434021 4.323143c-0.43753052 1.4422607 -1.4120789 2.4643173 -2.5599365 2.6847687c-0.008117676 1.3536148 -0.5606384 2.5956726 -1.4446411 3.247429c-0.88397217 0.6517639 -1.9613953 0.6114502 -2.816986 -0.105392456c-0.3644104 1.6211853 -1.3901672 2.8140335 -2.6340332 3.0631943c-1.2438965 0.2491684 -2.4829712 -0.49002838 -3.1818542 -1.8982162c-0.85672 0.6940994 -1.8847046 0.8940506 -2.8520508 0.5547409c-0.9673462 -0.3393097 -1.7926025 -1.1892929 -2.2895813 -2.3582077l0 0c-0.87545776 0.1376419 -1.7218933 -0.4717636 -2.1192322 -1.5257797c-0.39733887 -1.0540085 -0.26098633 -2.3282547 0.3413391 -3.1903229l0 0c-0.7809143 -0.6175461 -1.1793823 -1.8429642 -0.98760986 -3.037239c0.19174194 -1.1942825 0.93029785 -2.0867996 1.8305054 -2.2121353z" fill-rule="nonzero"></path><path stroke="#000000" stroke-width="2.0" stroke-linejoin="round" stroke-linecap="butt" d="m262.78195 96.380394l0 0c0.36849976 0.29141998 0.79422 0.4236145 1.2200012 0.3788376m0.5576782 4.337364c0.18310547 -0.028785706 0.36254883 -0.0897522 0.53378296 -0.18131256m4.6075745 1.9847107c-0.12878418 -0.2594757 -0.23660278 -0.53674316 -0.32162476 -0.8270798m6.1377563 -0.33795166l0 0c0.06643677 -0.29557037 0.10949707 -0.5997696 0.12841797 -0.90753174m4.133026 -2.2343903c0.008605957 -1.441124 -0.60058594 -2.7606354 -1.565979 -3.3917618m3.6918945 -3.6159973c-0.15634155 0.4907303 -0.39501953 0.9260483 -0.69729614 1.2718277m-0.9884033 -5.9699707l0 0c0.026641846 0.1981659 0.038970947 0.39931488 0.0368042 0.6006546m-4.123413 -2.0717926l0 0c-0.14605713 0.23088837 -0.26635742 0.48889923 -0.35720825 0.7660141m-3.1957703 -0.3139801l0 0c-0.077819824 0.2097168 -0.1359253 0.431633 -0.17300415 0.6606293m-3.8972168 0.18070221l0 0c0.22723389 0.17881012 0.43746948 0.3940277 0.6260376 0.64092255m-5.4928894 3.7168884l0 0c0.023132324 0.22828674 0.059661865 0.45376587 0.10925293 0.67432404" fill-rule="nonzero"></path><path fill="#d9ead3" d="m135.10722 85.48516l0 0c-0.115097046 -0.98322296 0.26280212 -1.9565582 0.97332764 -2.506981c0.7105255 -0.55041504 1.6290741 -0.5813904 2.3658752 -0.07978058l0 0c0.2610016 -0.5716858 0.7387085 -0.9663925 1.28862 -1.0647354c0.54989624 -0.098342896 1.1074371 0.11123657 1.5039368 0.56533813l0 0c0.22233582 -0.5183258 0.658905 -0.86657715 1.1547699 -0.9211731c0.49588013 -0.054595947 0.98088074 0.19219208 1.2829132 0.65278625l0 0c0.40168762 -0.5494232 1.0407715 -0.7807541 1.6407318 -0.59389496c0.5999603 0.18685913 1.0530243 0.7583542 1.163147 1.4671936l0 0c0.49214172 0.15603638 0.9020691 0.5527115 1.1239014 1.087532c0.22181702 0.53482056 0.23376465 1.1553192 0.03276062 1.7011795l0 0c0.48460388 0.7331619 0.5979767 1.710083 0.29779053 2.5662003c-0.30018616 0.85611725 -0.9688263 1.4628067 -1.7563934 1.5936661c-0.0055389404 0.8034973 -0.38464355 1.5407715 -0.9911499 1.9276505c-0.60650635 0.3868866 -1.3457336 0.3629532 -1.9327393 -0.062561035c-0.25004578 0.96232605 -0.9537964 1.6703949 -1.8072357 1.8182983c-0.85343933 0.14790344 -1.7035675 -0.2908783 -2.1830902 -1.12677c-0.5877838 0.41201782 -1.2930756 0.5307007 -1.9567871 0.3292923c-0.66371155 -0.20141602 -1.2299194 -0.7059555 -1.5708923 -1.399826l0 0c-0.600647 0.081710815 -1.1813965 -0.28003693 -1.45401 -0.90569305c-0.27261353 -0.6256485 -0.17907715 -1.3820343 0.2341919 -1.893753l0 0c-0.53578186 -0.36657715 -0.8091736 -1.0939789 -0.6776123 -1.8028946c0.13157654 -0.7089157 0.6382904 -1.2387085 1.2559204 -1.3131104z" fill-rule="nonzero"></path><path fill="#000000" fill-opacity="0.0" d="m134.51704 88.63905l0 0c0.2528534 0.17298889 0.54493713 0.2514572 0.83706665 0.2248764m0.38261414 2.5746384c0.12562561 -0.017082214 0.24876404 -0.053268433 0.3662262 -0.10762024m3.1612854 1.1781082c-0.08834839 -0.15402222 -0.162323 -0.31860352 -0.22065735 -0.49095154m4.211136 -0.20059967l0 0c0.045578003 -0.17545319 0.07511902 -0.35601807 0.08810425 -0.5387039m2.835678 -1.3263245c0.0059051514 -0.85544586 -0.41207886 -1.6387024 -1.0744171 -2.0133362m2.5330048 -2.1464386c-0.10726929 0.2912979 -0.27101135 0.5497055 -0.4784088 0.7549591m-0.67814636 -3.543747l0 0c0.01826477 0.117630005 0.026733398 0.23703003 0.025253296 0.3565445m-2.8291016 -1.229805l0 0c-0.10018921 0.13705444 -0.18273926 0.2902069 -0.24507141 0.45469666m-2.192627 -0.18637085l0 0c-0.053390503 0.1244812 -0.09326172 0.25621033 -0.11869812 0.39214325m-2.6739044 0.10726166l0 0c0.1559143 0.106147766 0.30014038 0.23389435 0.4295349 0.38045502m-3.768692 2.2063217l0 0c0.01586914 0.1355133 0.04093933 0.26935577 0.07496643 0.40027618" fill-rule="nonzero"></path><path stroke="#000000" stroke-width="2.0" stroke-linejoin="round" stroke-linecap="butt" d="m135.10722 85.48516l0 0c-0.115097046 -0.98322296 0.26280212 -1.9565582 0.97332764 -2.506981c0.7105255 -0.55041504 1.6290741 -0.5813904 2.3658752 -0.07978058l0 0c0.2610016 -0.5716858 0.7387085 -0.9663925 1.28862 -1.0647354c0.54989624 -0.098342896 1.1074371 0.11123657 1.5039368 0.56533813l0 0c0.22233582 -0.5183258 0.658905 -0.86657715 1.1547699 -0.9211731c0.49588013 -0.054595947 0.98088074 0.19219208 1.2829132 0.65278625l0 0c0.40168762 -0.5494232 1.0407715 -0.7807541 1.6407318 -0.59389496c0.5999603 0.18685913 1.0530243 0.7583542 1.163147 1.4671936l0 0c0.49214172 0.15603638 0.9020691 0.5527115 1.1239014 1.087532c0.22181702 0.53482056 0.23376465 1.1553192 0.03276062 1.7011795l0 0c0.48460388 0.7331619 0.5979767 1.710083 0.29779053 2.5662003c-0.30018616 0.85611725 -0.9688263 1.4628067 -1.7563934 1.5936661c-0.0055389404 0.8034973 -0.38464355 1.5407715 -0.9911499 1.9276505c-0.60650635 0.3868866 -1.3457336 0.3629532 -1.9327393 -0.062561035c-0.25004578 0.96232605 -0.9537964 1.6703949 -1.8072357 1.8182983c-0.85343933 0.14790344 -1.7035675 -0.2908783 -2.1830902 -1.12677c-0.5877838 0.41201782 -1.2930756 0.5307007 -1.9567871 0.3292923c-0.66371155 -0.20141602 -1.2299194 -0.7059555 -1.5708923 -1.399826l0 0c-0.600647 0.081710815 -1.1813965 -0.28003693 -1.45401 -0.90569305c-0.27261353 -0.6256485 -0.17907715 -1.3820343 0.2341919 -1.893753l0 0c-0.53578186 -0.36657715 -0.8091736 -1.0939789 -0.6776123 -1.8028946c0.13157654 -0.7089157 0.6382904 -1.2387085 1.2559204 -1.3131104z" fill-rule="nonzero"></path><path stroke="#000000" stroke-width="2.0" stroke-linejoin="round" stroke-linecap="butt" d="m134.51704 88.63905l0 0c0.2528534 0.17298889 0.54493713 0.2514572 0.83706665 0.2248764m0.38261414 2.5746384c0.12562561 -0.017082214 0.24876404 -0.053268433 0.3662262 -0.10762024m3.1612854 1.1781082c-0.08834839 -0.15402222 -0.162323 -0.31860352 -0.22065735 -0.49095154m4.211136 -0.20059967l0 0c0.045578003 -0.17545319 0.07511902 -0.35601807 0.08810425 -0.5387039m2.835678 -1.3263245c0.0059051514 -0.85544586 -0.41207886 -1.6387024 -1.0744171 -2.0133362m2.5330048 -2.1464386c-0.10726929 0.2912979 -0.27101135 0.5497055 -0.4784088 0.7549591m-0.67814636 -3.543747l0 0c0.01826477 0.117630005 0.026733398 0.23703003 0.025253296 0.3565445m-2.8291016 -1.229805l0 0c-0.10018921 0.13705444 -0.18273926 0.2902069 -0.24507141 0.45469666m-2.192627 -0.18637085l0 0c-0.053390503 0.1244812 -0.09326172 0.25621033 -0.11869812 0.39214325m-2.6739044 0.10726166l0 0c0.1559143 0.106147766 0.30014038 0.23389435 0.4295349 0.38045502m-3.768692 2.2063217l0 0c0.01586914 0.1355133 0.04093933 0.26935577 0.07496643 0.40027618" fill-rule="nonzero"></path><path fill="#000000" fill-opacity="0.0" d="m284.0459 296.9239c-8.112183 16.224335 -24.900604 31.339294 -22.89502 49.367462c1.7779541 15.981995 23.490417 30.552277 39.351715 27.905487c14.419128 -2.406128 26.38858 -22.018616 24.32544 -36.490814c-2.6419067 -18.532227 -22.308807 -33.425537 -40.065613 -39.351685" fill-rule="evenodd"></path><path stroke="#000000" stroke-width="2.0" stroke-linejoin="round" stroke-linecap="butt" d="m284.0459 296.9239c-8.112183 16.224335 -24.900604 31.339294 -22.89502 49.367462c1.7779541 15.981995 23.490417 30.552277 39.351715 27.905487c14.419128 -2.406128 26.38858 -22.018616 24.32544 -36.490814c-2.6419067 -18.532227 -22.308807 -33.425537 -40.065613 -39.351685" fill-rule="evenodd"></path><path fill="#000000" fill-opacity="0.0" d="m283.33093 301.21783c-3.4382935 8.598907 -3.4108582 28.706116 5.7243958 27.18637c9.282898 -1.5443115 -0.08547974 -19.485931 -4.2939453 -27.902893" fill-rule="evenodd"></path><path stroke="#000000" stroke-width="2.0" stroke-linejoin="round" stroke-linecap="butt" d="m283.33093 301.21783c-3.4382935 8.598907 -3.4108582 28.706116 5.7243958 27.18637c9.282898 -1.5443115 -0.08547974 -19.485931 -4.2939453 -27.902893" fill-rule="evenodd"></path></g></svg>

