<?xml version="1.0" standalone="yes"?>

<svg version="1.1" viewBox="0.0 0.0 392.0 185.11023622047244" fill="none" stroke="none" stroke-linecap="square" stroke-miterlimit="10" xmlns="http://www.w3.org/2000/svg" xmlns:xlink="http://www.w3.org/1999/xlink"><clipPath id="p.0"><path d="m0 0l392.0 0l0 185.11023l-392.0 0l0 -185.11023z" clip-rule="nonzero"></path></clipPath><g clip-path="url(#p.0)"><path fill="#000000" fill-opacity="0.0" d="m0 0l392.0 0l0 185.11023l-392.0 0z" fill-rule="nonzero"></path><path fill="#b45f06" d="m227.12738 111.4479l0 0c6.6882935 -19.89965 24.688568 -31.801117 40.204712 -26.58268l0 0c7.4511414 2.5059814 13.321167 8.70549 16.318817 17.234703c2.9976196 8.529213 2.8772888 18.68946 -0.3345642 28.245613l0 0c-6.6882935 19.899643 -24.688568 31.801117 -40.204712 26.582672l0 0c-15.516159 -5.2184296 -22.672546 -25.580673 -15.984253 -45.48031z" fill-rule="nonzero"></path><path fill="#b45f06" d="m283.1929 105.40026l92.188995 0l0 14.960632l-92.188995 0z" fill-rule="nonzero"></path><path fill="#f4cccc" d="m159.39896 71.30612l0 0c-6.6883087 19.89965 -24.688568 31.801117 -40.204727 26.58268l0 0c-7.451126 -2.5059814 -13.321167 -8.70549 -16.318802 -17.234703c-2.9976273 -8.529213 -2.8772888 -18.689465 0.33454895 -28.245613l0 0c6.688301 -19.899647 24.688568 -31.801115 40.204727 -26.582678l0 0c15.516159 5.218439 22.672546 25.580671 15.984253 45.480316z" fill-rule="nonzero"></path><path fill="#f4cccc" d="m103.33341 77.35376l-92.18897 0l0 -14.960632l92.18897 0z" fill-rule="nonzero"></path><path fill="#b45f06" d="m232.07217 67.384514l0 0c0 -20.995518 13.269302 -38.015747 29.637787 -38.015747l0 0c7.860443 0 15.398926 4.0052185 20.957092 11.134556c5.5581665 7.1293335 8.680725 16.79879 8.680725 26.881191l0 0c0 20.995522 -13.269318 38.015747 -29.637817 38.015747l0 0c-16.368484 0 -29.637787 -17.020226 -29.637787 -38.015747z" fill-rule="nonzero"></path><path fill="#b45f06" d="m288.8386 59.904198l92.188965 0l0 14.960632l-92.188965 0z" fill-rule="nonzero"></path><path fill="#f4cccc" d="m159.16905 127.02403l0 0c4.113861 20.586746 -5.5666504 39.870224 -21.622055 43.07086l0 0c-7.7100677 1.5370026 -15.889145 -0.9161835 -22.737915 -6.8198853c-6.84877 -5.903702 -11.806221 -14.7743225 -13.781769 -24.66043l0 0c-4.1138687 -20.586731 5.5666504 -39.870216 21.622047 -43.07086l0 0c16.055397 -3.2006378 32.405815 10.893578 36.51969 31.480316z" fill-rule="nonzero"></path><path fill="#f4cccc" d="m104.88976 140.30052l-92.18897 0l0 -14.960625l92.18897 0z" fill-rule="nonzero"></path><path fill="#6d9eeb" d="m111.479004 91.37665l0 0c0 -45.37433 37.3472 -82.157486 83.41731 -82.157486l0 0c22.123657 0 43.34117 8.655853 58.984955 24.063372c15.643784 15.4075165 24.432358 36.304596 24.432358 58.094116l0 0c0 45.37433 -37.3472 82.157486 -83.41731 82.157486l0 0c-46.070114 0 -83.41731 -36.783157 -83.41731 -82.157486z" fill-rule="nonzero"></path><path fill="#93c47d" d="m137.50787 50.2979l43.905518 0l0 34.17323l-43.905518 0z" fill-rule="nonzero"></path><path fill="#93c47d" d="m142.83858 82.510826l10.645676 0l0 17.732285l-10.645676 0z" fill-rule="nonzero"></path><path fill="#93c47d" d="m139.70998 100.24278l43.905518 0l0 14.960632l-43.905518 0z" fill-rule="nonzero"></path><path fill="#93c47d" d="m142.83858 113.414696l27.905518 0l0 14.960625l-27.905518 0z" fill-rule="nonzero"></path><path fill="#93c47d" d="m151.30315 128.37665l16.314972 0l0 14.960617l-16.314972 0z" fill-rule="nonzero"></path><path fill="#93c47d" d="m194.90945 83.896324l43.905502 0l0 14.960632l-43.905502 0z" fill-rule="nonzero"></path><path fill="#93c47d" d="m204.9357 98.85696l35.74803 0l0 14.960632l-35.74803 0z" fill-rule="nonzero"></path><path fill="#93c47d" d="m202.90945 113.414696l27.905502 0l0 14.960625l-27.905502 0z" fill-rule="nonzero"></path><path fill="#93c47d" d="m208.6916 125.3399l18.992126 0l0 14.960625l-18.992126 0z" fill-rule="nonzero"></path><path fill="#93c47d" d="m234.40814 45.906826l30.11023 0l0 38.55118l-30.11023 0z" fill-rule="nonzero"></path><path fill="#93c47d" d="m202.90945 54.37664l35.74803 0l0 14.960632l-35.74803 0z" fill-rule="nonzero"></path><path fill="#93c47d" d="m196.4685 62.135498l10.64566 0l0 17.732285l-10.64566 0z" fill-rule="nonzero"></path><path fill="#93c47d" d="m198.04593 39.948963l10.645676 0l0 10.3622055l-10.645676 0z" fill-rule="nonzero"></path><path fill="#93c47d" d="m232.07217 33.116737l10.645676 0l0 21.259842l-10.645676 0z" fill-rule="nonzero"></path><path fill="#ffffff" d="m177.02231 11.413385l33.228348 0l0 9.354332l-33.228348 0z" fill-rule="nonzero"></path><path fill="#93c47d" d="m215.01706 33.147762l20.37796 -0.031497955l0 11.086613l-20.37796 0.031497955z" fill-rule="nonzero"></path><path fill="#93c47d" d="m132.34251 37.757217l54.23622 0l0 24.377953l-54.23622 0z" fill-rule="nonzero"></path><path fill="#000000" fill-opacity="0.0" d="m119.63066 55.31541c15.962814 -27.934923 56.050644 -47.59923 87.490814 -40.766403c11.520615 2.5037537 26.469986 -2.0641928 34.808395 6.270342c24.36139 24.35005 49.79538 68.48524 32.299225 98.154854c-19.543747 33.141853 -68.23657 65.176 -103.79791 50.488182c-15.078217 -6.227707 -31.403442 -12.7035675 -42.020996 -25.089233c-20.793861 -24.256607 -10.80986 -64.01773 -6.27034 -95.64304" fill-rule="evenodd"></path><path stroke="#000000" stroke-width="2.0" stroke-linejoin="round" stroke-linecap="butt" d="m119.63066 55.31541c15.962814 -27.934923 56.050644 -47.59923 87.490814 -40.766403c11.520615 2.5037537 26.469986 -2.0641928 34.808395 6.270342c24.36139 24.35005 49.79538 68.48524 32.299225 98.154854c-19.543747 33.141853 -68.23657 65.176 -103.79791 50.488182c-15.078217 -6.227707 -31.403442 -12.7035675 -42.020996 -25.089233c-20.793861 -24.256607 -10.80986 -64.01773 -6.27034 -95.64304" fill-rule="evenodd"></path><path fill="#ffffff" d="m153.48425 153.31102l78.58267 0l0 9.35434l-78.58267 0z" fill-rule="nonzero"></path><path fill="#ffffff" d="m172.94357 161.9252l35.74803 0l0 9.354324l-35.74803 0z" fill-rule="nonzero"></path><path fill="#000000" fill-opacity="0.0" d="m12.069553 61.586613c0 5.1248817 -0.4698162 10.24258 -0.4698162 15.367458" fill-rule="evenodd"></path><path stroke="#000000" stroke-width="2.0" stroke-linejoin="round" stroke-linecap="butt" d="m12.069553 61.586613c0 5.1248817 -0.4698162 10.24258 -0.4698162 15.367458" fill-rule="evenodd"></path><path fill="#000000" fill-opacity="0.0" d="m12.384515 62.841206c29.114117 0 58.27639 0.5690651 87.333336 -1.2545929" fill-rule="evenodd"></path><path stroke="#000000" stroke-width="2.0" stroke-linejoin="round" stroke-linecap="butt" d="m12.384515 62.841206c29.114117 0 58.27639 0.5690651 87.333336 -1.2545929" fill-rule="evenodd"></path><path fill="#000000" fill-opacity="0.0" d="m10.972441 76.796585c13.275869 6.982994 29.99964 -0.31233215 45.0 -0.31233215c15.731758 0 31.49762 0.73615265 47.19422 -0.3149643" fill-rule="evenodd"></path><path stroke="#000000" stroke-width="2.0" stroke-linejoin="round" stroke-linecap="butt" d="m10.972441 76.796585c13.275869 6.982994 29.99964 -0.31233215 45.0 -0.31233215c15.731758 0 31.49762 0.73615265 47.19422 -0.3149643" fill-rule="evenodd"></path><path fill="#000000" fill-opacity="0.0" d="m102.06956 76.16929c0 6.5737305 3.8851929 13.93589 9.564301 17.24672" fill-rule="evenodd"></path><path stroke="#000000" stroke-width="2.0" stroke-linejoin="round" stroke-linecap="butt" d="m102.06956 76.16929c0 6.5737305 3.8851929 13.93589 9.564301 17.24672" fill-rule="evenodd"></path><path fill="#000000" fill-opacity="0.0" d="m100.814964 62.840675c0 -19.05978 28.291695 -46.294136 44.372704 -36.062996" fill-rule="evenodd"></path><path stroke="#000000" stroke-width="2.0" stroke-linejoin="round" stroke-linecap="butt" d="m100.814964 62.840675c0 -19.05978 28.291695 -46.294136 44.372704 -36.062996" fill-rule="evenodd"></path><path fill="#000000" fill-opacity="0.0" d="m99.87533 124.93307c0 -9.584305 4.126152 -22.387817 13.170601 -25.559052" fill-rule="evenodd"></path><path stroke="#000000" stroke-width="2.0" stroke-linejoin="round" stroke-linecap="butt" d="m99.87533 124.93307c0 -9.584305 4.126152 -22.387817 13.170601 -25.559052" fill-rule="evenodd"></path><path fill="#000000" fill-opacity="0.0" d="m100.502625 123.83641c-28.752777 2.949318 -57.89081 -1.5980225 -86.708664 0.62729645" fill-rule="evenodd"></path><path stroke="#000000" stroke-width="2.0" stroke-linejoin="round" stroke-linecap="butt" d="m100.502625 123.83641c-28.752777 2.949318 -57.89081 -1.5980225 -86.708664 0.62729645" fill-rule="evenodd"></path><path fill="#000000" fill-opacity="0.0" d="m12.069082 123.36352c0 5.9728928 -0.0074739456 12.378319 2.666667 17.719154" fill-rule="evenodd"></path><path stroke="#000000" stroke-width="2.0" stroke-linejoin="round" stroke-linecap="butt" d="m12.069082 123.36352c0 5.9728928 -0.0074739456 12.378319 2.666667 17.719154" fill-rule="evenodd"></path><path fill="#000000" fill-opacity="0.0" d="m13.011811 140.61314c16.238556 -1.7297211 32.60298 -3.3610077 48.918636 -2.6666565c12.3629265 0.52612305 25.105152 6.38031 37.00262 2.979004" fill-rule="evenodd"></path><path stroke="#000000" stroke-width="2.0" stroke-linejoin="round" stroke-linecap="butt" d="m13.011811 140.61314c16.238556 -1.7297211 32.60298 -3.3610077 48.918636 -2.6666565c12.3629265 0.52612305 25.105152 6.38031 37.00262 2.979004" fill-rule="evenodd"></path><path fill="#000000" fill-opacity="0.0" d="m99.24803 140.2979c2.6404114 18.46521 39.217453 36.65857 51.27034 22.422577" fill-rule="evenodd"></path><path stroke="#000000" stroke-width="2.0" stroke-linejoin="round" stroke-linecap="butt" d="m99.24803 140.2979c2.6404114 18.46521 39.217453 36.65857 51.27034 22.422577" fill-rule="evenodd"></path><path fill="#000000" fill-opacity="0.0" d="m251.33727 32.10839c9.797531 -0.9293785 21.73082 -0.5216389 28.850388 6.2729645c6.294647 6.0073357 7.6587524 19.42585 16.307098 20.383202" fill-rule="evenodd"></path><path stroke="#000000" stroke-width="2.0" stroke-linejoin="round" stroke-linecap="butt" d="m251.33727 32.10839c9.797531 -0.9293785 21.73082 -0.5216389 28.850388 6.2729645c6.294647 6.0073357 7.6587524 19.42585 16.307098 20.383202" fill-rule="evenodd"></path><path fill="#000000" fill-opacity="0.0" d="m279.24802 95.14155c9.220856 -4.1000595 9.993164 -26.74369 19.443573 -23.204727" fill-rule="evenodd"></path><path stroke="#000000" stroke-width="2.0" stroke-linejoin="round" stroke-linecap="butt" d="m279.24802 95.14155c9.220856 -4.1000595 9.993164 -26.74369 19.443573 -23.204727" fill-rule="evenodd"></path><path fill="#000000" fill-opacity="0.0" d="m291.479 59.392715c29.379395 0 59.03607 -2.2875748 88.1181 1.8818893" fill-rule="evenodd"></path><path stroke="#000000" stroke-width="2.0" stroke-linejoin="round" stroke-linecap="butt" d="m291.479 59.392715c29.379395 0 59.03607 -2.2875748 88.1181 1.8818893" fill-rule="evenodd"></path><path fill="#000000" fill-opacity="0.0" d="m292.73096 72.250656c28.85968 0 57.69153 2.1942291 86.55121 2.1942291" fill-rule="evenodd"></path><path stroke="#000000" stroke-width="2.0" stroke-linejoin="round" stroke-linecap="butt" d="m292.73096 72.250656c28.85968 0 57.69153 2.1942291 86.55121 2.1942291" fill-rule="evenodd"></path><path fill="#000000" fill-opacity="0.0" d="m379.90945 77.2664c0 -6.326744 -2.5091858 -12.4869 -2.5091858 -18.813648" fill-rule="evenodd"></path><path stroke="#000000" stroke-width="2.0" stroke-linejoin="round" stroke-linecap="butt" d="m379.90945 77.2664c0 -6.326744 -2.5091858 -12.4869 -2.5091858 -18.813648" fill-rule="evenodd"></path><path fill="#000000" fill-opacity="0.0" d="m279.56036 95.45538c0.8910217 4.455124 1.7844238 9.706535 5.3333435 12.543304" fill-rule="evenodd"></path><path stroke="#000000" stroke-width="2.0" stroke-linejoin="round" stroke-linecap="butt" d="m279.56036 95.45538c0.8910217 4.455124 1.7844238 9.706535 5.3333435 12.543304" fill-rule="evenodd"></path><path fill="#000000" fill-opacity="0.0" d="m245.69423 158.17192c18.004898 0 38.211166 -17.613037 40.766403 -35.4357" fill-rule="evenodd"></path><path stroke="#000000" stroke-width="2.0" stroke-linejoin="round" stroke-linecap="butt" d="m245.69423 158.17192c18.004898 0 38.211166 -17.613037 40.766403 -35.4357" fill-rule="evenodd"></path><path fill="#000000" fill-opacity="0.0" d="m285.51837 107.37139c30.111511 0 60.20343 -1.8818893 90.31497 -1.8818893" fill-rule="evenodd"></path><path stroke="#000000" stroke-width="2.0" stroke-linejoin="round" stroke-linecap="butt" d="m285.51837 107.37139c30.111511 0 60.20343 -1.8818893 90.31497 -1.8818893" fill-rule="evenodd"></path><path fill="#000000" fill-opacity="0.0" d="m376.77298 106.1168c-0.3479309 4.69606 -0.62731934 9.403931 -0.62731934 14.112862" fill-rule="evenodd"></path><path stroke="#000000" stroke-width="2.0" stroke-linejoin="round" stroke-linecap="butt" d="m376.77298 106.1168c-0.3479309 4.69606 -0.62731934 9.403931 -0.62731934 14.112862" fill-rule="evenodd"></path><path fill="#000000" fill-opacity="0.0" d="m286.14566 123.678474c30.208984 -4.0282364 63.407104 6.736763 91.25461 -5.645668" fill-rule="evenodd"></path><path stroke="#000000" stroke-width="2.0" stroke-linejoin="round" stroke-linecap="butt" d="m286.14566 123.678474c30.208984 -4.0282364 63.407104 6.736763 91.25461 -5.645668" fill-rule="evenodd"></path></g></svg>

