<?xml version="1.0" standalone="yes"?>

<svg version="1.1" viewBox="0.0 0.0 824.2388451443569 727.8005249343832" fill="none" stroke="none" stroke-linecap="square" stroke-miterlimit="10" xmlns="http://www.w3.org/2000/svg" xmlns:xlink="http://www.w3.org/1999/xlink"><clipPath id="p.0"><path d="m0 0l824.23883 0l0 727.80054l-824.23883 0l0 -727.80054z" clip-rule="nonzero"></path></clipPath><g clip-path="url(#p.0)"><path fill="#000000" fill-opacity="0.0" d="m0 0l824.23883 0l0 727.80054l-824.23883 0z" fill-rule="nonzero"></path><path fill="#6aa84f" d="m116.86614 418.76773l72.295906 -178.86615l427.81763 0l72.2959 178.86615z" fill-rule="nonzero"></path><path fill="#6aa84f" d="m244.16304 17.38189l346.66608 0l0 0c33.76123 0 66.13971 13.4116 90.01251 37.284397c23.872803 23.872799 37.284363 56.251263 37.284363 90.0125l0 76.64395c0 27.9861 -22.687195 50.673325 -50.67328 50.673325l-499.91324 0l0 0c-27.9861 0 -50.673317 -22.687225 -50.673317 -50.673325l0 -76.64395l0 0c0 -70.30414 56.99276 -127.2969 127.2969 -127.2969z" fill-rule="nonzero"></path><path fill="#6aa84f" d="m678.0006 649.2507l-550.6731 0c-13.637253 0 -26.715958 -5.4174194 -36.358955 -15.060364c-9.64299 -9.643005 -15.060371 -22.72174 -15.060371 -36.35901l0 -152.52148c0 -27.986115 22.68721 -50.67331 50.67331 -50.67331l552.16516 0l0 0c27.986084 0 50.67328 22.687195 50.67328 50.67331l0 152.52148l0 0c0 28.398132 -23.02118 51.419373 -51.41931 51.419373z" fill-rule="nonzero"></path><path fill="#6aa84f" d="m32.343834 460.65747l0 0c-28.014318 -26.961914 -28.878094 -71.539215 -1.9292946 -99.56619l67.732605 -70.44241l0 0c12.941269 -13.459015 30.696663 -21.223389 49.36019 -21.585022c18.663528 -0.3616333 36.70639 6.7090454 50.159332 19.656647l0 0l0 0c28.014328 26.961914 28.878098 71.539215 1.929306 99.56616l-67.73262 70.442444c-26.948792 28.026947 -71.5052 28.89032 -99.51952 1.9283752z" fill-rule="nonzero"></path><path fill="#6aa84f" d="m635.6307 268.7774l0 0c30.91925 -23.57866 75.10962 -17.636398 98.701965 13.2724l59.28894 77.67566l0 0c11.329468 14.842926 16.29657 33.575897 13.808594 52.07791c-2.487976 18.502014 -12.227173 35.257446 -27.075134 46.580322l0 0l0 0c-30.91919 23.578644 -75.10962 17.636383 -98.701965 -13.2724l-59.28894 -77.67566c-23.592346 -30.908783 -17.65271 -75.07959 13.266541 -98.65823z" fill-rule="nonzero"></path><path fill="#6aa84f" d="m123.13911 716.05383l18.58268 -74.33075l64.220474 0l-18.582687 74.33075z" fill-rule="nonzero"></path><path fill="#6aa84f" d="m617.1338 642.1561l56.85138 -1.9902954l28.376953 78.71472l-56.85144 1.9902344z" fill-rule="nonzero"></path><path fill="#000000" fill-opacity="0.0" d="m746.898 405.76685c-6.27124 0 -12.864441 -1.9837341 -18.81366 0c-14.931274 4.978821 -22.522278 32.05725 -13.797913 45.1575c10.072754 15.124939 32.544006 25.731293 50.17328 21.322815c35.102844 -8.778015 71.50525 -80.28522 41.393677 -100.34906c-39.374084 -26.235687 -112.18585 -29.41861 -141.7428 7.5275574c-36.70349 45.879364 -48.91864 110.58429 -48.91864 169.33856c0 33.709106 -2.5444946 70.20245 12.543335 100.3465" fill-rule="evenodd"></path><path stroke="#000000" stroke-width="8.0" stroke-linejoin="round" stroke-linecap="butt" d="m746.898 405.76685c-6.27124 0 -12.864441 -1.9837341 -18.81366 0c-14.931274 4.978821 -22.522278 32.05725 -13.797913 45.1575c10.072754 15.124939 32.544006 25.731293 50.17328 21.322815c35.102844 -8.778015 71.50525 -80.28522 41.393677 -100.34906c-39.374084 -26.235687 -112.18585 -29.41861 -141.7428 7.5275574c-36.70349 45.879364 -48.91864 110.58429 -48.91864 169.33856c0 33.709106 -2.5444946 70.20245 12.543335 100.3465" fill-rule="evenodd"></path><path fill="#000000" fill-opacity="0.0" d="m79.58137 478.51968c6.316437 20.207336 12.375282 41.67459 10.036743 62.716522c-3.0957184 27.85498 -16.414215 59.70819 -2.5091858 84.04199c14.5655365 25.489685 54.829964 23.419434 84.042 26.341248c15.398621 1.5401611 32.570663 8.181213 46.40944 1.2545776" fill-rule="evenodd"></path><path stroke="#000000" stroke-width="8.0" stroke-linejoin="round" stroke-linecap="butt" d="m79.58137 478.51968c6.316437 20.207336 12.375282 41.67459 10.036743 62.716522c-3.0957184 27.85498 -16.414215 59.70819 -2.5091858 84.04199c14.5655365 25.489685 54.829964 23.419434 84.042 26.341248c15.398621 1.5401611 32.570663 8.181213 46.40944 1.2545776" fill-rule="evenodd"></path><path fill="#000000" fill-opacity="0.0" d="m625.22705 647.8583c35.42395 0 85.894104 9.055969 104.11023 -21.32544c26.682983 -44.502747 6.272949 -103.65167 6.272949 -155.54071" fill-rule="evenodd"></path><path stroke="#000000" stroke-width="8.0" stroke-linejoin="round" stroke-linecap="butt" d="m625.22705 647.8583c35.42395 0 85.894104 9.055969 104.11023 -21.32544c26.682983 -44.502747 6.272949 -103.65167 6.272949 -155.54071" fill-rule="evenodd"></path><path fill="#000000" fill-opacity="0.0" d="m196.23753 534.9659c23.987152 -0.770813 47.83162 -4.161255 71.576614 -7.527588c38.235657 -5.4206543 77.177155 5.0183716 115.82422 5.0183716c76.37918 0 152.66595 -6.272949 229.04517 -6.272949" fill-rule="evenodd"></path><path stroke="#000000" stroke-width="8.0" stroke-linejoin="round" stroke-linecap="butt" d="m196.23753 534.9659c23.987152 -0.770813 47.83162 -4.161255 71.576614 -7.527588c38.235657 -5.4206543 77.177155 5.0183716 115.82422 5.0183716c76.37918 0 152.66595 -6.272949 229.04517 -6.272949" fill-rule="evenodd"></path><path fill="#000000" fill-opacity="0.0" d="m79.580925 409.53046c13.512009 11.25531 28.53946 29.165558 25.089233 46.409454c-2.231575 11.153229 -17.4234 14.982025 -27.595802 20.070862c-30.082851 15.049316 -69.51429 -51.29294 -57.700783 -82.787384c6.3414917 -16.90622 18.955366 -35.3873 36.375328 -40.1391c37.963013 -10.35553 86.31502 2.2875671 114.14699 30.10498c27.55339 27.53897 15.633682 76.35245 25.086609 114.14435c6.209839 24.826416 10.480133 51.273987 6.2729645 76.51709c-3.4615173 20.769043 -7.5275574 41.66095 -7.5275574 62.71649c0 5.9868164 -0.68421936 22.69574 -3.7637787 17.561707c-1.9619904 -3.270874 -0.6259918 -3.7624512 -1.2519684 -7.5249634" fill-rule="evenodd"></path><path stroke="#000000" stroke-width="8.0" stroke-linejoin="round" stroke-linecap="butt" d="m79.580925 409.53046c13.512009 11.25531 28.53946 29.165558 25.089233 46.409454c-2.231575 11.153229 -17.4234 14.982025 -27.595802 20.070862c-30.082851 15.049316 -69.51429 -51.29294 -57.700783 -82.787384c6.3414917 -16.90622 18.955366 -35.3873 36.375328 -40.1391c37.963013 -10.35553 86.31502 2.2875671 114.14699 30.10498c27.55339 27.53897 15.633682 76.35245 25.086609 114.14435c6.209839 24.826416 10.480133 51.273987 6.2729645 76.51709c-3.4615173 20.769043 -7.5275574 41.66095 -7.5275574 62.71649c0 5.9868164 -0.68421936 22.69574 -3.7637787 17.561707c-1.9619904 -3.270874 -0.6259918 -3.7624512 -1.2519684 -7.5249634" fill-rule="evenodd"></path><path fill="#000000" fill-opacity="0.0" d="m235.91322 340.54068c0 30.487 -36.55307 51.975464 -47.200623 80.90399" fill-rule="evenodd"></path><path stroke="#000000" stroke-width="8.0" stroke-linejoin="round" stroke-linecap="butt" d="m235.91322 340.54068c0 30.487 -36.55307 51.975464 -47.200623 80.90399" fill-rule="evenodd"></path><path fill="#000000" fill-opacity="0.0" d="m154.84467 262.76898c-9.845749 -2.270874 -23.077042 -3.5057983 -27.595795 -12.543304c-16.456017 -32.912033 -8.857048 -75.00302 1.2545929 -110.383194c4.403595 -15.407982 -1.5134201 -33.656525 6.27034 -47.664047c12.403839 -22.321716 26.749344 -46.285717 48.921265 -58.95538c22.542542 -12.881454 49.64978 -15.802027 75.25983 -20.070866c66.412994 -11.070117 134.95776 10.46468 201.95276 3.7637787c65.5094 -6.55231 139.38629 -16.926105 196.93439 15.052494c28.082642 15.60508 50.044678 44.785076 60.207336 75.26247c4.9380493 14.808891 2.164856 31.349205 6.2730103 46.409447c9.896912 36.281876 10.2854 85.04527 -16.307129 111.63779" fill-rule="evenodd"></path><path stroke="#000000" stroke-width="8.0" stroke-linejoin="round" stroke-linecap="butt" d="m154.84467 262.76898c-9.845749 -2.270874 -23.077042 -3.5057983 -27.595795 -12.543304c-16.456017 -32.912033 -8.857048 -75.00302 1.2545929 -110.383194c4.403595 -15.407982 -1.5134201 -33.656525 6.27034 -47.664047c12.403839 -22.321716 26.749344 -46.285717 48.921265 -58.95538c22.542542 -12.881454 49.64978 -15.802027 75.25983 -20.070866c66.412994 -11.070117 134.95776 10.46468 201.95276 3.7637787c65.5094 -6.55231 139.38629 -16.926105 196.93439 15.052494c28.082642 15.60508 50.044678 44.785076 60.207336 75.26247c4.9380493 14.808891 2.164856 31.349205 6.2730103 46.409447c9.896912 36.281876 10.2854 85.04527 -16.307129 111.63779" fill-rule="evenodd"></path><path fill="#000000" fill-opacity="0.0" d="m23.13517 378.16977c4.598299 -18.393188 25.294373 -28.253021 37.632545 -42.648285c23.376854 -27.274353 47.226967 -63.90793 82.7874 -68.9895c22.28975 -3.1852112 46.49112 5.0719604 65.22572 17.561676c16.964996 11.309998 19.73198 35.700195 28.850403 53.93701" fill-rule="evenodd"></path><path stroke="#000000" stroke-width="8.0" stroke-linejoin="round" stroke-linecap="butt" d="m23.13517 378.16977c4.598299 -18.393188 25.294373 -28.253021 37.632545 -42.648285c23.376854 -27.274353 47.226967 -63.90793 82.7874 -68.9895c22.28975 -3.1852112 46.49112 5.0719604 65.22572 17.561676c16.964996 11.309998 19.73198 35.700195 28.850403 53.93701" fill-rule="evenodd"></path><path fill="#000000" fill-opacity="0.0" d="m207.25197 656.021c139.26436 0 278.43646 -8.779541 417.7008 -8.779541" fill-rule="evenodd"></path><path stroke="#000000" stroke-width="8.0" stroke-linejoin="round" stroke-linecap="butt" d="m207.25197 656.021c139.26436 0 278.43646 -8.779541 417.7008 -8.779541" fill-rule="evenodd"></path><path fill="#000000" fill-opacity="0.0" d="m807.10895 373.153c-32.039246 -38.433685 -50.81543 -104.561554 -100.34912 -111.63779c-46.10858 -6.5869446 -106.619385 43.73825 -106.619385 90.31494" fill-rule="evenodd"></path><path stroke="#000000" stroke-width="8.0" stroke-linejoin="round" stroke-linecap="butt" d="m807.10895 373.153c-32.039246 -38.433685 -50.81543 -104.561554 -100.34912 -111.63779c-46.10858 -6.5869446 -106.619385 43.73825 -106.619385 90.31494" fill-rule="evenodd"></path><path fill="#000000" fill-opacity="0.0" d="m598.8858 349.32022c0 32.151886 23.718018 59.80658 33.86615 90.31494" fill-rule="evenodd"></path><path stroke="#000000" stroke-width="8.0" stroke-linejoin="round" stroke-linecap="butt" d="m598.8858 349.32022c0 32.151886 23.718018 59.80658 33.86615 90.31494" fill-rule="evenodd"></path><path fill="#000000" fill-opacity="0.0" d="m189.96457 427.08923c37.084885 -18.52304 81.47565 -18.81363 122.92914 -18.81363c46.06134 0 92.38086 1.0089417 137.979 7.524933c31.457336 4.4952393 63.74826 -3.5099792 95.33072 0c22.091003 2.4551086 42.408203 13.423645 63.97113 18.816254c9.547241 2.3876648 21.887878 -0.6848755 28.850403 6.270355" fill-rule="evenodd"></path><path stroke="#000000" stroke-width="8.0" stroke-linejoin="round" stroke-linecap="butt" d="m189.96457 427.08923c37.084885 -18.52304 81.47565 -18.81363 122.92914 -18.81363c46.06134 0 92.38086 1.0089417 137.979 7.524933c31.457336 4.4952393 63.74826 -3.5099792 95.33072 0c22.091003 2.4551086 42.408203 13.423645 63.97113 18.816254c9.547241 2.3876648 21.887878 -0.6848755 28.850403 6.270355" fill-rule="evenodd"></path><path fill="#000000" fill-opacity="0.0" d="m233.86745 339.2861c88.73985 0 177.28453 8.321533 265.9239 12.543304c35.956146 1.7125244 71.877106 -5.0183716 107.87399 -5.0183716" fill-rule="evenodd"></path><path stroke="#000000" stroke-width="8.0" stroke-linejoin="round" stroke-linecap="butt" d="m233.86745 339.2861c88.73985 0 177.28453 8.321533 265.9239 12.543304c35.956146 1.7125244 71.877106 -5.0183716 107.87399 -5.0183716" fill-rule="evenodd"></path><path fill="#000000" fill-opacity="0.0" d="m152.33464 650.3648c-7.444565 22.33374 -23.832016 42.941162 -23.832016 66.48297" fill-rule="evenodd"></path><path stroke="#000000" stroke-width="8.0" stroke-linejoin="round" stroke-linecap="butt" d="m152.33464 650.3648c-7.444565 22.33374 -23.832016 42.941162 -23.832016 66.48297" fill-rule="evenodd"></path><path fill="#000000" fill-opacity="0.0" d="m208.78084 660.40155c-2.6142578 19.601501 -13.797897 37.923157 -13.797897 57.69818" fill-rule="evenodd"></path><path stroke="#000000" stroke-width="8.0" stroke-linejoin="round" stroke-linecap="butt" d="m208.78084 660.40155c-2.6142578 19.601501 -13.797897 37.923157 -13.797897 57.69818" fill-rule="evenodd"></path><path fill="#000000" fill-opacity="0.0" d="m131.01181 718.09973c20.94307 0 41.773468 -3.7611694 62.716537 -3.7611694" fill-rule="evenodd"></path><path stroke="#000000" stroke-width="8.0" stroke-linejoin="round" stroke-linecap="butt" d="m131.01181 718.09973c20.94307 0 41.773468 -3.7611694 62.716537 -3.7611694" fill-rule="evenodd"></path><path fill="#000000" fill-opacity="0.0" d="m622.71783 650.3648c9.251709 20.045593 17.722412 40.463196 27.595825 60.210022" fill-rule="evenodd"></path><path stroke="#000000" stroke-width="8.0" stroke-linejoin="round" stroke-linecap="butt" d="m622.71783 650.3648c9.251709 20.045593 17.722412 40.463196 27.595825 60.210022" fill-rule="evenodd"></path><path fill="#000000" fill-opacity="0.0" d="m654.07745 715.5932c18.833923 0 37.612183 -2.5092163 56.446167 -2.5092163" fill-rule="evenodd"></path><path stroke="#000000" stroke-width="8.0" stroke-linejoin="round" stroke-linecap="butt" d="m654.07745 715.5932c18.833923 0 37.612183 -2.5092163 56.446167 -2.5092163" fill-rule="evenodd"></path><path fill="#000000" fill-opacity="0.0" d="m711.7782 715.5932c-11.125916 -22.254517 -31.359558 -42.854248 -31.359558 -67.734924" fill-rule="evenodd"></path><path stroke="#000000" stroke-width="8.0" stroke-linejoin="round" stroke-linecap="butt" d="m711.7782 715.5932c-11.125916 -22.254517 -31.359558 -42.854248 -31.359558 -67.734924" fill-rule="evenodd"></path></g></svg>

