<?xml version="1.0" standalone="yes"?>

<svg version="1.1" viewBox="0.0 0.0 928.0 368.0" fill="none" stroke="none" stroke-linecap="square" stroke-miterlimit="10" xmlns="http://www.w3.org/2000/svg" xmlns:xlink="http://www.w3.org/1999/xlink"><clipPath id="p.0"><path d="m0 0l928.0 0l0 368.0l-928.0 0l0 -368.0z" clip-rule="nonzero"></path></clipPath><g clip-path="url(#p.0)"><path fill="#000000" fill-opacity="0.0" d="m0 0l928.0 0l0 368.0l-928.0 0z" fill-rule="nonzero"></path><path fill="#cc0000" d="m674.9352 239.46326l0 0c7.132324 -19.069748 29.72705 -28.240631 50.466736 -20.483734c20.739685 7.756897 31.77063 29.50418 24.638306 48.573914l-17.264404 -6.4570923c3.566101 -9.534866 -2.6262207 -20.661667 -13.830994 -24.852402c-11.204834 -4.190735 -23.179016 0.14154053 -26.745178 9.676407z" fill-rule="nonzero"></path><path fill="#cc0000" d="m739.5906 252.07977l10.574097 15.152222l-56.960815 36.498535l-10.574097 -15.152222z" fill-rule="nonzero"></path><path fill="#cc0000" d="m683.52466 287.80753l17.522522 6.55365l-7.8224487 20.914948l-17.522522 -6.55365z" fill-rule="nonzero"></path><path fill="#cc0000" d="m666.4735 326.6093l0 0c2.1600952 -5.7755127 8.5997925 -8.703888 14.383484 -6.540741l0 0c2.7774048 1.0387878 5.0289307 3.1368103 6.2593994 5.832489c1.2304077 2.6956787 1.3388672 5.7682495 0.3015747 8.541748l0 0c-2.1600952 5.775482 -8.5997925 8.703888 -14.383423 6.5407104l0 0c-5.7836914 -2.163147 -8.72113 -8.598694 -6.561035 -14.374207z" fill-rule="nonzero"></path><path fill="#000000" fill-opacity="0.0" d="m674.9899 239.3169c6.1013184 2.2819672 11.811035 5.854782 18.188904 7.1454926" fill-rule="evenodd"></path><path stroke="#000000" stroke-width="2.0" stroke-linejoin="round" stroke-linecap="butt" d="m674.9899 239.3169c6.1013184 2.2819672 11.811035 5.854782 18.188904 7.1454926" fill-rule="evenodd"></path><path fill="#000000" fill-opacity="0.0" d="m675.5375 307.46683c5.949707 2.2252808 12.163147 3.6932373 18.112915 5.9184875" fill-rule="evenodd"></path><path stroke="#000000" stroke-width="2.0" stroke-linejoin="round" stroke-linecap="butt" d="m675.5375 307.46683c5.949707 2.2252808 12.163147 3.6932373 18.112915 5.9184875" fill-rule="evenodd"></path><path fill="#000000" fill-opacity="0.0" d="m678.0999 319.20813c-6.300171 1.1604004 -13.375549 8.1285095 -12.119934 14.289429c1.1199951 5.495636 8.847168 10.618317 14.4505005 9.5112915c5.4074707 -1.0682983 9.272827 -9.901611 6.5531006 -14.660828c-2.1639404 -3.786621 -6.5720825 -5.900696 -9.62207 -9.0746765" fill-rule="evenodd"></path><path stroke="#000000" stroke-width="2.0" stroke-linejoin="round" stroke-linecap="butt" d="m678.0999 319.20813c-6.300171 1.1604004 -13.375549 8.1285095 -12.119934 14.289429c1.1199951 5.495636 8.847168 10.618317 14.4505005 9.5112915c5.4074707 -1.0682983 9.272827 -9.901611 6.5531006 -14.660828c-2.1639404 -3.786621 -6.5720825 -5.900696 -9.62207 -9.0746765" fill-rule="evenodd"></path><path fill="#000000" fill-opacity="0.0" d="m675.38495 238.26079c-0.35565186 0.950943 0.6760864 -1.915802 1.0670166 -2.8528442c1.3479004 -3.230545 3.9451904 -5.8345947 6.352478 -8.403992c7.1584473 -7.640503 19.302856 -11.661575 30.080505 -10.823853c10.663025 0.82881165 22.215881 5.677658 29.078735 13.785095c8.397217 9.920013 12.737854 25.534836 8.3237915 37.336716" fill-rule="evenodd"></path><path stroke="#000000" stroke-width="2.0" stroke-linejoin="round" stroke-linecap="butt" d="m675.38495 238.26079c-0.35565186 0.950943 0.6760864 -1.915802 1.0670166 -2.8528442c1.3479004 -3.230545 3.9451904 -5.8345947 6.352478 -8.403992c7.1584473 -7.640503 19.302856 -11.661575 30.080505 -10.823853c10.663025 0.82881165 22.215881 5.677658 29.078735 13.785095c8.397217 9.920013 12.737854 25.534836 8.3237915 37.336716" fill-rule="evenodd"></path><path fill="#000000" fill-opacity="0.0" d="m750.761 267.48547c-9.031433 1.7079163 -15.567505 9.286285 -23.26648 14.056427c-5.472046 3.3903809 -11.713989 5.6377563 -16.896606 9.424164c-3.144104 2.2971191 -5.063965 6.309723 -8.756165 7.6769104c-1.3546143 0.50161743 -3.2973022 -0.375 -4.3275757 0.60543823c-3.4352417 3.269165 -3.2514648 8.856903 -4.314453 13.444794" fill-rule="evenodd"></path><path stroke="#000000" stroke-width="2.0" stroke-linejoin="round" stroke-linecap="butt" d="m750.761 267.48547c-9.031433 1.7079163 -15.567505 9.286285 -23.26648 14.056427c-5.472046 3.3903809 -11.713989 5.6377563 -16.896606 9.424164c-3.144104 2.2971191 -5.063965 6.309723 -8.756165 7.6769104c-1.3546143 0.50161743 -3.2973022 -0.375 -4.3275757 0.60543823c-3.4352417 3.269165 -3.2514648 8.856903 -4.314453 13.444794" fill-rule="evenodd"></path><path fill="#000000" fill-opacity="0.0" d="m692.87054 246.34427c2.2271729 -5.954773 8.068298 -12.924286 14.654907 -12.486603c11.172607 0.7424164 27.420776 11.836792 24.983765 22.349365" fill-rule="evenodd"></path><path stroke="#000000" stroke-width="2.0" stroke-linejoin="round" stroke-linecap="butt" d="m692.87054 246.34427c2.2271729 -5.954773 8.068298 -12.924286 14.654907 -12.486603c11.172607 0.7424164 27.420776 11.836792 24.983765 22.349365" fill-rule="evenodd"></path><path fill="#000000" fill-opacity="0.0" d="m675.931 308.80057c2.5639648 -6.855377 3.5639038 -14.548096 7.8477783 -20.507202c5.586853 -7.771576 17.086548 -9.274933 25.22345 -14.523071c8.086548 -5.215637 14.38678 -13.126526 23.282959 -16.960785" fill-rule="evenodd"></path><path stroke="#000000" stroke-width="2.0" stroke-linejoin="round" stroke-linecap="butt" d="m675.931 308.80057c2.5639648 -6.855377 3.5639038 -14.548096 7.8477783 -20.507202c5.586853 -7.771576 17.086548 -9.274933 25.22345 -14.523071c8.086548 -5.215637 14.38678 -13.126526 23.282959 -16.960785" fill-rule="evenodd"></path><path fill="#000000" fill-opacity="0.0" d="m309.8701 176.0l0 0c0 -83.16451 69.44876 -150.58267 155.11813 -150.58267l0 0c41.139862 0 80.59479 15.864916 109.68506 44.104645c29.090271 28.23973 45.433044 66.54102 45.433044 106.478035l0 0c0 83.16452 -69.44873 150.58267 -155.1181 150.58267l0 0c-85.66937 0 -155.11813 -67.41815 -155.11813 -150.58267z" fill-rule="nonzero"></path><path stroke="#93c47d" stroke-width="8.0" stroke-linejoin="round" stroke-linecap="butt" d="m309.8701 176.0l0 0c0 -83.16451 69.44876 -150.58267 155.11813 -150.58267l0 0c41.139862 0 80.59479 15.864916 109.68506 44.104645c29.090271 28.23973 45.433044 66.54102 45.433044 106.478035l0 0c0 83.16452 -69.44873 150.58267 -155.1181 150.58267l0 0c-85.66937 0 -155.11813 -67.41815 -155.11813 -150.58267z" fill-rule="nonzero"></path><path fill="#e06666" d="m437.70807 133.80444l0 0c-16.290222 -16.194557 -17.284363 -41.61209 -2.220459 -56.77166q18.530884 -18.648586 26.478882 -47.817917q10.253296 29.77015 30.292755 49.691933l0 0c16.290222 16.194557 17.284363 41.61209 2.2204895 56.771652l0 0c-15.063904 15.159561 -40.481445 14.320541 -56.771667 -1.8740082z" fill-rule="nonzero"></path><path fill="#e06666" d="m492.0954 217.99797l0 0c16.377197 16.107574 17.51236 41.51805 2.535431 56.755905q-18.42389 18.744873 -26.208405 47.95401q-10.416779 -29.71402 -30.563232 -49.52881l0 0c-16.377197 -16.107574 -17.51236 -41.518066 -2.535431 -56.75592l0 0c14.976898 -15.237839 40.39444 -14.532776 56.771637 1.5748138z" fill-rule="nonzero"></path><path fill="#ff9900" d="m513.6124 147.90598l0 0c16.690308 -15.785782 42.12195 -16.004349 56.80316 -0.4881897q18.06012 19.08725 46.963074 27.919327q-30.069275 9.338913 -50.60089 28.757843l0 0c-16.690308 15.785767 -42.12195 16.004333 -56.80316 0.4881897l0 0c-14.681213 -15.516159 -13.052521 -40.891388 3.6378174 -56.67717z" fill-rule="nonzero"></path><path fill="#ff9900" d="m416.8299 204.18925l0 0c-16.742493 15.724899 -42.174133 15.851807 -56.80316 0.28346252q-17.995941 -19.151443 -46.86859 -28.087265q30.099518 -9.230118 50.695374 -28.574158l0 0c16.742493 -15.724884 42.174103 -15.851807 56.80313 -0.28346252l0 0c14.629028 15.568344 12.915741 40.936523 -3.8267517 56.661423z" fill-rule="nonzero"></path><path fill="#c27ba0" d="m514.0743 188.83228l0 0c22.969849 0 41.590576 17.31636 41.590576 38.67717q0 26.27707 14.922241 52.554153q-28.256409 -13.876984 -56.512817 -13.876984l0 0c-22.969818 0 -41.590546 -17.31636 -41.590546 -38.67717l0 0c0 -21.36081 18.620728 -38.67717 41.590546 -38.67717z" fill-rule="nonzero"></path><path fill="#6d9eeb" d="m475.44675 128.43036l0 0c1.1219482 -22.94374 19.32669 -40.697235 40.661407 -39.65355q26.244995 1.2838974 53.21881 -12.337532q-15.240173 27.546288 -16.620361 55.770607l0 0c-1.1220093 22.943726 -19.326721 40.697235 -40.661438 39.653534l0 0c-21.334717 -1.0436859 -37.720398 -20.489334 -36.59842 -43.43306z" fill-rule="nonzero"></path><path fill="#c27ba0" d="m406.7341 168.74425l0 0c-22.821991 -2.61792 -39.348663 -21.94371 -36.91339 -43.16536q2.995758 -26.105888 -8.834717 -53.91249q26.492462 17.007011 54.566986 20.227455l0 0c22.821991 2.6179123 39.348663 21.943703 36.91339 43.16535l0 0c-2.4352722 21.22165 -22.910309 36.302948 -45.73227 33.685043z" fill-rule="nonzero"></path><path fill="#6d9eeb" d="m449.78485 225.30981l0 0c-0.9915161 22.952438 -19.097534 40.811707 -40.44095 39.88977q-26.255676 -1.1340942 -53.155457 12.642761q15.085358 -27.636093 16.305054 -55.87111l0 0c0.9915161 -22.952438 19.097534 -40.81169 40.44095 -39.889755l0 0c21.343414 0.9219208 37.84192 20.27591 36.850403 43.228333z" fill-rule="nonzero"></path><path fill="#ffd966" d="m420.60516 176.00002l0 0c0 -22.221863 19.868683 -40.23622 44.37796 -40.23622l0 0c24.509247 0 44.37793 18.014359 44.37793 40.23622l0 0c0 22.221848 -19.868683 40.236206 -44.37793 40.236206l0 0c-24.509277 0 -44.37796 -18.014359 -44.37796 -40.236206z" fill-rule="nonzero"></path><path fill="#000000" fill-opacity="0.0" d="m425.83588 94.54593c0.8450928 -11.77739 13.048523 -19.7193 20.40158 -28.958c7.8580017 -9.873135 9.506073 -23.378368 14.314972 -35.04462" fill-rule="evenodd"></path><path stroke="#000000" stroke-width="2.0" stroke-linejoin="round" stroke-linecap="butt" d="m425.83588 94.54593c0.8450928 -11.77739 13.048523 -19.7193 20.40158 -28.958c7.8580017 -9.873135 9.506073 -23.378368 14.314972 -35.04462" fill-rule="evenodd"></path><path fill="#000000" fill-opacity="0.0" d="m461.703 29.391077c0 23.4927 24.924713 39.83146 37.677155 59.561684" fill-rule="evenodd"></path><path stroke="#000000" stroke-width="2.0" stroke-linejoin="round" stroke-linecap="butt" d="m461.703 29.391077c0 23.4927 24.924713 39.83146 37.677155 59.561684" fill-rule="evenodd"></path><path fill="#000000" fill-opacity="0.0" d="m476.67343 136.99475c0 -19.008766 12.039795 -40.69314 29.123383 -49.02887c7.9884644 -3.8978882 17.774353 1.2333603 26.653503 0.8215256c13.838379 -0.64185333 28.532532 -5.543785 38.83203 -14.808403" fill-rule="evenodd"></path><path stroke="#000000" stroke-width="2.0" stroke-linejoin="round" stroke-linecap="butt" d="m476.67343 136.99475c0 -19.008766 12.039795 -40.69314 29.123383 -49.02887c7.9884644 -3.8978882 17.774353 1.2333603 26.653503 0.8215256c13.838379 -0.64185333 28.532532 -5.543785 38.83203 -14.808403" fill-rule="evenodd"></path><path fill="#000000" fill-opacity="0.0" d="m551.69885 137.32547c23.604187 7.8628235 42.074646 26.727966 64.33331 37.842514" fill-rule="evenodd"></path><path stroke="#000000" stroke-width="2.0" stroke-linejoin="round" stroke-linecap="butt" d="m551.69885 137.32547c23.604187 7.8628235 42.074646 26.727966 64.33331 37.842514" fill-rule="evenodd"></path><path fill="#000000" fill-opacity="0.0" d="m552.68567 212.02364c10.102356 0 15.139648 -13.379776 22.706055 -20.073486c9.886108 -8.74585 24.3349 -10.302307 36.85565 -14.480316" fill-rule="evenodd"></path><path stroke="#000000" stroke-width="2.0" stroke-linejoin="round" stroke-linecap="butt" d="m552.68567 212.02364c10.102356 0 15.139648 -13.379776 22.706055 -20.073486c9.886108 -8.74585 24.3349 -10.302307 36.85565 -14.480316" fill-rule="evenodd"></path><path fill="#000000" fill-opacity="0.0" d="m502.3431 264.18112c-3.4926147 10.455536 -17.785309 14.327881 -22.37796 24.34909c-4.9641113 10.831787 -8.088715 22.435364 -11.351715 33.89499" fill-rule="evenodd"></path><path stroke="#000000" stroke-width="2.0" stroke-linejoin="round" stroke-linecap="butt" d="m502.3431 264.18112c-3.4926147 10.455536 -17.785309 14.327881 -22.37796 24.34909c-4.9641113 10.831787 -8.088715 22.435364 -11.351715 33.89499" fill-rule="evenodd"></path><path fill="#000000" fill-opacity="0.0" d="m429.45514 260.231c0 10.74408 13.739197 16.52304 20.7323 24.67978c9.290924 10.836945 11.899658 26.00122 19.083984 38.335968" fill-rule="evenodd"></path><path stroke="#000000" stroke-width="2.0" stroke-linejoin="round" stroke-linecap="butt" d="m429.45514 260.231c0 10.74408 13.739197 16.52304 20.7323 24.67978c9.290924 10.836945 11.899658 26.00122 19.083984 38.335968" fill-rule="evenodd"></path><path fill="#000000" fill-opacity="0.0" d="m372.862 142.7533c-8.942932 1.4914703 -13.502716 12.135025 -20.73227 17.606293c-10.79245 8.167633 -24.600677 11.644775 -37.677155 15.13649" fill-rule="evenodd"></path><path stroke="#000000" stroke-width="2.0" stroke-linejoin="round" stroke-linecap="butt" d="m372.862 142.7533c-8.942932 1.4914703 -13.502716 12.135025 -20.73227 17.606293c-10.79245 8.167633 -24.600677 11.644775 -37.677155 15.13649" fill-rule="evenodd"></path><path fill="#000000" fill-opacity="0.0" d="m313.7938 176.6483c10.243652 3.554596 21.058502 5.880005 30.603699 11.023621c11.410217 6.148651 16.869415 20.698395 28.464539 26.490814" fill-rule="evenodd"></path><path stroke="#000000" stroke-width="2.0" stroke-linejoin="round" stroke-linecap="butt" d="m313.7938 176.6483c10.243652 3.554596 21.058502 5.880005 30.603699 11.023621c11.410217 6.148651 16.869415 20.698395 28.464539 26.490814" fill-rule="evenodd"></path><path fill="#000000" fill-opacity="0.0" d="m509.24936 172.04199c10.132172 -0.32843018 23.603607 1.2507324 29.61679 -6.9107513c19.678406 -26.70877 16.4292 -65.45716 34.223145 -93.456696" fill-rule="evenodd"></path><path stroke="#000000" stroke-width="2.0" stroke-linejoin="round" stroke-linecap="butt" d="m509.24936 172.04199c10.132172 -0.32843018 23.603607 1.2507324 29.61679 -6.9107513c19.678406 -26.70877 16.4292 -65.45716 34.223145 -93.456696" fill-rule="evenodd"></path><path fill="#000000" fill-opacity="0.0" d="m448.7077 213.50395c0 19.501587 -6.36557 44.076126 -23.362213 53.637802c-7.080414 3.9831543 -16.290497 -1.9942017 -24.351715 -0.98687744c-14.071503 1.7583618 -28.14038 5.1776733 -41.13385 10.858246" fill-rule="evenodd"></path><path stroke="#000000" stroke-width="2.0" stroke-linejoin="round" stroke-linecap="butt" d="m448.7077 213.50395c0 19.501587 -6.36557 44.076126 -23.362213 53.637802c-7.080414 3.9831543 -16.290497 -1.9942017 -24.351715 -0.98687744c-14.071503 1.7583618 -28.14038 5.1776733 -41.13385 10.858246" fill-rule="evenodd"></path><path fill="#000000" fill-opacity="0.0" d="m422.0543 183.8867c-7.897644 0 -16.200806 -2.4982605 -23.692902 0c-15.932465 5.3126984 -22.599365 25.786087 -28.627289 41.461945c-6.073761 15.794968 2.3905945 42.363235 -13.16275 49.03148" fill-rule="evenodd"></path><path stroke="#000000" stroke-width="2.0" stroke-linejoin="round" stroke-linecap="butt" d="m422.0543 183.8867c-7.897644 0 -16.200806 -2.4982605 -23.692902 0c-15.932465 5.3126984 -22.599365 25.786087 -28.627289 41.461945c-6.073761 15.794968 2.3905945 42.363235 -13.16275 49.03148" fill-rule="evenodd"></path><path fill="#000000" fill-opacity="0.0" d="m451.6708 136.83203c0 -19.308327 -16.784485 -41.15583 -35.54068 -45.740166c-18.444183 -4.5080643 -39.881165 -6.647583 -53.3071 -20.073486" fill-rule="evenodd"></path><path stroke="#000000" stroke-width="2.0" stroke-linejoin="round" stroke-linecap="butt" d="m451.6708 136.83203c0 -19.308327 -16.784485 -41.15583 -35.54068 -45.740166c-18.444183 -4.5080643 -39.881165 -6.647583 -53.3071 -20.073486" fill-rule="evenodd"></path><path fill="#000000" fill-opacity="0.0" d="m422.7129 169.73753c-17.859985 0 -40.866394 -8.38031 -47.385834 -25.007874c-8.591095 -21.911224 -0.02420044 -50.532692 -14.480316 -69.10499" fill-rule="evenodd"></path><path stroke="#000000" stroke-width="2.0" stroke-linejoin="round" stroke-linecap="butt" d="m422.7129 169.73753c-17.859985 0 -40.866394 -8.38031 -47.385834 -25.007874c-8.591095 -21.911224 -0.02420044 -50.532692 -14.480316 -69.10499" fill-rule="evenodd"></path><path fill="#000000" fill-opacity="0.0" d="m475.02786 217.45146c0 15.973709 4.4711914 36.953445 18.758514 44.097122c13.110809 6.5553894 29.238953 2.323822 43.76642 4.2781982c11.380676 1.5310364 20.988892 9.342224 31.259827 14.477692" fill-rule="evenodd"></path><path stroke="#000000" stroke-width="2.0" stroke-linejoin="round" stroke-linecap="butt" d="m475.02786 217.45146c0 15.973709 4.4711914 36.953445 18.758514 44.097122c13.110809 6.5553894 29.238953 2.323822 43.76642 4.2781982c11.380676 1.5310364 20.988892 9.342224 31.259827 14.477692" fill-rule="evenodd"></path><path fill="#000000" fill-opacity="0.0" d="m506.94763 190.79796c16.842773 -1.04953 38.464478 6.9990234 45.41211 22.377945c9.335449 20.664627 5.838135 46.623505 18.427795 65.48294" fill-rule="evenodd"></path><path stroke="#000000" stroke-width="2.0" stroke-linejoin="round" stroke-linecap="butt" d="m506.94763 190.79796c16.842773 -1.04953 38.464478 6.9990234 45.41211 22.377945c9.335449 20.664627 5.838135 46.623505 18.427795 65.48294" fill-rule="evenodd"></path><path fill="#000000" fill-opacity="0.0" d="m454.95917 138.14743c-19.930573 0 -38.383545 31.385971 -32.24933 50.349075c6.2014465 19.170975 33.860077 38.34813 52.32019 30.272964c19.408813 -8.490143 37.240112 -34.4494 31.921265 -54.955368c-5.126129 -19.763092 -36.098145 -31.665161 -55.614166 -25.666672" fill-rule="evenodd"></path><path stroke="#000000" stroke-width="2.0" stroke-linejoin="round" stroke-linecap="butt" d="m454.95917 138.14743c-19.930573 0 -38.383545 31.385971 -32.24933 50.349075c6.2014465 19.170975 33.860077 38.34813 52.32019 30.272964c19.408813 -8.490143 37.240112 -34.4494 31.921265 -54.955368c-5.126129 -19.763092 -36.098145 -31.665161 -55.614166 -25.666672" fill-rule="evenodd"></path><path fill="#cc0000" d="m657.362 80.01562l0 0c-3.9540405 -13.238472 5.3667603 -27.711338 20.818542 -32.326057c15.451782 -4.614723 31.183289 2.3762054 35.13733 15.614674l-11.985291 3.5794334l0 0c-1.9769897 -6.619236 -10.739868 -9.846779 -19.572327 -7.208927c-8.83252 2.6378555 -14.390015 10.142208 -12.413025 16.76144z" fill-rule="nonzero"></path><path fill="#cc0000" d="m700.60156 59.430153l12.652161 3.6491127l-17.793335 43.6571l-12.6521 -3.649109z" fill-rule="nonzero"></path><path fill="#cc0000" d="m683.00366 102.29557l13.054871 -3.8988876l4.33667 14.519432l-13.054932 3.89888z" fill-rule="nonzero"></path><path fill="#cc0000" d="m689.5624 130.30614l0 0c-1.1975098 -4.00943 1.3248901 -8.302956 5.633911 -9.589851l0 0c4.309021 -1.2869034 8.772949 0.9201355 9.970459 4.9295654l0 0c1.1975098 4.0094376 -1.3248291 8.302956 -5.63385 9.589851l0 0c-4.309021 1.286911 -8.772949 -0.9201355 -9.97052 -4.9295654z" fill-rule="nonzero"></path><path fill="#000000" fill-opacity="0.0" d="m657.33167 79.91401c4.5457153 -1.3575897 9.412415 -1.8575974 13.697449 -3.8634949" fill-rule="evenodd"></path><path stroke="#000000" stroke-width="2.0" stroke-linejoin="round" stroke-linecap="butt" d="m657.33167 79.91401c4.5457153 -1.3575897 9.412415 -1.8575974 13.697449 -3.8634949" fill-rule="evenodd"></path><path fill="#000000" fill-opacity="0.0" d="m686.70844 116.21165c4.4328003 -1.3238602 8.6970825 -3.1651993 13.129822 -4.4890594" fill-rule="evenodd"></path><path stroke="#000000" stroke-width="2.0" stroke-linejoin="round" stroke-linecap="butt" d="m686.70844 116.21165c4.4328003 -1.3238602 8.6970825 -3.1651993 13.129822 -4.4890594" fill-rule="evenodd"></path><path fill="#000000" fill-opacity="0.0" d="m693.21497 121.42125c-3.194519 3.2868576 -4.366699 10.014603 -1.0046997 12.785828c2.9989624 2.4719849 9.707825 1.9493561 12.517029 -1.0141296c2.7109375 -2.8598785 1.208252 -9.229637 -2.4134521 -10.630226c-2.8815918 -1.1143723 -6.364197 -0.3829956 -9.503479 -0.7941818" fill-rule="evenodd"></path><path stroke="#000000" stroke-width="2.0" stroke-linejoin="round" stroke-linecap="butt" d="m693.21497 121.42125c-3.194519 3.2868576 -4.366699 10.014603 -1.0046997 12.785828c2.9989624 2.4719849 9.707825 1.9493561 12.517029 -1.0141296c2.7109375 -2.8598785 1.208252 -9.229637 -2.4134521 -10.630226c-2.8815918 -1.1143723 -6.364197 -0.3829956 -9.503479 -0.7941818" fill-rule="evenodd"></path><path fill="#000000" fill-opacity="0.0" d="m657.1127 79.18083c0.19720459 0.6601639 -0.42095947 -1.3128357 -0.5914917 -1.9804764c-0.58807373 -2.3017502 -0.17749023 -4.79615 0.13671875 -7.1916122c0.9342041 -7.1233215 6.331238 -14.415535 12.999451 -18.525253c6.597351 -4.066025 15.429749 -6.3536224 22.90509 -4.910816c9.1466675 1.7653732 18.345886 8.299122 20.792969 16.492138" fill-rule="evenodd"></path><path stroke="#000000" stroke-width="2.0" stroke-linejoin="round" stroke-linecap="butt" d="m657.1127 79.18083c0.19720459 0.6601639 -0.42095947 -1.3128357 -0.5914917 -1.9804764c-0.58807373 -2.3017502 -0.17749023 -4.79615 0.13671875 -7.1916122c0.9342041 -7.1233215 6.331238 -14.415535 12.999451 -18.525253c6.597351 -4.066025 15.429749 -6.3536224 22.90509 -4.910816c9.1466675 1.7653732 18.345886 8.299122 20.792969 16.492138" fill-rule="evenodd"></path><path fill="#000000" fill-opacity="0.0" d="m713.71094 62.962925c-4.560364 4.735592 -5.156616 11.562328 -7.6311035 17.375713c-1.7587891 4.131874 -4.4556885 7.976715 -5.8761597 12.198441c-0.86169434 2.561203 -0.27514648 5.5240707 -1.854248 7.818634c-0.5793457 0.84181976 -2.0906982 1.1937027 -2.276001 2.1550064c-0.6177368 3.2053375 1.8722534 6.1227264 3.2058716 9.031517" fill-rule="evenodd"></path><path stroke="#000000" stroke-width="2.0" stroke-linejoin="round" stroke-linecap="butt" d="m713.71094 62.962925c-4.560364 4.735592 -5.156616 11.562328 -7.6311035 17.375713c-1.7587891 4.131874 -4.4556885 7.976715 -5.8761597 12.198441c-0.86169434 2.561203 -0.27514648 5.5240707 -1.854248 7.818634c-0.5793457 0.84181976 -2.0906982 1.1937027 -2.276001 2.1550064c-0.6177368 3.2053375 1.8722534 6.1227264 3.2058716 9.031517" fill-rule="evenodd"></path><path fill="#000000" fill-opacity="0.0" d="m670.7982 76.117584c-1.2346802 -4.1338882 -0.78582764 -10.340309 3.2577515 -12.891739c6.8588867 -4.327873 21.103577 -5.253834 24.15857 1.4118652" fill-rule="evenodd"></path><path stroke="#000000" stroke-width="2.0" stroke-linejoin="round" stroke-linecap="butt" d="m670.7982 76.117584c-1.2346802 -4.1338882 -0.78582764 -10.340309 3.2577515 -12.891739c6.8588867 -4.327873 21.103577 -5.253834 24.15857 1.4118652" fill-rule="evenodd"></path><path fill="#000000" fill-opacity="0.0" d="m687.50757 116.76008c-1.4214478 -4.7590866 -4.1157227 -9.305435 -4.147949 -14.3116c-0.041992188 -6.528801 6.0509644 -12.198784 8.578186 -18.453629c2.5115356 -6.216118 2.8278809 -13.121307 6.402466 -18.939468" fill-rule="evenodd"></path><path stroke="#000000" stroke-width="2.0" stroke-linejoin="round" stroke-linecap="butt" d="m687.50757 116.76008c-1.4214478 -4.7590866 -4.1157227 -9.305435 -4.147949 -14.3116c-0.041992188 -6.528801 6.0509644 -12.198784 8.578186 -18.453629c2.5115356 -6.216118 2.8278809 -13.121307 6.402466 -18.939468" fill-rule="evenodd"></path><path fill="#cc0000" d="m790.28424 161.71716l0 0c1.1992188 -7.9609985 9.967468 -13.240677 19.584473 -11.79248c9.616943 1.4481964 16.440857 9.075836 15.241577 17.036835l-7.2073975 -1.0853271c0.5996704 -3.9804993 -3.4835205 -7.895401 -9.119934 -8.744171c-5.6364136 -0.8487854 -10.691711 1.6899872 -11.291321 5.6704865z" fill-rule="nonzero"></path><path fill="#cc0000" d="m819.14325 161.73122l5.9890747 5.0957794l-20.807129 18.516342l-5.9890747 -5.0957794z" fill-rule="nonzero"></path><path fill="#cc0000" d="m798.64386 179.87984l8.125183 1.2235413l-1.3153076 8.731308l-8.125183 -1.2235413z" fill-rule="nonzero"></path><path fill="#cc0000" d="m795.1186 196.27055l0 0c0.3632202 -2.411087 2.831726 -4.038269 5.513611 -3.6344147l0 0c2.6818237 0.40386963 4.5614624 2.6858215 4.198303 5.0969086l0 0c-0.3632202 2.411087 -2.831726 4.038254 -5.513611 3.6343994l0 0c-2.6818848 -0.40385437 -4.5615234 -2.6858063 -4.198303 -5.0968933z" fill-rule="nonzero"></path><path fill="#000000" fill-opacity="0.0" d="m790.29346 161.65607c2.8291626 0.4260254 5.616089 1.3840485 8.467346 1.4034119" fill-rule="evenodd"></path><path stroke="#000000" stroke-width="2.0" stroke-linejoin="round" stroke-linecap="butt" d="m790.29346 161.65607c2.8291626 0.4260254 5.616089 1.3840485 8.467346 1.4034119" fill-rule="evenodd"></path><path fill="#000000" fill-opacity="0.0" d="m797.1364 188.135c2.75885 0.41545105 5.557007 0.5162201 8.315918 0.93167114" fill-rule="evenodd"></path><path stroke="#000000" stroke-width="2.0" stroke-linejoin="round" stroke-linecap="butt" d="m797.1364 188.135c2.75885 0.41545105 5.557007 0.5162201 8.315918 0.93167114" fill-rule="evenodd"></path><path fill="#000000" fill-opacity="0.0" d="m799.3703 192.51007c-2.5803833 0.9286041 -4.928833 4.1759644 -3.7946777 6.4783936c1.0116577 2.0538177 4.8112793 3.4621887 7.098938 2.6071167c2.2077026 -0.8251648 3.0032349 -4.555313 1.3792114 -6.201416c-1.2921753 -1.3096924 -3.3812866 -1.7986145 -4.992798 -2.8028107" fill-rule="evenodd"></path><path stroke="#000000" stroke-width="2.0" stroke-linejoin="round" stroke-linecap="butt" d="m799.3703 192.51007c-2.5803833 0.9286041 -4.928833 4.1759644 -3.7946777 6.4783936c1.0116577 2.0538177 4.8112793 3.4621887 7.098938 2.6071167c2.2077026 -0.8251648 3.0032349 -4.555313 1.3792114 -6.201416c-1.2921753 -1.3096924 -3.3812866 -1.7986145 -4.992798 -2.8028107" fill-rule="evenodd"></path><path fill="#000000" fill-opacity="0.0" d="m790.35986 161.21516c-0.059814453 0.39700317 0.103149414 -0.79670715 0.17938232 -1.1909637c0.26287842 -1.3592224 1.1204834 -2.5692444 1.9002686 -3.7513885c2.3187866 -3.5153198 7.11969 -5.9996643 11.807617 -6.489746c4.6380005 -0.48486328 10.046265 0.5272827 13.765869 3.162613c4.5512085 3.224533 7.9207764 8.972336 7.178589 13.899231" fill-rule="evenodd"></path><path stroke="#000000" stroke-width="2.0" stroke-linejoin="round" stroke-linecap="butt" d="m790.35986 161.21516c-0.059814453 0.39700317 0.103149414 -0.79670715 0.17938232 -1.1909637c0.26287842 -1.3592224 1.1204834 -2.5692444 1.9002686 -3.7513885c2.3187866 -3.5153198 7.11969 -5.9996643 11.807617 -6.489746c4.6380005 -0.48486328 10.046265 0.5272827 13.765869 3.162613c4.5512085 3.224533 7.9207764 8.972336 7.178589 13.899231" fill-rule="evenodd"></path><path fill="#000000" fill-opacity="0.0" d="m825.4118 166.8805c-3.694641 1.3484802 -5.753418 4.7924805 -8.581604 7.231735c-2.0101318 1.7337036 -4.460144 3.0808868 -6.3081665 4.9467926c-1.1211548 1.1319885 -1.5526123 2.838852 -2.998169 3.6504517c-0.5303345 0.29777527 -1.4457397 0.10374451 -1.7910156 0.56329346c-1.1512451 1.5322876 -0.53082275 3.6928406 -0.5402832 5.5586853" fill-rule="evenodd"></path><path stroke="#000000" stroke-width="2.0" stroke-linejoin="round" stroke-linecap="butt" d="m825.4118 166.8805c-3.694641 1.3484802 -5.753418 4.7924805 -8.581604 7.231735c-2.0101318 1.7337036 -4.460144 3.0808868 -6.3081665 4.9467926c-1.1211548 1.1319885 -1.5526123 2.838852 -2.998169 3.6504517c-0.5303345 0.29777527 -1.4457397 0.10374451 -1.7910156 0.56329346c-1.1512451 1.5322876 -0.53082275 3.6928406 -0.5402832 5.5586853" fill-rule="evenodd"></path><path fill="#000000" fill-opacity="0.0" d="m798.6176 163.03685c0.37445068 -2.4859314 2.1952515 -5.640381 5.0529785 -5.968796c4.847534 -0.5570679 12.868347 2.5299988 12.84613 6.8054657" fill-rule="evenodd"></path><path stroke="#000000" stroke-width="2.0" stroke-linejoin="round" stroke-linecap="butt" d="m798.6176 163.03685c0.37445068 -2.4859314 2.1952515 -5.640381 5.0529785 -5.968796c4.847534 -0.5570679 12.868347 2.5299988 12.84613 6.8054657" fill-rule="evenodd"></path><path fill="#000000" fill-opacity="0.0" d="m797.43396 188.6242c0.4310913 -2.8618927 0.11248779 -5.931198 1.3656616 -8.574554c1.6342773 -3.4473267 6.4038086 -4.9030914 9.372803 -7.561508c2.9506226 -2.6419678 4.876343 -6.19751 8.307007 -8.36322" fill-rule="evenodd"></path><path stroke="#000000" stroke-width="2.0" stroke-linejoin="round" stroke-linecap="butt" d="m797.43396 188.6242c0.4310913 -2.8618927 0.11248779 -5.931198 1.3656616 -8.574554c1.6342773 -3.4473267 6.4038086 -4.9030914 9.372803 -7.561508c2.9506226 -2.6419678 4.876343 -6.19751 8.307007 -8.36322" fill-rule="evenodd"></path><path fill="#cc0000" d="m195.18507 269.67145l0 0c-9.512482 -13.393219 -4.559494 -33.247543 11.062805 -44.3459c15.622284 -11.098373 35.99803 -9.238022 45.510513 4.155182l-12.124283 8.613312c-4.756241 -6.696594 -15.8480835 -6.9845886 -24.774307 -0.64323425c-8.926224 6.3413696 -12.306671 16.91072 -7.5504456 23.60733z" fill-rule="nonzero"></path><path fill="#cc0000" d="m235.96758 229.9774l15.632584 -0.7254181l-3.3249512 55.946564l-15.632584 0.72543335z" fill-rule="nonzero"></path><path fill="#cc0000" d="m232.55971 284.95807l13.198959 -9.376801l10.432922 14.689148l-13.198975 9.37677z" fill-rule="nonzero"></path><path fill="#cc0000" d="m250.6529 313.9865l0 0c-2.8809662 -4.056305 -1.6847534 -9.853546 2.671814 -12.948547l0 0c4.3565674 -3.0949707 10.223755 -2.3156738 13.104736 1.7406006l0 0c2.880951 4.056305 1.6847534 9.853577 -2.671814 12.948547l0 0c-4.3565674 3.0950012 -10.22377 2.3157043 -13.104736 -1.7406006z" fill-rule="nonzero"></path><path fill="#000000" fill-opacity="0.0" d="m195.11206 269.56866c4.595871 -3.2650146 9.880936 -5.6871643 13.935516 -9.582428" fill-rule="evenodd"></path><path stroke="#000000" stroke-width="2.0" stroke-linejoin="round" stroke-linecap="butt" d="m195.11206 269.56866c4.595871 -3.2650146 9.880936 -5.6871643 13.935516 -9.582428" fill-rule="evenodd"></path><path fill="#000000" fill-opacity="0.0" d="m242.0509 299.20932c4.4816895 -3.1838684 8.575867 -6.885956 13.057541 -10.069824" fill-rule="evenodd"></path><path stroke="#000000" stroke-width="2.0" stroke-linejoin="round" stroke-linecap="butt" d="m242.0509 299.20932c4.4816895 -3.1838684 8.575867 -6.885956 13.057541 -10.069824" fill-rule="evenodd"></path><path fill="#000000" fill-opacity="0.0" d="m251.36485 302.58856c-2.3375244 4.9207153 -1.0834808 12.942596 3.7595062 14.778046c4.320038 1.6372375 11.669373 -1.5141907 13.6970215 -5.9236755c1.9567566 -4.25531 -2.1703186 -10.852264 -6.781372 -11.04541c-3.6687622 -0.15368652 -7.3078766 2.000183 -10.99762 2.7365723" fill-rule="evenodd"></path><path stroke="#000000" stroke-width="2.0" stroke-linejoin="round" stroke-linecap="butt" d="m251.36485 302.58856c-2.3375244 4.9207153 -1.0834808 12.942596 3.7595062 14.778046c4.320038 1.6372375 11.669373 -1.5141907 13.6970215 -5.9236755c1.9567566 -4.25531 -2.1703186 -10.852264 -6.781372 -11.04541c-3.6687622 -0.15368652 -7.3078766 2.000183 -10.99762 2.7365723" fill-rule="evenodd"></path><path fill="#000000" fill-opacity="0.0" d="m194.58527 268.8269c0.47434998 0.6678772 -0.9757843 -1.3171692 -1.4230652 -2.0036316c-1.5420685 -2.3666382 -2.0340118 -5.3316956 -2.5966644 -8.148499c-1.6731415 -8.376312 1.6109314 -18.64769 7.542633 -25.8219c5.868622 -7.097931 14.932388 -13.047577 23.89592 -14.279129c10.967514 -1.506897 23.817902 2.33432 29.704971 10.623108" fill-rule="evenodd"></path><path stroke="#000000" stroke-width="2.0" stroke-linejoin="round" stroke-linecap="butt" d="m194.58527 268.8269c0.47434998 0.6678772 -0.9757843 -1.3171692 -1.4230652 -2.0036316c-1.5420685 -2.3666382 -2.0340118 -5.3316956 -2.5966644 -8.148499c-1.6731415 -8.376312 1.6109314 -18.64769 7.542633 -25.8219c5.868622 -7.097931 14.932388 -13.047577 23.89592 -14.279129c10.967514 -1.506897 23.817902 2.33432 29.704971 10.623108" fill-rule="evenodd"></path><path fill="#000000" fill-opacity="0.0" d="m252.07018 228.94632c-3.3204193 7.073532 -1.3804016 14.986816 -1.9414825 22.476837c-0.39878845 5.3235474 -1.963028 10.682373 -1.9467468 15.977814c0.009887695 3.212616 1.8031311 6.3240967 0.9037781 9.51059c-0.32995605 1.1690369 -1.8960419 2.1425781 -1.7368622 3.2955933c0.530777 3.8445435 4.4484406 6.1776733 7.0615845 8.942871" fill-rule="evenodd"></path><path stroke="#000000" stroke-width="2.0" stroke-linejoin="round" stroke-linecap="butt" d="m252.07018 228.94632c-3.3204193 7.073532 -1.3804016 14.986816 -1.9414825 22.476837c-0.39878845 5.3235474 -1.963028 10.682373 -1.9467468 15.977814c0.009887695 3.212616 1.8031311 6.3240967 0.9037781 9.51059c-0.32995605 1.1690369 -1.8960419 2.1425781 -1.7368622 3.2955933c0.530777 3.8445435 4.4484406 6.1776733 7.0615845 8.942871" fill-rule="evenodd"></path><path fill="#000000" fill-opacity="0.0" d="m208.81345 260.14993c-2.970398 -4.18219 -4.8389893 -11.340836 -1.2647552 -15.758011c6.06279 -7.4926453 21.737549 -13.977051 27.724594 -7.639969" fill-rule="evenodd"></path><path stroke="#000000" stroke-width="2.0" stroke-linejoin="round" stroke-linecap="butt" d="m208.81345 260.14993c-2.970398 -4.18219 -4.8389893 -11.340836 -1.2647552 -15.758011c6.06279 -7.4926453 21.737549 -13.977051 27.724594 -7.639969" fill-rule="evenodd"></path><path fill="#000000" fill-opacity="0.0" d="m243.15987 299.52145c-3.4196472 -4.8146973 -8.190231 -8.9036255 -10.141098 -14.527252c-2.5442352 -7.3340454 2.143341 -16.044983 2.5948486 -24.052155c0.4487152 -7.95755 -1.8362579 -15.852234 -0.039108276 -23.767914" fill-rule="evenodd"></path><path stroke="#000000" stroke-width="2.0" stroke-linejoin="round" stroke-linecap="butt" d="m243.15987 299.52145c-3.4196472 -4.8146973 -8.190231 -8.9036255 -10.141098 -14.527252c-2.5442352 -7.3340454 2.143341 -16.044983 2.5948486 -24.052155c0.4487152 -7.95755 -1.8362579 -15.852234 -0.039108276 -23.767914" fill-rule="evenodd"></path><path fill="#cc0000" d="m177.56921 66.95743l0 0c5.450531 -16.534851 30.37799 -23.176888 55.677017 -14.835403c25.299026 8.341484 41.38942 28.507736 35.93889 45.042587l-14.969162 -4.935562c2.7252655 -8.267426 -8.872467 -19.521881 -25.904266 -25.137527c-17.031784 -5.6156464 -33.04805 -3.4659576 -35.773315 4.801468z" fill-rule="nonzero"></path><path fill="#cc0000" d="m254.70924 82.63812l14.572708 14.248047l-60.84146 28.686935l-14.572708 -14.248039z" fill-rule="nonzero"></path><path fill="#cc0000" d="m194.79414 110.69818l21.37465 7.047554l-5.977936 18.134773l-21.37465 -7.0475616z" fill-rule="nonzero"></path><path fill="#cc0000" d="m180.74884 144.16864l0 0c1.6507721 -5.007782 8.708267 -7.1816406 15.763382 -4.8554688l0 0c7.0551147 2.3261871 11.436203 8.27153 9.785446 13.279312l0 0c-1.6507568 5.007782 -8.708267 7.1816406 -15.763382 4.8554535l0 0c-7.0550995 -2.3261719 -11.436203 -8.271515 -9.785446 -13.279297z" fill-rule="nonzero"></path><path fill="#000000" fill-opacity="0.0" d="m177.61105 66.83052c7.442627 2.453949 14.62236 6.0333786 22.238708 7.6214066" fill-rule="evenodd"></path><path stroke="#000000" stroke-width="2.0" stroke-linejoin="round" stroke-linecap="butt" d="m177.61105 66.83052c7.442627 2.453949 14.62236 6.0333786 22.238708 7.6214066" fill-rule="evenodd"></path><path fill="#000000" fill-opacity="0.0" d="m188.43675 127.700874c7.257721 2.3929825 14.709137 4.1279526 21.966858 6.5209427" fill-rule="evenodd"></path><path stroke="#000000" stroke-width="2.0" stroke-linejoin="round" stroke-linecap="butt" d="m188.43675 127.700874c7.257721 2.3929825 14.709137 4.1279526 21.966858 6.5209427" fill-rule="evenodd"></path><path fill="#000000" fill-opacity="0.0" d="m193.17459 138.35667c-7.1594543 0.6052246 -14.3528595 6.3416595 -11.970383 11.92691c2.1251984 4.982147 11.884827 10.082901 18.241226 9.477707c6.1341248 -0.5840454 9.312546 -8.204788 5.4354706 -12.638901c-3.0847626 -3.527954 -8.531525 -5.716324 -12.556046 -8.75798" fill-rule="evenodd"></path><path stroke="#000000" stroke-width="2.0" stroke-linejoin="round" stroke-linecap="butt" d="m193.17459 138.35667c-7.1594543 0.6052246 -14.3528595 6.3416595 -11.970383 11.92691c2.1251984 4.982147 11.884827 10.082901 18.241226 9.477707c6.1341248 -0.5840454 9.312546 -8.204788 5.4354706 -12.638901c-3.0847626 -3.527954 -8.531525 -5.716324 -12.556046 -8.75798" fill-rule="evenodd"></path><path fill="#000000" fill-opacity="0.0" d="m177.91293 65.9148c-0.27178955 0.8245392 0.5004425 -1.6639023 0.8154144 -2.4736214c1.0858765 -2.7915726 3.719574 -4.9385376 6.1373444 -7.0675354c7.1896515 -6.330944 20.723663 -9.090286 33.393234 -7.605934c12.534851 1.4685707 26.706375 6.586384 35.906296 14.292377c11.256775 9.428833 18.64331 23.663803 15.270081 33.89688" fill-rule="evenodd"></path><path stroke="#000000" stroke-width="2.0" stroke-linejoin="round" stroke-linecap="butt" d="m177.91293 65.9148c-0.27178955 0.8245392 0.5004425 -1.6639023 0.8154144 -2.4736214c1.0858765 -2.7915726 3.719574 -4.9385376 6.1373444 -7.0675354c7.1896515 -6.330944 20.723663 -9.090286 33.393234 -7.605934c12.534851 1.4685707 26.706375 6.586384 35.906296 14.292377c11.256775 9.428833 18.64331 23.663803 15.270081 33.89688" fill-rule="evenodd"></path><path fill="#000000" fill-opacity="0.0" d="m270.01385 97.15319c-10.256531 0.9073105 -16.731018 7.2253113 -24.978882 10.95713c-5.8621826 2.6524048 -12.791336 4.23188 -18.257431 7.257576c-3.3161163 1.8355942 -4.950775 5.286171 -9.043808 6.2542343c-1.501648 0.35516357 -3.8939056 -0.5600891 -4.946457 0.24467468c-3.5095978 2.6833725 -2.4603424 7.6837463 -3.0117188 11.70639" fill-rule="evenodd"></path><path stroke="#000000" stroke-width="2.0" stroke-linejoin="round" stroke-linecap="butt" d="m270.01385 97.15319c-10.256531 0.9073105 -16.731018 7.2253113 -24.978882 10.95713c-5.8621826 2.6524048 -12.791336 4.23188 -18.257431 7.257576c-3.3161163 1.8355942 -4.950775 5.286171 -9.043808 6.2542343c-1.501648 0.35516357 -3.8939056 -0.5600891 -4.946457 0.24467468c-3.5095978 2.6833725 -2.4603424 7.6837463 -3.0117188 11.70639" fill-rule="evenodd"></path><path fill="#000000" fill-opacity="0.0" d="m199.47331 74.32542c1.7019958 -5.1632233 7.4586334 -10.985245 15.190414 -10.144402c13.115051 1.4262848 33.685272 12.439949 32.42035 21.657265" fill-rule="evenodd"></path><path stroke="#000000" stroke-width="2.0" stroke-linejoin="round" stroke-linecap="butt" d="m199.47331 74.32542c1.7019958 -5.1632233 7.4586334 -10.985245 15.190414 -10.144402c13.115051 1.4262848 33.685272 12.439949 32.42035 21.657265" fill-rule="evenodd"></path><path fill="#000000" fill-opacity="0.0" d="m189.09422 128.9183c1.9593964 -5.9440994 1.973175 -12.742546 6.06839 -17.769073c5.34079 -6.555359 18.500778 -7.111374 27.18695 -11.239929c8.632385 -4.102997 14.782623 -10.7339325 24.56392 -13.548531" fill-rule="evenodd"></path><path stroke="#000000" stroke-width="2.0" stroke-linejoin="round" stroke-linecap="butt" d="m189.09422 128.9183c1.9593964 -5.9440994 1.973175 -12.742546 6.06839 -17.769073c5.34079 -6.555359 18.500778 -7.111374 27.18695 -11.239929c8.632385 -4.102997 14.782623 -10.7339325 24.56392 -13.548531" fill-rule="evenodd"></path><path fill="#cc0000" d="m101.20159 188.64175l0 0c-2.091034 -7.7757263 3.8268356 -16.12558 13.217918 -18.649948c9.39109 -2.5243683 18.699188 1.7326813 20.790222 9.508408l-7.0397797 1.8923187c-1.0455246 -3.887848 -6.3542404 -5.8404083 -11.857361 -4.361145c-5.5031204 1.4792633 -9.116722 5.830185 -8.071205 9.718033z" fill-rule="nonzero"></path><path fill="#cc0000" d="m127.647224 177.09691l7.528801 2.2711945l-11.644081 25.301361l-7.5287933 -2.2712097z" fill-rule="nonzero"></path><path fill="#cc0000" d="m116.13777 201.93803l7.9343414 -2.132782l2.2933655 8.528091l-7.9343414 2.132782z" fill-rule="nonzero"></path><path fill="#cc0000" d="m119.4753 218.37027l0 0c-0.63329315 -2.3549652 0.97634125 -4.834732 3.5952225 -5.5386963l0 0c2.6188812 -0.70396423 5.255295 0.63442993 5.8885956 2.9894104l0 0c0.6332855 2.3549652 -0.9763489 4.834717 -3.59523 5.5386963l0 0c-2.6188812 0.70396423 -5.255295 -0.6344452 -5.888588 -2.9894104z" fill-rule="nonzero"></path><path fill="#000000" fill-opacity="0.0" d="m101.18555 188.58208c2.7627258 -0.74264526 5.6999207 -0.9808502 8.319939 -2.105011" fill-rule="evenodd"></path><path stroke="#000000" stroke-width="2.0" stroke-linejoin="round" stroke-linecap="butt" d="m101.18555 188.58208c2.7627258 -0.74264526 5.6999207 -0.9808502 8.319939 -2.105011" fill-rule="evenodd"></path><path fill="#000000" fill-opacity="0.0" d="m118.064285 210.10675c2.6940918 -0.7241821 5.298073 -1.7524719 7.9921646 -2.476654" fill-rule="evenodd"></path><path stroke="#000000" stroke-width="2.0" stroke-linejoin="round" stroke-linecap="butt" d="m118.064285 210.10675c2.6940918 -0.7241821 5.298073 -1.7524719 7.9921646 -2.476654" fill-rule="evenodd"></path><path fill="#000000" fill-opacity="0.0" d="m121.8639 213.2214c-1.9919891 1.8843689 -2.8424606 5.8007812 -0.880867 7.4565125c1.7497787 1.476944 5.7951584 1.2458954 7.548477 -0.45388794c1.6920166 -1.6403351 0.9263153 -5.377243 -1.2211227 -6.235321c-1.7086029 -0.682724 -3.8185425 -0.29406738 -5.697296 -0.5689392" fill-rule="evenodd"></path><path stroke="#000000" stroke-width="2.0" stroke-linejoin="round" stroke-linecap="butt" d="m121.8639 213.2214c-1.9919891 1.8843689 -2.8424606 5.8007812 -0.880867 7.4565125c1.7497787 1.476944 5.7951584 1.2458954 7.548477 -0.45388794c1.6920166 -1.6403351 0.9263153 -5.377243 -1.2211227 -6.235321c-1.7086029 -0.682724 -3.8185425 -0.29406738 -5.697296 -0.5689392" fill-rule="evenodd"></path><path fill="#000000" fill-opacity="0.0" d="m101.069756 188.15144c0.104270935 0.3877411 -0.22470856 -0.7714386 -0.31282043 -1.1632538c-0.30379486 -1.3508606 -0.0028915405 -2.8031769 0.23786163 -4.1987915c0.7159271 -4.15007 4.119011 -8.349442 8.217606 -10.675995c4.055008 -2.3018188 9.415459 -3.5402222 13.879189 -2.6148834c5.461708 1.1322327 10.851799 5.0500336 12.145897 9.862274" fill-rule="evenodd"></path><path stroke="#000000" stroke-width="2.0" stroke-linejoin="round" stroke-linecap="butt" d="m101.069756 188.15144c0.104270935 0.3877411 -0.22470856 -0.7714386 -0.31282043 -1.1632538c-0.30379486 -1.3508606 -0.0028915405 -2.8031769 0.23786163 -4.1987915c0.7159271 -4.15007 4.119011 -8.349442 8.217606 -10.675995c4.055008 -2.3018188 9.415459 -3.5402222 13.879189 -2.6148834c5.461708 1.1322327 10.851799 5.0500336 12.145897 9.862274" fill-rule="evenodd"></path><path fill="#000000" fill-opacity="0.0" d="m135.45349 179.3052c-2.8446655 2.7154236 -3.3509521 6.6960144 -4.9647064 10.06398c-1.1469879 2.3937836 -2.8518753 4.609558 -3.7973633 7.0595703c-0.57360077 1.4863586 -0.28500366 3.2233124 -1.2842102 4.5460052c-0.36658478 0.48526 -1.2829895 0.674057 -1.4151917 1.2334747c-0.44083405 1.8652649 0.9932556 3.5967102 1.7322006 5.3103485" fill-rule="evenodd"></path><path stroke="#000000" stroke-width="2.0" stroke-linejoin="round" stroke-linecap="butt" d="m135.45349 179.3052c-2.8446655 2.7154236 -3.3509521 6.6960144 -4.9647064 10.06398c-1.1469879 2.3937836 -2.8518753 4.609558 -3.7973633 7.0595703c-0.57360077 1.4863586 -0.28500366 3.2233124 -1.2842102 4.5460052c-0.36658478 0.48526 -1.2829895 0.674057 -1.4151917 1.2334747c-0.44083405 1.8652649 0.9932556 3.5967102 1.7322006 5.3103485" fill-rule="evenodd"></path><path fill="#000000" fill-opacity="0.0" d="m109.36521 186.51369c-0.6529541 -2.42807 -0.24871063 -6.048004 2.2379227 -7.493454c4.2179565 -2.4518738 12.803352 -2.835144 14.4960785 1.0917664" fill-rule="evenodd"></path><path stroke="#000000" stroke-width="2.0" stroke-linejoin="round" stroke-linecap="butt" d="m109.36521 186.51369c-0.6529541 -2.42807 -0.24871063 -6.048004 2.2379227 -7.493454c4.2179565 -2.4518738 12.803352 -2.835144 14.4960785 1.0917664" fill-rule="evenodd"></path><path fill="#000000" fill-opacity="0.0" d="m118.53292 210.43591c-0.751709 -2.795288 -2.273407 -5.4804077 -2.1844025 -8.404633c0.11606598 -3.8136444 3.9024887 -7.057846 5.557472 -10.68306c1.6447449 -3.6027832 1.9844284 -7.6322937 4.259781 -10.9908905" fill-rule="evenodd"></path><path stroke="#000000" stroke-width="2.0" stroke-linejoin="round" stroke-linecap="butt" d="m118.53292 210.43591c-0.751709 -2.795288 -2.273407 -5.4804077 -2.1844025 -8.404633c0.11606598 -3.8136444 3.9024887 -7.057846 5.557472 -10.68306c1.6447449 -3.6027832 1.9844284 -7.6322937 4.259781 -10.9908905" fill-rule="evenodd"></path></g></svg>

