<?xml version="1.0" standalone="yes"?>

<svg version="1.1" viewBox="0.0 0.0 526.5905511811023 273.2729658792651" fill="none" stroke="none" stroke-linecap="square" stroke-miterlimit="10" xmlns="http://www.w3.org/2000/svg" xmlns:xlink="http://www.w3.org/1999/xlink"><clipPath id="p.0"><path d="m0 0l526.5906 0l0 273.27298l-526.5906 0l0 -273.27298z" clip-rule="nonzero"></path></clipPath><g clip-path="url(#p.0)"><path fill="#000000" fill-opacity="0.0" d="m0 0l526.5906 0l0 273.27298l-526.5906 0z" fill-rule="nonzero"></path><path fill="#000000" fill-opacity="0.0" d="m38.968502 70.715225l440.28348 0l0 131.84251l-440.28348 0z" fill-rule="nonzero"></path><path fill="#6d9eeb" d="m96.36415 132.01648l1.1875 -25.6875l0 -1.5q5.625 0 8.1875 1.25q6.5 0 6.5 -3.625q0 -4.125 -12.625 -5.0625q-2.25 -0.125 -4.15625 -0.125q-1.90625 0 -3.4375 1.0q-1.53125 1.0 -1.53125 2.8125q0 5.625 -0.65625 17.125q-0.65625 11.5 -1.0 31.96875q-0.34375 20.46875 -1.34375 31.53125l3.5625 2.6875q4.3125 0 4.3125 -6.375l0 -36.25q2.375 0.75 4.59375 0.75q2.21875 0 3.59375 -1.03125q1.375 -1.03125 1.375 -2.71875q0 -3.375 -6.1875 -3.375l-2.375 0.0625l0 -3.4375zm55.4375 29.8125l-0.6875 2.5625q0 1.5625 1.125 7.625q1.125 6.0625 1.125 7.9375l0 0.125q0 2.875 -1.9375 3.625q-2.6875 0 -4.1875 -0.875q-1.5 -0.875 -1.5 -4.40625q0 -3.53125 -1.875 -14.53125l-3.9375 -0.375l-4.25 0q-1.4375 -0.625 -5.0625 -0.625q0 0.125 -0.15625 1.65625q-0.15625 1.53125 -0.25 2.46875q-0.09375 0.9375 -0.3125 2.78125q-0.21875 1.84375 -0.46875 3.125q-0.25 1.28125 -0.625 3.0q-0.375 1.71875 -0.84375 2.875q-0.46875 1.15625 -1.03125 2.21875q-1.125 2.1875 -2.75 2.1875q-1.625 0 -2.90625 -0.96875q-1.28125 -0.96875 -1.28125 -2.46875q3.375 -12.9375 5.78125 -27.125q2.40625 -14.1875 2.875 -16.84375q0.46875 -2.65625 2.1875 -10.25q1.71875 -7.59375 2.0625 -10.15625q0.34375 -2.5625 0.65625 -6.625q0.5625 -8.875 2.3125 -11.4375l4.3125 0q4.375 0 4.375 2.625q0 24.6875 4.8125 49.0625q0.25 1.4375 0.9375 4.0q1.5 5.5625 1.5 8.8125zm-8.75 -2.75q-0.375 -1.875 -0.375 -6.0625q0 -4.1875 -0.53125 -10.15625q-0.53125 -5.96875 -1.53125 -13.84375q-1.0 -7.875 -1.375 -11.375q-0.75 3.625 -2.9375 12.125q-4.4375 17.6875 -4.5625 27.25q2.1875 1.4375 11.3125 2.0625zm37.4375 22.0l-4.8125 0.0625l-5.5625 0.25q-3.5625 0 -4.75 -2.3125q0 -1.875 0.46875 -2.90625q0.46875 -1.03125 1.96875 -1.03125l3.625 0l0.25 -1.6875l-0.875 -27.1875l0.6875 -28.5q0 -7.1875 -0.625 -13.625q-2.6875 0 -4.96875 0q-2.28125 0 -3.34375 -0.71875q-1.0625 -0.71875 -1.0625 -2.71875q0 -3.0 6.9375 -2.9375l0.4375 0q16.4375 0 16.4375 4.375q0 0.6875 -0.75 2.375l-6.5625 0q0.5 4.6875 0.5 11.0l-0.6875 24.4375l0.9375 27.1875l0 3.8125q0 1.125 -0.4375 3.4375l5.4375 0q5.25 0 5.25 3.1875q0 1.4375 -0.90625 2.4375q-0.90625 1.0 -2.03125 1.0l-5.5625 0.0625zm25.5625 -41.625q0 1.625 -0.875 5.1875q-0.875 3.5625 -0.875 6.59375q0 3.03125 0.78125 12.9375q0.78125 9.90625 0.78125 12.78125q0 2.875 -1.03125 4.375q-1.03125 1.5 -2.34375 1.5q-1.875 0 -2.375 -2.5625q0.125 -4.75 0.125 -11.65625q0 -6.90625 -1.09375 -30.34375q-1.09375 -23.4375 -1.09375 -35.0q0 -6.0625 4.25 -6.0625q6.6875 0 11.25 3.5q4.5625 3.5 4.5625 10.0q0 8.75 -1.375 13.625q-1.375 4.875 -5.1875 12.1875q0.6875 3.0625 2.4375 12.25q3.6875 19.875 8.3125 28.6875q1.3125 2.5 1.3125 3.90625q0 1.40625 -0.78125 2.375q-0.78125 0.96875 -2.09375 0.96875q-4.1875 0 -7.6875 -13.9375q-1.5 -6.0625 -2.6875 -12.25q-3.375 -16.9375 -4.3125 -19.0625zm-1.0625 -37.5l-0.4375 1.8125q0 5.25 0.25 15.15625q0.25 9.90625 0.25 14.40625q3.0 -1.5625 4.84375 -8.15625q1.84375 -6.59375 1.84375 -10.09375q0 -3.5 -0.1875 -5.15625q-0.1875 -1.65625 -0.8125 -3.65625q-1.1875 -4.1875 -5.75 -4.3125z" fill-rule="nonzero"></path><path fill="#e06666" d="m243.9579 165.95398q5.390625 -30.671875 6.640625 -42.703125l0 -0.46875q0.1875 -1.046875 1.03125 -1.65625q0.84375 -0.609375 1.671875 -0.609375q0.84375 0 1.28125 0.3125q0.9375 0.671875 0.9375 1.71875q0 9.5 0.49998474 28.453125q0.515625 18.9375 0.515625 28.421875q0 2.390625 -1.6093597 3.765625q-0.859375 0.578125 -1.046875 0.234375q-1.609375 0.421875 -1.796875 -0.671875q-0.078125 -0.46875 -0.078125 -1.171875q0 0 0.03125 -1.296875q-0.15625 -6.09375 -0.15625 -9.53125q0 -3.4375 0.0625 -9.484375q0.0625 -6.0625 -0.015625 -22.96875q-0.4375 2.5 -1.828125 9.4375q-1.375 6.921875 -1.890625 10.078125q-0.5 3.140625 -0.8125 5.25q-0.3125 2.109375 -0.609375 3.765625q-0.296875 1.65625 -0.71875 3.375q-0.90625 3.640625 -2.578125 3.640625q-2.5 0 -2.5 -7.46875q-0.46875 -3.828125 -2.578125 -15.328125q-2.109375 -11.5 -2.8125 -15.796875q-0.078125 7.421875 -0.078125 11.125l0.65625 33.28125q0 1.71875 -1.203125 3.015625q-2.0 0 -2.703125 -1.328125q-0.703125 -1.328125 -0.703125 -3.59375l0.28125 -13.359375l-0.28125 -30.984375q0 -5.1875 0.125 -10.34375l2.21875 -1.25q2.234375 0.234375 4.96875 14.0625q2.1875 10.9375 3.5625 20.15625q1.390625 9.21875 1.515625 9.921875z" fill-rule="nonzero"></path><path fill="#ffd966" d="m268.2079 142.1571l0.125 4.6875l-0.046875 7.65625q0 0.984375 0.03125 2.3125q0.046875 1.328125 0.109375 3.5q0.0625 2.15625 0.234375 4.296875q0.171875 2.125 0.40625 4.484375q0.234375 2.359375 0.625 4.375q0.390625 2.015625 0.859375 3.65625q1.0625 3.546875 2.78125 3.546875q2.296875 0 3.515625 -4.328125q1.796875 -6.453125 1.796875 -15.859375l0.109375 -8.25q0 -8.671875 -0.765625 -11.671875q-0.75 -3.015625 -1.421875 -4.53125q-1.328125 -3.09375 -4.015625 -3.09375q-0.078125 0 -0.15625 0q-4.1875 0 -4.1875 9.21875zm14.84375 18.828125q0 23.015625 -9.40625 23.015625q-8.671875 0 -9.734375 -21.796875q-0.078125 -2.078125 -0.078125 -4.140625l-0.03125 -4.890625l0 -1.5625q0 -16.90625 4.953125 -20.890625q1.21875 -0.984375 2.703125 -1.0625q1.125 0.390625 2.765625 0.734375q1.640625 0.328125 2.421875 0.671875q1.453125 0.671875 3.125 3.46875q1.6875 2.78125 2.484375 7.453125q0.796875 4.671875 0.796875 9.359375l0 9.640625z" fill-rule="nonzero"></path><path fill="#6aa84f" d="m295.16882 150.95398l0.46875 20.703125l0 9.0625q0 1.046875 -0.546875 1.78125q-0.546875 0.71875 -1.53125 0.71875q-2.609375 0 -2.609375 -4.890625l-0.15625 -28.203125l0.46875 -14.921875q0 -5.390625 2.921875 -5.390625q1.765625 0 2.546875 2.703125q1.09375 5.15625 3.796875 14.828125q2.71875 9.65625 3.734375 14.703125q0.75 2.453125 1.921875 7.28125q1.171875 4.828125 1.828125 7.25q0.3125 -17.34375 0.3125 -42.03125l-0.109375 -2.15625q0 -1.09375 0.40625 -1.734375q0.40625 -0.640625 1.375 -0.640625q0.984375 0 1.609375 0.46875q1.25 0.9375 1.25 2.65625q0 10.96875 -0.625 28.203125q-0.625 17.21875 -1.875 21.53125q-0.15625 0.03125 -0.671875 0.203125q-0.5 0.1875 -0.734375 0.21875q-2.21875 0.515625 -2.8125 -0.203125q-0.578125 -0.703125 -0.84375 -1.875q-0.25 -1.171875 -0.578125 -2.28125q-0.328125 -1.109375 -2.484375 -10.640625q-5.734375 -25.203125 -7.0625 -29.296875l0 11.953125z" fill-rule="nonzero"></path><path fill="#ff9900" d="m325.3954 141.68835l0.90625 35.3125l0 1.921875l1.4375 0q4.1875 -5.078125 5.390625 -9.296875q1.140625 -3.953125 1.140625 -11.015625q0 -24.140625 -8.28125 -25.234375q-0.59375 3.15625 -0.59375 8.3125zm13.09375 9.265625l-0.15625 4.015625l0 4.375q0 7.9375 -0.703125 10.71875q-0.703125 2.765625 -1.4375 4.5625q-0.71875 1.796875 -1.734375 3.203125q-2.34375 3.15625 -5.9375 5.15625l-5.46875 0q-2.03125 0 -2.03125 -10.46875l0.234375 -25.203125q0 -6.984375 -0.265625 -13.125q-0.671875 -0.78125 -0.671875 -1.84375q0 -1.078125 0.890625 -1.875q0.90625 -0.8125 2.171875 -0.8125q1.28125 0 2.171875 1.40625q0.59375 0.234375 1.734375 0.4375q1.15625 0.1875 1.703125 0.46875q4.453125 2.0625 6.96875 7.328125q2.53125 5.25 2.53125 11.65625z" fill-rule="nonzero"></path><path fill="#c27ba0" d="m349.57507 142.1571l0.125 4.6875l-0.046875 7.65625q0 0.984375 0.03125 2.3125q0.046875 1.328125 0.109375 3.5q0.0625 2.15625 0.234375 4.296875q0.171875 2.125 0.40625 4.484375q0.234375 2.359375 0.625 4.375q0.390625 2.015625 0.859375 3.65625q1.0625 3.546875 2.78125 3.546875q2.296875 0 3.515625 -4.328125q1.796875 -6.453125 1.796875 -15.859375l0.109375 -8.25q0 -8.671875 -0.765625 -11.671875q-0.75 -3.015625 -1.421875 -4.53125q-1.328125 -3.09375 -4.015625 -3.09375q-0.078125 0 -0.15625 0q-4.1875 0 -4.1875 9.21875zm14.84375 18.828125q0 23.015625 -9.40625 23.015625q-8.671875 0 -9.734375 -21.796875q-0.078125 -2.078125 -0.078125 -4.140625l-0.03125 -4.890625l0 -1.5625q0 -16.90625 4.953125 -20.890625q1.21875 -0.984375 2.703125 -1.0625q1.125 0.390625 2.765625 0.734375q1.640625 0.328125 2.421875 0.671875q1.453125 0.671875 3.125 3.46875q1.6875 2.78125 2.484375 7.453125q0.796875 4.671875 0.796875 9.359375l0 9.640625z" fill-rule="nonzero"></path><path fill="#6d9eeb" d="m404.81726 159.62585l0.234375 4.921875l0 1.203125l-0.203125 0.859375l0.046875 4.65625q0 7.03125 -2.0 9.953125q-1.875 2.75 -5.8125 2.75q-4.8125 0 -7.3125 -3.484375q-2.1875 -2.96875 -3.203125 -7.96875q-1.28125 -6.015625 -2.0625 -8.515625q-0.078125 -0.203125 -0.890625 -17.890625q-0.796875 -17.703125 -0.796875 -19.65625q-0.578125 -0.65625 -0.578125 -1.625q0 -0.984375 0.671875 -1.71875q0.6875 -0.75 1.625 -0.75q2.890625 0 2.890625 5.703125l0.75 27.8125q0.46875 1.046875 0.796875 4.25q0.328125 3.203125 0.328125 4.984375q0 1.78125 0.5625 4.375q0.578125 2.59375 1.546875 5.25q0.984375 2.65625 2.640625 4.53125q1.65625 1.875 3.53125 1.875q3.046875 0 3.203125 -5.5q0.046875 -0.703125 0.046875 -1.6875l0 -35.890625q0 -2.265625 -0.859375 -6.859375q-0.859375 -4.59375 -0.859375 -6.203125q0 -1.625 0.796875 -2.234375q0.796875 -0.609375 1.8125 -0.609375l2.421875 1.875l0 1.328125l-0.703125 4.890625q0 4.640625 0.578125 13.609375q0.59375 8.96875 0.640625 13.296875l0 0.125l0.15625 2.34375zm8.859375 -2.890625l0.125 -15.203125q0 -8.703125 -0.265625 -10.8125q-0.25 -2.109375 -0.578125 -3.609375q-0.328125 -1.515625 -0.328125 -2.390625q0 -0.875 0.640625 -1.640625q0.640625 -0.765625 1.625 -0.765625q2.96875 0 2.96875 6.484375q0 0.046875 -0.359375 16.453125q0.28125 -0.703125 1.484375 -3.90625q1.21875 -3.203125 2.5 -6.515625q1.296875 -3.328125 2.734375 -6.765625q3.359375 -7.890625 4.8125 -7.890625q0.890625 0 1.578125 0.609375q0.6875 0.59375 0.6875 1.4375q0 0.84375 -4.375 9.984375q-4.375 9.140625 -4.890625 11.59375l0 1.40625q1.171875 3.09375 6.390625 19.484375q5.21875 16.375 5.21875 17.375q0 1.0 -0.78125 1.65625q-0.78125 0.671875 -1.765625 0.671875l-1.875 -0.3125q-1.953125 -11.453125 -3.984375 -19.859375q-2.03125 -8.421875 -5.390625 -16.078125q-2.21875 4.25 -2.375 5.15625q-0.28125 2.0625 -0.28125 3.828125l0.515625 14.84375q0 10.828125 -2.734375 10.828125q-2.34375 0 -2.34375 -4.046875q0 -4.046875 0.515625 -11.234375q0.53125 -7.1875 0.53125 -10.78125z" fill-rule="nonzero"></path></g></svg>

