<?xml version="1.0" standalone="yes"?>

<svg version="1.1" viewBox="0.0 0.0 260.0 234.0" fill="none" stroke="none" stroke-linecap="square" stroke-miterlimit="10" xmlns="http://www.w3.org/2000/svg" xmlns:xlink="http://www.w3.org/1999/xlink"><clipPath id="p.0"><path d="m0 0l260.0 0l0 234.0l-260.0 0l0 -234.0z" clip-rule="nonzero"></path></clipPath><g clip-path="url(#p.0)"><path fill="#000000" fill-opacity="0.0" d="m0 0l260.0 0l0 234.0l-260.0 0z" fill-rule="nonzero"></path><path fill="#ff0000" d="m146.71913 193.35577c-31.547249 2.5249329 -26.654198 -52.53676 33.566925 -17.03151c-6.9127197 69.56825 -54.2349 41.0 -33.566925 17.03151z" fill-rule="nonzero"></path><path fill="#ffffff" d="m188.05696 7.6418533l54.61418 19.811024l-56.44095 155.65353l-54.614166 -19.81102z" fill-rule="nonzero"></path><path fill="#000000" fill-opacity="0.0" d="m144.84155 127.733215l54.771652 19.181107" fill-rule="nonzero"></path><path stroke="#000000" stroke-width="2.0" stroke-linejoin="round" stroke-linecap="butt" d="m144.84155 127.733215l54.771652 19.181107" fill-rule="nonzero"></path><path fill="#ff0000" d="m87.51505 183.49294c18.435692 -25.708664 57.29528 13.568237 -8.669296 36.614166c-48.62598 -50.182404 3.719162 -67.860886 8.669296 -36.614166z" fill-rule="nonzero"></path><path fill="#ffffff" d="m12.943591 22.796623l56.062992 -15.244094l43.46457 159.74803l-56.062996 15.244095z" fill-rule="nonzero"></path><path fill="#000000" fill-opacity="0.0" d="m46.747818 145.86475l55.811028 -15.842514" fill-rule="nonzero"></path><path stroke="#000000" stroke-width="2.0" stroke-linejoin="round" stroke-linecap="butt" d="m46.747818 145.86475l55.811028 -15.842514" fill-rule="nonzero"></path><path fill="#6d9eeb" d="m92.5538 149.97375l0 0c0 -2.2700195 1.790863 -4.1102448 4.0 -4.1102448l0 0c1.0608673 0 2.0782852 0.43304443 2.8284302 1.2038727c0.75014496 0.770813 1.1715698 1.8162689 1.1715698 2.906372l0 0c0 2.2700195 -1.7908554 4.1102295 -4.0 4.1102295l0 0c-2.209137 0 -4.0 -1.84021 -4.0 -4.1102295z" fill-rule="nonzero"></path><path stroke="#000000" stroke-width="1.0" stroke-linejoin="round" stroke-linecap="butt" d="m92.5538 149.97375l0 0c0 -2.2700195 1.790863 -4.1102448 4.0 -4.1102448l0 0c1.0608673 0 2.0782852 0.43304443 2.8284302 1.2038727c0.75014496 0.770813 1.1715698 1.8162689 1.1715698 2.906372l0 0c0 2.2700195 -1.7908554 4.1102295 -4.0 4.1102295l0 0c-2.209137 0 -4.0 -1.84021 -4.0 -4.1102295z" fill-rule="nonzero"></path><path fill="#6d9eeb" d="m143.30446 148.47507l0 0c0 -2.2700195 1.790863 -4.1102448 4.0 -4.1102448l0 0c1.0608673 0 2.0782776 0.43304443 2.8284302 1.2038727c0.7501526 0.770813 1.1715698 1.8162689 1.1715698 2.906372l0 0c0 2.2700195 -1.790863 4.1102295 -4.0 4.1102295l0 0c-2.209137 0 -4.0 -1.84021 -4.0 -4.1102295z" fill-rule="nonzero"></path><path stroke="#000000" stroke-width="1.0" stroke-linejoin="round" stroke-linecap="butt" d="m143.30446 148.47507l0 0c0 -2.2700195 1.790863 -4.1102448 4.0 -4.1102448l0 0c1.0608673 0 2.0782776 0.43304443 2.8284302 1.2038727c0.7501526 0.770813 1.1715698 1.8162689 1.1715698 2.906372l0 0c0 2.2700195 -1.790863 4.1102295 -4.0 4.1102295l0 0c-2.209137 0 -4.0 -1.84021 -4.0 -4.1102295z" fill-rule="nonzero"></path><path fill="#000000" fill-opacity="0.0" d="m14.553805 24.700787c19.955948 -1.995594 39.564674 -8.103098 57.999996 -15.999999" fill-rule="evenodd"></path><path stroke="#000000" stroke-width="2.0" stroke-linejoin="round" stroke-linecap="butt" d="m14.553805 24.700787c19.955948 -1.995594 39.564674 -8.103098 57.999996 -15.999999" fill-rule="evenodd"></path><path fill="#000000" fill-opacity="0.0" d="m15.055119 23.199474c0 53.8951 29.459503 103.70601 42.498688 156.0" fill-rule="evenodd"></path><path stroke="#000000" stroke-width="2.0" stroke-linejoin="round" stroke-linecap="butt" d="m15.055119 23.199474c0 53.8951 29.459503 103.70601 42.498688 156.0" fill-rule="evenodd"></path><path fill="#000000" fill-opacity="0.0" d="m57.553806 180.70079c19.028706 -2.0405731 35.436466 -14.848251 53.999996 -19.501312" fill-rule="evenodd"></path><path stroke="#000000" stroke-width="2.0" stroke-linejoin="round" stroke-linecap="butt" d="m57.553806 180.70079c19.028706 -2.0405731 35.436466 -14.848251 53.999996 -19.501312" fill-rule="evenodd"></path><path fill="#000000" fill-opacity="0.0" d="m112.055115 165.19948c-2.8431015 -25.56311 -17.798195 -48.308113 -25.0 -73.0c-7.779953 -26.674133 -5.066536 -56.650887 -17.501312 -81.49869" fill-rule="evenodd"></path><path stroke="#000000" stroke-width="2.0" stroke-linejoin="round" stroke-linecap="butt" d="m112.055115 165.19948c-2.8431015 -25.56311 -17.798195 -48.308113 -25.0 -73.0c-7.779953 -26.674133 -5.066536 -56.650887 -17.501312 -81.49869" fill-rule="evenodd"></path><path fill="#000000" fill-opacity="0.0" d="m131.5538 161.19948c8.126617 -54.13012 43.757202 -100.88937 57.0 -154.0" fill-rule="evenodd"></path><path stroke="#000000" stroke-width="2.0" stroke-linejoin="round" stroke-linecap="butt" d="m131.5538 161.19948c8.126617 -54.13012 43.757202 -100.88937 57.0 -154.0" fill-rule="evenodd"></path><path fill="#000000" fill-opacity="0.0" d="m187.5538 8.700788c19.98819 5.8277006 39.305664 13.937837 59.501312 19.0" fill-rule="evenodd"></path><path stroke="#000000" stroke-width="2.0" stroke-linejoin="round" stroke-linecap="butt" d="m187.5538 8.700788c19.98819 5.8277006 39.305664 13.937837 59.501312 19.0" fill-rule="evenodd"></path><path fill="#000000" fill-opacity="0.0" d="m130.5538 161.19948c19.64975 5.070465 37.207916 20.0 57.501312 20.0" fill-rule="evenodd"></path><path stroke="#000000" stroke-width="2.0" stroke-linejoin="round" stroke-linecap="butt" d="m130.5538 161.19948c19.64975 5.070465 37.207916 20.0 57.501312 20.0" fill-rule="evenodd"></path><path fill="#000000" fill-opacity="0.0" d="m188.5538 179.70079c13.185822 -30.247208 22.066956 -62.198235 32.501312 -93.50131c6.410324 -19.23095 8.164795 -42.16479 22.498688 -56.49869" fill-rule="evenodd"></path><path stroke="#000000" stroke-width="2.0" stroke-linejoin="round" stroke-linecap="butt" d="m188.5538 179.70079c13.185822 -30.247208 22.066956 -62.198235 32.501312 -93.50131c6.410324 -19.23095 8.164795 -42.16479 22.498688 -56.49869" fill-rule="evenodd"></path><path fill="#000000" fill-opacity="0.0" d="m82.178474 173.82414c2.2406845 2.1079102 3.9947433 5.0732727 4.375328 8.125992" fill-rule="evenodd"></path><path stroke="#000000" stroke-width="2.0" stroke-linejoin="round" stroke-linecap="butt" d="m82.178474 173.82414c2.2406845 2.1079102 3.9947433 5.0732727 4.375328 8.125992" fill-rule="evenodd"></path><path fill="#000000" fill-opacity="0.0" d="m87.178474 183.57422c4.1804504 -6.8371124 16.026253 -10.948303 23.0 -7.0c4.9999084 2.8307648 6.462532 10.547974 5.750656 16.249344c-1.9143524 15.332077 -21.707825 24.72078 -36.750656 28.249344" fill-rule="evenodd"></path><path stroke="#000000" stroke-width="2.0" stroke-linejoin="round" stroke-linecap="butt" d="m87.178474 183.57422c4.1804504 -6.8371124 16.026253 -10.948303 23.0 -7.0c4.9999084 2.8307648 6.462532 10.547974 5.750656 16.249344c-1.9143524 15.332077 -21.707825 24.72078 -36.750656 28.249344" fill-rule="evenodd"></path><path fill="#000000" fill-opacity="0.0" d="m78.80315 220.70079c-10.874252 -9.464081 -20.874012 -23.46074 -20.874012 -37.876648" fill-rule="evenodd"></path><path stroke="#000000" stroke-width="2.0" stroke-linejoin="round" stroke-linecap="butt" d="m78.80315 220.70079c-10.874252 -9.464081 -20.874012 -23.46074 -20.874012 -37.876648" fill-rule="evenodd"></path><path fill="#000000" fill-opacity="0.0" d="m139.68092 164.95013c-6.098007 1.407608 -12.175842 8.95369 -11.125977 15.123352c1.1815033 6.9432983 10.268997 10.766907 17.125977 12.375336" fill-rule="evenodd"></path><path stroke="#000000" stroke-width="2.0" stroke-linejoin="round" stroke-linecap="butt" d="m139.68092 164.95013c-6.098007 1.407608 -12.175842 8.95369 -11.125977 15.123352c1.1815033 6.9432983 10.268997 10.766907 17.125977 12.375336" fill-rule="evenodd"></path><path fill="#000000" fill-opacity="0.0" d="m148.48372 192.37767c-5.6558075 3.2589722 -8.286606 12.012878 -5.8553467 17.784836c2.746811 6.5211334 13.255157 12.169983 20.153473 9.399185c13.625671 -5.4729156 13.425507 -24.93518 17.019958 -38.362213" fill-rule="evenodd"></path><path stroke="#000000" stroke-width="2.0" stroke-linejoin="round" stroke-linecap="butt" d="m148.48372 192.37767c-5.6558075 3.2589722 -8.286606 12.012878 -5.8553467 17.784836c2.746811 6.5211334 13.255157 12.169983 20.153473 9.399185c13.625671 -5.4729156 13.425507 -24.93518 17.019958 -38.362213" fill-rule="evenodd"></path></g></svg>

