<?xml version="1.0" standalone="yes"?>

<svg version="1.1" viewBox="0.0 0.0 333.62467191601047 322.6666666666667" fill="none" stroke="none" stroke-linecap="square" stroke-miterlimit="10" xmlns="http://www.w3.org/2000/svg" xmlns:xlink="http://www.w3.org/1999/xlink"><clipPath id="p.0"><path d="m0 0l333.62466 0l0 322.66666l-333.62466 0l0 -322.66666z" clip-rule="nonzero"></path></clipPath><g clip-path="url(#p.0)"><path fill="#000000" fill-opacity="0.0" d="m0 0l333.62466 0l0 322.66666l-333.62466 0z" fill-rule="nonzero"></path><path fill="#000000" fill-opacity="0.0" d="m11.694225 161.33333l0 0c0 -83.16451 69.448746 -150.58267 155.1181 -150.58267l0 0c41.139877 0 80.59479 15.864916 109.685074 44.104645c29.090271 28.23973 45.433044 66.54102 45.433044 106.47803l0 0c0 83.16452 -69.448746 150.58269 -155.11812 150.58269l0 0c-85.669365 0 -155.1181 -67.41817 -155.1181 -150.58269z" fill-rule="nonzero"></path><path stroke="#93c47d" stroke-width="8.0" stroke-linejoin="round" stroke-linecap="butt" d="m11.694225 161.33333l0 0c0 -83.16451 69.448746 -150.58267 155.1181 -150.58267l0 0c41.139877 0 80.59479 15.864916 109.685074 44.104645c29.090271 28.23973 45.433044 66.54102 45.433044 106.47803l0 0c0 83.16452 -69.448746 150.58269 -155.11812 150.58269l0 0c-85.669365 0 -155.1181 -67.41817 -155.1181 -150.58269z" fill-rule="nonzero"></path><path fill="#e06666" d="m139.53673 119.137764l0 0c-16.29023 -16.19455 -17.28437 -41.612083 -2.2204742 -56.77165q18.5309 -18.64859 26.478912 -47.817924q10.253265 29.770151 30.29274 49.691933l0 0c16.290222 16.194557 17.284363 41.61209 2.2204742 56.771652l0 0c-15.063889 15.159561 -40.48143 14.320541 -56.771652 -1.8740158z" fill-rule="nonzero"></path><path fill="#e06666" d="m193.92929 203.33128l0 0c16.377197 16.107574 17.512344 41.518066 2.535431 56.755905q-18.423904 18.744873 -26.20842 47.95401q-10.416763 -29.71402 -30.563232 -49.52881l0 0c-16.377197 -16.10759 -17.512352 -41.518066 -2.535431 -56.755905l0 0c14.976913 -15.237839 40.394455 -14.532776 56.771652 1.5747986z" fill-rule="nonzero"></path><path fill="#ff9900" d="m215.44731 133.2393l0 0c16.690308 -15.785782 42.121933 -16.004349 56.803146 -0.4881897q18.06015 19.08725 46.963074 27.919327q-30.069244 9.338913 -50.60086 28.757828l0 0c-16.690308 15.785782 -42.12195 16.004349 -56.80316 0.4881897l0 0c-14.681198 -15.516144 -13.0525055 -40.891388 3.6378021 -56.677155z" fill-rule="nonzero"></path><path fill="#ff9900" d="m118.65754 189.52257l0 0c-16.742493 15.724899 -42.174126 15.851807 -56.80315 0.28346252q-17.995941 -19.151443 -46.86859 -28.087265q30.09953 -9.230118 50.695362 -28.574142l0 0c16.742493 -15.724899 42.174126 -15.851814 56.803154 -0.28346252l0 0c14.629013 15.568329 12.91571 40.936523 -3.8267746 56.661407z" fill-rule="nonzero"></path><path fill="#c27ba0" d="m215.90973 174.1656l0 0c22.969833 0 41.590546 17.31636 41.590546 38.67717q0 26.27707 14.922272 52.55414q-28.256409 -13.876984 -56.512817 -13.876984l0 0c-22.969818 0 -41.590546 -17.316345 -41.590546 -38.677155l0 0c0 -21.36081 18.620728 -38.67717 41.590546 -38.67717z" fill-rule="nonzero"></path><path fill="#6d9eeb" d="m177.27858 113.76369l0 0c1.1219635 -22.94374 19.32669 -40.697235 40.661407 -39.65355q26.24498 1.2838974 53.218826 -12.337528q-15.240204 27.546284 -16.620392 55.770603l0 0c-1.1219635 22.94374 -19.326706 40.697235 -40.661423 39.65355l0 0c-21.334717 -1.0437012 -37.720383 -20.48935 -36.59842 -43.433075z" fill-rule="nonzero"></path><path fill="#c27ba0" d="m108.560776 154.07756l0 0c-22.821968 -2.6179047 -39.348656 -21.943695 -36.913383 -43.16535q2.995758 -26.10588 -8.834709 -53.91249q26.492462 17.007011 54.566994 20.227455l0 0c22.821968 2.6179123 39.348656 21.943703 36.913383 43.16535l0 0c-2.4352722 21.221657 -22.910309 36.302956 -45.732285 33.685036z" fill-rule="nonzero"></path><path fill="#6d9eeb" d="m151.61534 210.64314l0 0c-0.99150085 22.952423 -19.097534 40.811676 -40.44095 39.889755q-26.255669 -1.1341095 -53.155476 12.642761q15.085384 -27.636093 16.30508 -55.87111l0 0c0.9915085 -22.952423 19.097534 -40.81169 40.44095 -39.889755l0 0c21.343407 0.9219208 37.841896 20.27591 36.850395 43.228348z" fill-rule="nonzero"></path><path fill="#ffd966" d="m122.43438 161.33333l0 0c0 -22.221848 19.86869 -40.236214 44.377953 -40.236214l0 0c24.509277 0 44.37796 18.014366 44.37796 40.236214l0 0c0 22.221863 -19.868683 40.23622 -44.37796 40.23622l0 0c-24.509262 0 -44.377953 -18.014359 -44.377953 -40.23622z" fill-rule="nonzero"></path><path fill="#000000" fill-opacity="0.0" d="m127.66535 79.879265c0.8450699 -11.77739 13.048515 -19.719307 20.401573 -28.958004c7.858017 -9.873131 9.506058 -23.378366 14.314972 -35.04462" fill-rule="evenodd"></path><path stroke="#000000" stroke-width="2.0" stroke-linejoin="round" stroke-linecap="butt" d="m127.66535 79.879265c0.8450699 -11.77739 13.048515 -19.719307 20.401573 -28.958004c7.858017 -9.873131 9.506058 -23.378366 14.314972 -35.04462" fill-rule="evenodd"></path><path fill="#000000" fill-opacity="0.0" d="m163.53412 14.724409c0 23.4927 24.924713 39.83146 37.67717 59.561676" fill-rule="evenodd"></path><path stroke="#000000" stroke-width="2.0" stroke-linejoin="round" stroke-linecap="butt" d="m163.53412 14.724409c0 23.4927 24.924713 39.83146 37.67717 59.561676" fill-rule="evenodd"></path><path fill="#000000" fill-opacity="0.0" d="m178.50525 122.32809c0 -19.008774 12.039764 -40.693146 29.123367 -49.028877c7.988495 -3.8978882 17.774353 1.2333603 26.653534 0.8215256c13.838379 -0.64185333 28.532516 -5.543785 38.832016 -14.808399" fill-rule="evenodd"></path><path stroke="#000000" stroke-width="2.0" stroke-linejoin="round" stroke-linecap="butt" d="m178.50525 122.32809c0 -19.008774 12.039764 -40.693146 29.123367 -49.028877c7.988495 -3.8978882 17.774353 1.2333603 26.653534 0.8215256c13.838379 -0.64185333 28.532516 -5.543785 38.832016 -14.808399" fill-rule="evenodd"></path><path fill="#000000" fill-opacity="0.0" d="m253.53412 122.65879c23.604187 7.862831 42.074677 26.727974 64.33334 37.84252" fill-rule="evenodd"></path><path stroke="#000000" stroke-width="2.0" stroke-linejoin="round" stroke-linecap="butt" d="m253.53412 122.65879c23.604187 7.862831 42.074677 26.727974 64.33334 37.84252" fill-rule="evenodd"></path><path fill="#000000" fill-opacity="0.0" d="m254.521 197.35695c10.102295 0 15.139618 -13.379761 22.706024 -20.073486c9.886078 -8.745834 24.33493 -10.302307 36.85565 -14.480316" fill-rule="evenodd"></path><path stroke="#000000" stroke-width="2.0" stroke-linejoin="round" stroke-linecap="butt" d="m254.521 197.35695c10.102295 0 15.139618 -13.379761 22.706024 -20.073486c9.886078 -8.745834 24.33493 -10.302307 36.85565 -14.480316" fill-rule="evenodd"></path><path fill="#000000" fill-opacity="0.0" d="m204.17455 249.51443c-3.4925995 10.455536 -17.785324 14.327881 -22.37796 24.34909c-4.9641266 10.831787 -8.088715 22.435364 -11.3517 33.89502" fill-rule="evenodd"></path><path stroke="#000000" stroke-width="2.0" stroke-linejoin="round" stroke-linecap="butt" d="m204.17455 249.51443c-3.4925995 10.455536 -17.785324 14.327881 -22.37796 24.34909c-4.9641266 10.831787 -8.088715 22.435364 -11.3517 33.89502" fill-rule="evenodd"></path><path fill="#000000" fill-opacity="0.0" d="m131.28477 245.5643c0 10.74411 13.739212 16.523071 20.732285 24.67978c9.290924 10.836945 11.899658 26.00122 19.083984 38.335968" fill-rule="evenodd"></path><path stroke="#000000" stroke-width="2.0" stroke-linejoin="round" stroke-linecap="butt" d="m131.28477 245.5643c0 10.74411 13.739212 16.523071 20.732285 24.67978c9.290924 10.836945 11.899658 26.00122 19.083984 38.335968" fill-rule="evenodd"></path><path fill="#000000" fill-opacity="0.0" d="m74.68635 128.08661c-8.942955 1.4914856 -13.502731 12.13504 -20.73228 17.606308c-10.7924385 8.167618 -24.600664 11.644775 -37.677162 15.136475" fill-rule="evenodd"></path><path stroke="#000000" stroke-width="2.0" stroke-linejoin="round" stroke-linecap="butt" d="m74.68635 128.08661c-8.942955 1.4914856 -13.502731 12.13504 -20.73228 17.606308c-10.7924385 8.167618 -24.600664 11.644775 -37.677162 15.136475" fill-rule="evenodd"></path><path fill="#000000" fill-opacity="0.0" d="m15.618111 161.98163c10.243637 3.554596 21.058495 5.880005 30.603676 11.023621c11.41024 6.148651 16.86943 20.69838 28.464561 26.490814" fill-rule="evenodd"></path><path stroke="#000000" stroke-width="2.0" stroke-linejoin="round" stroke-linecap="butt" d="m15.618111 161.98163c10.243637 3.554596 21.058495 5.880005 30.603676 11.023621c11.41024 6.148651 16.86943 20.69838 28.464561 26.490814" fill-rule="evenodd"></path><path fill="#000000" fill-opacity="0.0" d="m211.08267 157.37534c10.132141 -0.32844543 23.603622 1.2507172 29.616806 -6.9107666c19.67836 -26.708778 16.429184 -65.45716 34.2231 -93.456696" fill-rule="evenodd"></path><path stroke="#000000" stroke-width="2.0" stroke-linejoin="round" stroke-linecap="butt" d="m211.08267 157.37534c10.132141 -0.32844543 23.603622 1.2507172 29.616806 -6.9107666c19.67836 -26.708778 16.429184 -65.45716 34.2231 -93.456696" fill-rule="evenodd"></path><path fill="#000000" fill-opacity="0.0" d="m150.53412 198.83727c0 19.501587 -6.365555 44.076126 -23.362206 53.637802c-7.0803986 3.9831543 -16.290497 -1.9941864 -24.3517 -0.98687744c-14.071526 1.7583618 -28.140388 5.1776733 -41.13386 10.858276" fill-rule="evenodd"></path><path stroke="#000000" stroke-width="2.0" stroke-linejoin="round" stroke-linecap="butt" d="m150.53412 198.83727c0 19.501587 -6.365555 44.076126 -23.362206 53.637802c-7.0803986 3.9831543 -16.290497 -1.9941864 -24.3517 -0.98687744c-14.071526 1.7583618 -28.140388 5.1776733 -41.13386 10.858276" fill-rule="evenodd"></path><path fill="#000000" fill-opacity="0.0" d="m123.88058 169.22002c-7.8976364 0 -16.20082 -2.4982452 -23.69291 0c-15.932472 5.3127136 -22.599358 25.786102 -28.627304 41.461945c-6.0737457 15.794983 2.3906097 42.36325 -13.162727 49.03151" fill-rule="evenodd"></path><path stroke="#000000" stroke-width="2.0" stroke-linejoin="round" stroke-linecap="butt" d="m123.88058 169.22002c-7.8976364 0 -16.20082 -2.4982452 -23.69291 0c-15.932472 5.3127136 -22.599358 25.786102 -28.627304 41.461945c-6.0737457 15.794983 2.3906097 42.36325 -13.162727 49.03151" fill-rule="evenodd"></path><path fill="#000000" fill-opacity="0.0" d="m153.49738 122.16535c0 -19.30832 -16.784485 -41.155823 -35.54068 -45.740158c-18.444176 -4.5080643 -39.88118 -6.6475754 -53.30709 -20.073486" fill-rule="evenodd"></path><path stroke="#000000" stroke-width="2.0" stroke-linejoin="round" stroke-linecap="butt" d="m153.49738 122.16535c0 -19.30832 -16.784485 -41.155823 -35.54068 -45.740158c-18.444176 -4.5080643 -39.88118 -6.6475754 -53.30709 -20.073486" fill-rule="evenodd"></path><path fill="#000000" fill-opacity="0.0" d="m124.53937 155.07086c-17.859978 0 -40.866386 -8.38031 -47.385826 -25.007874c-8.591087 -21.911224 -0.024215698 -50.532692 -14.480312 -69.10498" fill-rule="evenodd"></path><path stroke="#000000" stroke-width="2.0" stroke-linejoin="round" stroke-linecap="butt" d="m124.53937 155.07086c-17.859978 0 -40.866386 -8.38031 -47.385826 -25.007874c-8.591087 -21.911224 -0.024215698 -50.532692 -14.480312 -69.10498" fill-rule="evenodd"></path><path fill="#000000" fill-opacity="0.0" d="m176.85957 202.78477c0 15.973724 4.4712067 36.953445 18.75853 44.097122c13.110825 6.5554047 29.238953 2.3238373 43.76642 4.2782135c11.380707 1.5310364 20.988922 9.342239 31.259827 14.477676" fill-rule="evenodd"></path><path stroke="#000000" stroke-width="2.0" stroke-linejoin="round" stroke-linecap="butt" d="m176.85957 202.78477c0 15.973724 4.4712067 36.953445 18.75853 44.097122c13.110825 6.5554047 29.238953 2.3238373 43.76642 4.2782135c11.380707 1.5310364 20.988922 9.342239 31.259827 14.477676" fill-rule="evenodd"></path><path fill="#000000" fill-opacity="0.0" d="m208.78084 176.13127c16.842789 -1.0495148 38.464447 6.9990234 45.41208 22.37796c9.335495 20.664612 5.83815 46.623505 18.42781 65.482925" fill-rule="evenodd"></path><path stroke="#000000" stroke-width="2.0" stroke-linejoin="round" stroke-linecap="butt" d="m208.78084 176.13127c16.842789 -1.0495148 38.464447 6.9990234 45.41208 22.37796c9.335495 20.664612 5.83815 46.623505 18.42781 65.482925" fill-rule="evenodd"></path><path fill="#000000" fill-opacity="0.0" d="m156.78844 123.48076c-19.930573 0 -38.383553 31.385971 -32.249344 50.349075c6.2014465 19.170975 33.860092 38.348114 52.320206 30.272964c19.408813 -8.490143 37.240097 -34.449417 31.921265 -54.955383c-5.1261444 -19.763077 -36.098145 -31.665146 -55.61418 -25.666656" fill-rule="evenodd"></path><path stroke="#000000" stroke-width="2.0" stroke-linejoin="round" stroke-linecap="butt" d="m156.78844 123.48076c-19.930573 0 -38.383553 31.385971 -32.249344 50.349075c6.2014465 19.170975 33.860092 38.348114 52.320206 30.272964c19.408813 -8.490143 37.240097 -34.449417 31.921265 -54.955383c-5.1261444 -19.763077 -36.098145 -31.665146 -55.61418 -25.666656" fill-rule="evenodd"></path></g></svg>

