<?xml version="1.0" standalone="yes"?>

<svg version="1.1" viewBox="0.0 0.0 221.13385826771653 321.1706036745407" fill="none" stroke="none" stroke-linecap="square" stroke-miterlimit="10" xmlns="http://www.w3.org/2000/svg" xmlns:xlink="http://www.w3.org/1999/xlink"><clipPath id="p.0"><path d="m0 0l221.13387 0l0 321.1706l-221.13387 0l0 -321.1706z" clip-rule="nonzero"></path></clipPath><g clip-path="url(#p.0)"><path fill="#000000" fill-opacity="0.0" d="m0 0l221.13387 0l0 321.1706l-221.13387 0z" fill-rule="nonzero"></path><path fill="#cc0000" d="m15.875328 95.41207l0 0c0 -45.4526 38.45416 -82.29921 85.88976 -82.29921c47.435608 0 85.88977 36.84661 85.88977 82.29921l-41.149612 0l0 0c0 -22.726295 -20.030853 -41.149605 -44.740158 -41.149605c-24.709305 0 -44.740158 18.42331 -44.740158 41.149605z" fill-rule="nonzero"></path><path fill="#cc0000" d="m15.795267 94.91183l31.811022 -24.440948l90.708664 118.07874l-31.811028 24.440948z" fill-rule="nonzero"></path><path fill="#cc0000" d="m98.21916 187.55165l40.094482 0l0 49.85826l-40.094482 0z" fill-rule="nonzero"></path><path fill="#cc0000" d="m93.93964 279.41995l0 0c0 -13.767975 10.716957 -24.929138 23.937004 -24.929138l0 0c6.348488 0 12.436958 2.6264648 16.926018 7.3015747c4.4890594 4.67511 7.0109863 11.01593 7.0109863 17.627563l0 0c0 13.767975 -10.716965 24.929138 -23.937004 24.929138l0 0c-13.220047 0 -23.937004 -11.161163 -23.937004 -24.929138z" fill-rule="nonzero"></path><path fill="#000000" fill-opacity="0.0" d="m111.71787 254.84776c-11.77343 7.354355 -20.743042 27.460342 -13.598427 39.362198c6.373131 10.616699 25.726753 15.285614 36.14174 8.587952c10.050812 -6.463501 11.177963 -27.959412 2.1469727 -35.78479c-7.18544 -6.2261963 -17.619423 -7.199463 -26.123352 -11.451447" fill-rule="evenodd"></path><path stroke="#000000" stroke-width="2.0" stroke-linejoin="round" stroke-linecap="butt" d="m111.71787 254.84776c-11.77343 7.354355 -20.743042 27.460342 -13.598427 39.362198c6.373131 10.616699 25.726753 15.285614 36.14174 8.587952c10.050812 -6.463501 11.177963 -27.959412 2.1469727 -35.78479c-7.18544 -6.2261963 -17.619423 -7.199463 -26.123352 -11.451447" fill-rule="evenodd"></path><path fill="#000000" fill-opacity="0.0" d="m15.875405 92.55532c0 2.266838 -0.08128834 -4.535141 0 -6.8005295c0.2802477 -7.8101044 3.5382147 -15.287239 6.4409437 -22.543304c8.631756 -21.57713 29.987206 -39.484875 52.246723 -46.162727c22.02282 -6.606846 48.849106 -5.5027742 68.70866 6.08399c24.299591 14.177238 44.732285 43.43658 44.732285 71.56955" fill-rule="evenodd"></path><path stroke="#000000" stroke-width="2.0" stroke-linejoin="round" stroke-linecap="butt" d="m15.875405 92.55532c0 2.266838 -0.08128834 -4.535141 0 -6.8005295c0.2802477 -7.8101044 3.5382147 -15.287239 6.4409437 -22.543304c8.631756 -21.57713 29.987206 -39.484875 52.246723 -46.162727c22.02282 -6.606846 48.849106 -5.5027742 68.70866 6.08399c24.299591 14.177238 44.732285 43.43658 44.732285 71.56955" fill-rule="evenodd"></path><path fill="#000000" fill-opacity="0.0" d="m97.47769 239.19948c13.611511 0 27.183762 -1.7900238 40.795273 -1.7900238" fill-rule="evenodd"></path><path stroke="#000000" stroke-width="2.0" stroke-linejoin="round" stroke-linecap="butt" d="m97.47769 239.19948c13.611511 0 27.183762 -1.7900238 40.795273 -1.7900238" fill-rule="evenodd"></path><path fill="#000000" fill-opacity="0.0" d="m188.22572 94.44095c-14.260269 0 -28.519257 0.33070374 -42.779526 0.33070374" fill-rule="evenodd"></path><path stroke="#000000" stroke-width="2.0" stroke-linejoin="round" stroke-linecap="butt" d="m188.22572 94.44095c-14.260269 0 -28.519257 0.33070374 -42.779526 0.33070374" fill-rule="evenodd"></path><path fill="#000000" fill-opacity="0.0" d="m59.56168 85.227905c1.3422127 -20.197601 32.45876 -38.321957 51.66142 -31.918636c16.964493 5.656975 35.2126 22.592243 35.2126 40.475063" fill-rule="evenodd"></path><path stroke="#000000" stroke-width="2.0" stroke-linejoin="round" stroke-linecap="butt" d="m59.56168 85.227905c1.3422127 -20.197601 32.45876 -38.321957 51.66142 -31.918636c16.964493 5.656975 35.2126 22.592243 35.2126 40.475063" fill-rule="evenodd"></path><path fill="#000000" fill-opacity="0.0" d="m15.136483 93.45407c18.98146 23.930855 40.413612 46.1613 56.598427 72.06561c7.7338943 12.378342 24.445175 19.912231 27.314957 34.2231c2.5234375 12.58371 0.32808685 25.667068 0.32808685 38.501312" fill-rule="evenodd"></path><path stroke="#000000" stroke-width="2.0" stroke-linejoin="round" stroke-linecap="butt" d="m15.136483 93.45407c18.98146 23.930855 40.413612 46.1613 56.598427 72.06561c7.7338943 12.378342 24.445175 19.912231 27.314957 34.2231c2.5234375 12.58371 0.32808685 25.667068 0.32808685 38.501312" fill-rule="evenodd"></path><path fill="#000000" fill-opacity="0.0" d="m138.20735 240.54855c0 -18.220108 8.958313 -40.048584 -1.9737549 -54.624664c-25.220634 -33.627518 -59.796303 -61.72721 -76.343834 -100.36746" fill-rule="evenodd"></path><path stroke="#000000" stroke-width="2.0" stroke-linejoin="round" stroke-linecap="butt" d="m138.20735 240.54855c0 -18.220108 8.958313 -40.048584 -1.9737549 -54.624664c-25.220634 -33.627518 -59.796303 -61.72721 -76.343834 -100.36746" fill-rule="evenodd"></path></g></svg>

