<?xml version="1.0" standalone="yes"?>

<svg version="1.1" viewBox="0.0 0.0 216.14435695538057 342.1076115485564" fill="none" stroke="none" stroke-linecap="square" stroke-miterlimit="10" xmlns="http://www.w3.org/2000/svg" xmlns:xlink="http://www.w3.org/1999/xlink"><clipPath id="p.0"><path d="m0 0l216.14436 0l0 342.1076l-216.14436 0l0 -342.1076z" clip-rule="nonzero"></path></clipPath><g clip-path="url(#p.0)"><path fill="#000000" fill-opacity="0.0" d="m0 0l216.14436 0l0 342.1076l-216.14436 0z" fill-rule="nonzero"></path><path fill="#cc0000" d="m25.090551 98.04462l0 0c0 -45.4526 38.454155 -82.29921 85.88976 -82.29921c47.435608 0 85.889755 36.84661 85.889755 82.29921l-41.149597 0l0 0c0 -22.726295 -20.030853 -41.149605 -44.740158 -41.149605c-24.709305 0 -44.740158 18.42331 -44.740158 41.149605z" fill-rule="nonzero"></path><path fill="#cc0000" d="m164.30202 73.859436l32.566925 23.40158l-86.89764 120.913376l-32.566933 -23.401566z" fill-rule="nonzero"></path><path fill="#cc0000" d="m78.61024 192.4086l40.09449 0l0 49.858276l-40.09449 0z" fill-rule="nonzero"></path><path fill="#cc0000" d="m73.51575 286.87927l0 0c0 -13.767975 10.716965 -24.929138 23.937012 -24.929138l0 0c6.348488 0 12.436958 2.6264648 16.926018 7.3015747c4.4890594 4.67511 7.0109863 11.01593 7.0109863 17.627563l0 0c0 13.767975 -10.716965 24.929138 -23.937004 24.929138l0 0c-13.220047 0 -23.937012 -11.161163 -23.937012 -24.929138z" fill-rule="nonzero"></path><path fill="#000000" fill-opacity="0.0" d="m25.090551 97.69292c13.9583 0 28.099478 3.005806 41.868767 0.71652985" fill-rule="evenodd"></path><path stroke="#000000" stroke-width="2.0" stroke-linejoin="round" stroke-linecap="butt" d="m25.090551 97.69292c13.9583 0 28.099478 3.005806 41.868767 0.71652985" fill-rule="evenodd"></path><path fill="#000000" fill-opacity="0.0" d="m77.33727 239.76115c13.611504 0 27.183762 -1.7900238 40.795273 -1.7900238" fill-rule="evenodd"></path><path stroke="#000000" stroke-width="2.0" stroke-linejoin="round" stroke-linecap="butt" d="m77.33727 239.76115c13.611504 0 27.183762 -1.7900238 40.795273 -1.7900238" fill-rule="evenodd"></path><path fill="#000000" fill-opacity="0.0" d="m91.29399 262.3071c-11.77343 7.3543396 -20.743042 27.460327 -13.598427 39.362183c6.373123 10.616699 25.726753 15.285614 36.14173 8.587952c10.050812 -6.463501 11.177971 -27.959412 2.1469803 -35.78479c-7.1854324 -6.2261963 -17.619423 -7.199463 -26.12336 -11.451447" fill-rule="evenodd"></path><path stroke="#000000" stroke-width="2.0" stroke-linejoin="round" stroke-linecap="butt" d="m91.29399 262.3071c-11.77343 7.3543396 -20.743042 27.460327 -13.598427 39.362183c6.373123 10.616699 25.726753 15.285614 36.14173 8.587952c10.050812 -6.463501 11.177971 -27.959412 2.1469803 -35.78479c-7.1854324 -6.2261963 -17.619423 -7.199463 -26.12336 -11.451447" fill-rule="evenodd"></path><path fill="#000000" fill-opacity="0.0" d="m25.090628 95.18787c0 2.266838 -0.081287384 -4.535141 0 -6.8005295c0.28024864 -7.8101044 3.5382156 -15.287239 6.4409447 -22.543304c8.631758 -21.57713 29.987207 -39.484875 52.24672 -46.162727c22.02282 -6.606845 48.849106 -5.5027733 68.708664 6.08399c24.299591 14.177238 44.732285 43.43658 44.732285 71.56955" fill-rule="evenodd"></path><path stroke="#000000" stroke-width="2.0" stroke-linejoin="round" stroke-linecap="butt" d="m25.090628 95.18787c0 2.266838 -0.081287384 -4.535141 0 -6.8005295c0.28024864 -7.8101044 3.5382156 -15.287239 6.4409447 -22.543304c8.631758 -21.57713 29.987207 -39.484875 52.24672 -46.162727c22.02282 -6.606845 48.849106 -5.5027733 68.708664 6.08399c24.299591 14.177238 44.732285 43.43658 44.732285 71.56955" fill-rule="evenodd"></path><path fill="#000000" fill-opacity="0.0" d="m198.29326 97.33596c-16.843994 10.635582 -24.273224 31.59591 -36.14435 47.593178c-8.437439 11.370071 -19.278015 20.951965 -26.837265 32.923874c-4.5859833 7.2630157 -5.4270782 17.15593 -11.811028 22.902893c-2.3421402 2.1084442 -6.8992233 1.7947845 -8.230972 4.6509247c-4.440544 9.523407 0.122673035 21.065033 1.4330673 31.490814" fill-rule="evenodd"></path><path stroke="#000000" stroke-width="2.0" stroke-linejoin="round" stroke-linecap="butt" d="m198.29326 97.33596c-16.843994 10.635582 -24.273224 31.59591 -36.14435 47.593178c-8.437439 11.370071 -19.278015 20.951965 -26.837265 32.923874c-4.5859833 7.2630157 -5.4270782 17.15593 -11.811028 22.902893c-2.3421402 2.1084442 -6.8992233 1.7947845 -8.230972 4.6509247c-4.440544 9.523407 0.122673035 21.065033 1.4330673 31.490814" fill-rule="evenodd"></path><path fill="#000000" fill-opacity="0.0" d="m66.24541 98.40949c0 -14.194847 6.4914474 -33.338364 20.039368 -37.574806c22.980705 -7.186081 63.91864 3.3064194 66.91864 27.196854" fill-rule="evenodd"></path><path stroke="#000000" stroke-width="2.0" stroke-linejoin="round" stroke-linecap="butt" d="m66.24541 98.40949c0 -14.194847 6.4914474 -33.338364 20.039368 -37.574806c22.980705 -7.186081 63.91864 3.3064194 66.91864 27.196854" fill-rule="evenodd"></path><path fill="#000000" fill-opacity="0.0" d="m79.12828 242.26509c0 -16.341644 -3.7676163 -33.21106 0.35695648 -49.02362c5.379074 -20.621979 27.330444 -32.76033 39.721786 -50.09973c12.314629 -17.232056 19.020836 -38.703255 33.997383 -53.679794" fill-rule="evenodd"></path><path stroke="#000000" stroke-width="2.0" stroke-linejoin="round" stroke-linecap="butt" d="m79.12828 242.26509c0 -16.341644 -3.7676163 -33.21106 0.35695648 -49.02362c5.379074 -20.621979 27.330444 -32.76033 39.721786 -50.09973c12.314629 -17.232056 19.020836 -38.703255 33.997383 -53.679794" fill-rule="evenodd"></path></g></svg>

