<?xml version="1.0" standalone="yes"?>

<svg version="1.1" viewBox="0.0 0.0 402.1994750656168 392.12598425196853" fill="none" stroke="none" stroke-linecap="square" stroke-miterlimit="10" xmlns="http://www.w3.org/2000/svg" xmlns:xlink="http://www.w3.org/1999/xlink"><clipPath id="p.0"><path d="m0 0l402.19946 0l0 392.12598l-402.19946 0l0 -392.12598z" clip-rule="nonzero"></path></clipPath><g clip-path="url(#p.0)"><path fill="#000000" fill-opacity="0.0" d="m0 0l402.19946 0l0 392.12598l-402.19946 0z" fill-rule="nonzero"></path><path fill="#ffe599" d="m147.41208 107.937004l89.51181 0l0 194.80313l-89.51181 0z" fill-rule="nonzero"></path><path fill="#ffe599" d="m131.61679 53.968502l0 0c0 -29.80598 27.109695 -53.968502 60.551193 -53.968502l0 0c33.441483 -1.4685595E-14 60.551178 24.162521 60.551178 53.968502l0 0c0 29.80598 -27.109695 53.968502 -60.551178 53.968502l0 0c-33.441498 0 -60.551193 -24.162521 -60.551193 -53.968502z" fill-rule="nonzero"></path><path fill="#ffe599" d="m224.27658 113.93837l104.28345 -61.54331l11.370087 19.275593l-104.28346 61.543304z" fill-rule="nonzero"></path><path fill="#ffe599" d="m91.12838 161.85255l55.527565 -51.811028l15.244095 16.377953l-55.527565 51.81102z" fill-rule="nonzero"></path><path fill="#d9ead3" d="m0 243.51443l49.133415 -63.181107l296.5993 0l49.133423 63.181107z" fill-rule="nonzero"></path><path fill="#cfe2f3" d="m1.7480315 243.51181l394.86615 0l0 9.70079l-394.86615 0z" fill-rule="nonzero"></path><path fill="#d0e0e3" d="m41.23622 254.04199l10.519684 0l0 131.62204l-10.519684 0z" fill-rule="nonzero"></path><path fill="#d0e0e3" d="m345.4987 254.04199l10.519684 0l0 131.62204l-10.519684 0z" fill-rule="nonzero"></path><path fill="#ffe599" d="m107.86817 147.60216l53.259834 54.14174l-15.968506 15.653534l-53.259834 -54.141724z" fill-rule="nonzero"></path><path fill="#000000" fill-opacity="0.0" d="m167.59898 110.56956c-29.839096 0 -65.15249 23.70443 -72.396324 52.650917c-1.8140182 7.2488556 8.26355 12.966965 14.480316 17.112854c12.946518 8.633881 15.824997 29.75772 30.272972 35.538055c8.971588 3.5893555 26.699356 -9.784988 22.377945 -18.42781c-7.909958 -15.819916 -34.70182 -19.512451 -38.173225 -36.85565c-2.1321259 -10.65213 18.940575 -13.387634 22.377953 -23.692902" fill-rule="evenodd"></path><path stroke="#000000" stroke-width="2.0" stroke-linejoin="round" stroke-linecap="butt" d="m167.59898 110.56956c-29.839096 0 -65.15249 23.70443 -72.396324 52.650917c-1.8140182 7.2488556 8.26355 12.966965 14.480316 17.112854c12.946518 8.633881 15.824997 29.75772 30.272972 35.538055c8.971588 3.5893555 26.699356 -9.784988 22.377945 -18.42781c-7.909958 -15.819916 -34.70182 -19.512451 -38.173225 -36.85565c-2.1321259 -10.65213 18.940575 -13.387634 22.377953 -23.692902" fill-rule="evenodd"></path><path fill="#000000" fill-opacity="0.0" d="m233.41231 106.62134c26.448654 -14.69825 52.278214 -30.513306 78.976395 -44.75328c7.345337 -3.917778 17.806335 -13.784191 23.692902 -7.89764c8.473663 8.4736595 -3.7619019 27.546299 -14.480316 32.905514c-28.475006 14.237495 -60.404938 24.881844 -82.92389 47.385834c-10.880325 10.873093 -2.6325378 30.688858 -2.6325378 46.07086" fill-rule="evenodd"></path><path stroke="#000000" stroke-width="2.0" stroke-linejoin="round" stroke-linecap="butt" d="m233.41231 106.62134c26.448654 -14.69825 52.278214 -30.513306 78.976395 -44.75328c7.345337 -3.917778 17.806335 -13.784191 23.692902 -7.89764c8.473663 8.4736595 -3.7619019 27.546299 -14.480316 32.905514c-28.475006 14.237495 -60.404938 24.881844 -82.92389 47.385834c-10.880325 10.873093 -2.6325378 30.688858 -2.6325378 46.07086" fill-rule="evenodd"></path><path fill="#000000" fill-opacity="0.0" d="m143.90552 142.15909c0 -12.316513 6.5250397 25.170395 2.6325378 36.855637" fill-rule="evenodd"></path><path stroke="#000000" stroke-width="3.0" stroke-linejoin="round" stroke-linecap="butt" d="m143.90552 142.15909c0 -12.316513 6.5250397 25.170395 2.6325378 36.855637" fill-rule="evenodd"></path><path fill="#000000" fill-opacity="0.0" d="m234.72684 106.62151c-7.4713135 0 -17.092316 6.597969 -22.375336 1.3149567c-3.7356567 -3.7356567 6.3042755 -8.67466 10.530182 -11.845146c18.387848 -13.795456 31.415894 -40.505714 27.640427 -63.1811c-4.8768005 -29.290012 -54.84601 -33.152576 -84.24147 -28.958006c-29.806152 4.253172 -33.91255 55.858803 -28.958008 85.556435c2.3902893 14.327438 26.49881 24.928986 39.48819 18.427818" fill-rule="evenodd"></path><path stroke="#000000" stroke-width="2.0" stroke-linejoin="round" stroke-linecap="butt" d="m234.72684 106.62151c-7.4713135 0 -17.092316 6.597969 -22.375336 1.3149567c-3.7356567 -3.7356567 6.3042755 -8.67466 10.530182 -11.845146c18.387848 -13.795456 31.415894 -40.505714 27.640427 -63.1811c-4.8768005 -29.290012 -54.84601 -33.152576 -84.24147 -28.958006c-29.806152 4.253172 -33.91255 55.858803 -28.958008 85.556435c2.3902893 14.327438 26.49881 24.928986 39.48819 18.427818" fill-rule="evenodd"></path><path fill="#000000" fill-opacity="0.0" d="m150.48434 256.67715c0 12.285217 2.0177155 24.737274 0 36.85565c-0.72421265 4.34964 -3.0318146 12.437103 1.3175812 13.16272c14.235382 2.374939 40.803146 -0.048187256 40.803146 -14.480316c0 -5.2650757 0.65242004 -10.57074 0 -15.795258c-0.33068848 -2.6482239 -1.3149567 -10.566437 -1.3149567 -7.897644c0 12.29303 -5.502411 26.62619 1.3149567 36.85565c7.3159027 10.977478 26.689377 0.56396484 39.48819 -2.6325684c15.8415985 -3.9564514 5.265091 -32.37259 5.265091 -48.700775" fill-rule="evenodd"></path><path stroke="#000000" stroke-width="2.0" stroke-linejoin="round" stroke-linecap="butt" d="m150.48434 256.67715c0 12.285217 2.0177155 24.737274 0 36.85565c-0.72421265 4.34964 -3.0318146 12.437103 1.3175812 13.16272c14.235382 2.374939 40.803146 -0.048187256 40.803146 -14.480316c0 -5.2650757 0.65242004 -10.57074 0 -15.795258c-0.33068848 -2.6482239 -1.3149567 -10.566437 -1.3149567 -7.897644c0 12.29303 -5.502411 26.62619 1.3149567 36.85565c7.3159027 10.977478 26.689377 0.56396484 39.48819 -2.6325684c15.8415985 -3.9564514 5.265091 -32.37259 5.265091 -48.700775" fill-rule="evenodd"></path><path fill="#d0e0e3" d="m78.26247 254.04462l-10.519684 0l0 56.503937l10.519684 0z" fill-rule="nonzero"></path><path fill="#d0e0e3" d="m322.43832 254.04462l-10.519684 0l0 56.503937l10.519684 0z" fill-rule="nonzero"></path><path fill="#b4a7d6" d="m311.91864 201.22179l0 0c0 1.7264252 5.5982056 3.1259766 12.503937 3.1259766c6.905731 0 12.503937 -1.3995514 12.503937 -3.1259766l0 21.401566c0 1.7264404 -5.5982056 3.1259918 -12.503937 3.1259918c-6.905731 0 -12.503937 -1.3995514 -12.503937 -3.1259918z" fill-rule="nonzero"></path><path fill="#d2cae6" d="m311.91864 201.22179l0 0c0 -1.7264404 5.5982056 -3.1259918 12.503937 -3.1259918c6.905731 0 12.503937 1.3995514 12.503937 3.1259918l0 0c0 1.7264252 -5.5982056 3.1259766 -12.503937 3.1259766c-6.905731 0 -12.503937 -1.3995514 -12.503937 -3.1259766z" fill-rule="nonzero"></path><path fill="#000000" fill-opacity="0.0" d="m336.9265 201.22179l0 0c0 1.7264252 -5.5982056 3.1259766 -12.503937 3.1259766c-6.905731 0 -12.503937 -1.3995514 -12.503937 -3.1259766l0 0c0 -1.7264404 5.5982056 -3.1259918 12.503937 -3.1259918c6.905731 0 12.503937 1.3995514 12.503937 3.1259918l0 21.401566c0 1.7264404 -5.5982056 3.1259918 -12.503937 3.1259918c-6.905731 0 -12.503937 -1.3995514 -12.503937 -3.1259918l0 -21.401566" fill-rule="nonzero"></path><path fill="#f6b26b" d="m67.74319 188.81407l8.482697 -6.2215424l27.106049 40.514877l-5.0896225 3.7329254z" fill-rule="nonzero"></path><path fill="#f6b26b" d="m60.42599 204.48798l6.7717857 -8.050262l35.91426 32.95996l-4.0630646 4.8301544z" fill-rule="nonzero"></path><path fill="#f6b26b" d="m82.41161 191.2499l3.9833832 9.736343l-45.871002 16.49376l-2.39003 -5.841797z" fill-rule="nonzero"></path><path fill="#f6b26b" d="m47.601013 233.76158l-4.626091 -9.447922l44.664246 -19.526855l2.77565 5.668747z" fill-rule="nonzero"></path><path fill="#6fa8dc" d="m241.0 223.70341l0 0c0 -5.6707 7.0717926 -10.267715 15.795288 -10.267715l0 0c8.72348 0 15.795258 4.5970154 15.795258 10.267715l0 0c0 5.6707 -7.0717773 10.267715 -15.795258 10.267715l0 0c-8.7234955 0 -15.795288 -4.5970154 -15.795288 -10.267715z" fill-rule="nonzero"></path><path fill="#3d85c6" d="m232.91864 211.92258l0 0c0 -5.6707153 7.0717773 -10.267715 15.795273 -10.267715l0 0c8.7234955 0 15.795273 4.597 15.795273 10.267715l0 0c0 5.6707 -7.0717773 10.267715 -15.795273 10.267715l0 0c-8.7234955 0 -15.795273 -4.5970154 -15.795273 -10.267715z" fill-rule="nonzero"></path><path fill="#76a5af" d="m258.62598 211.92258l0 0c0 -5.6707153 7.071808 -10.267715 15.795288 -10.267715l0 0c8.72348 0 15.795258 4.597 15.795258 10.267715l0 0c0 5.6707 -7.0717773 10.267715 -15.795258 10.267715l0 0c-8.72348 0 -15.795288 -4.5970154 -15.795288 -10.267715z" fill-rule="nonzero"></path><path fill="#76a5af" d="m251.4672 193.6273l0 0c0 -5.6707153 7.0717773 -10.267731 15.795288 -10.267731l0 0c8.72348 0 15.795258 4.5970154 15.795258 10.267731l0 0c0 5.6707 -7.0717773 10.267715 -15.795258 10.267715l0 0c-8.723511 0 -15.795288 -4.5970154 -15.795288 -10.267715z" fill-rule="nonzero"></path><path fill="#76a5af" d="m232.91864 196.78609l0 0c0 -5.6707 7.0717773 -10.267715 15.795273 -10.267715l0 0c8.7234955 0 15.795273 4.5970154 15.795273 10.267715l0 0c0 5.6707 -7.0717773 10.267715 -15.795273 10.267715l0 0c-8.7234955 0 -15.795273 -4.5970154 -15.795273 -10.267715z" fill-rule="nonzero"></path><path fill="#76a5af" d="m220.72835 211.92258l0 0c0 -5.6707153 7.0717773 -10.267715 15.795273 -10.267715l0 0c8.7234955 0 15.795273 4.597 15.795273 10.267715l0 0c0 5.6707 -7.0717773 10.267715 -15.795273 10.267715l0 0c-8.7234955 0 -15.795273 -4.5970154 -15.795273 -10.267715z" fill-rule="nonzero"></path><path fill="#e06666" d="m159.03937 223.27034c4.1076202 -8.965881 20.127304 0 0 11.527557c-20.127289 -11.527557 -4.107605 -20.493439 0 -11.527557z" fill-rule="nonzero"></path><path stroke="#000000" stroke-width="1.0" stroke-linejoin="round" stroke-linecap="butt" d="m159.03937 223.27034c4.1076202 -8.965881 20.127304 0 0 11.527557c-20.127289 -11.527557 -4.107605 -20.493439 0 -11.527557z" fill-rule="nonzero"></path><path fill="#e06666" d="m167.32784 212.56203c-0.020996094 -9.858261 18.262466 -8.423874 4.8188934 10.464569c-23.08136 -2.04068 -12.293961 -16.884506 -4.8188934 -10.464569z" fill-rule="nonzero"></path><path stroke="#000000" stroke-width="1.0" stroke-linejoin="round" stroke-linecap="butt" d="m167.32784 212.56203c-0.020996094 -9.858261 18.262466 -8.423874 4.8188934 10.464569c-23.08136 -2.04068 -12.293961 -16.884506 -4.8188934 -10.464569z" fill-rule="nonzero"></path><path fill="#e06666" d="m129.52731 226.56465c-0.020996094 -9.858261 18.262466 -8.423874 4.8188934 10.464569c-23.08136 -2.04068 -12.293961 -16.884506 -4.8188934 -10.464569z" fill-rule="nonzero"></path><path stroke="#000000" stroke-width="1.0" stroke-linejoin="round" stroke-linecap="butt" d="m129.52731 226.56465c-0.020996094 -9.858261 18.262466 -8.423874 4.8188934 10.464569c-23.08136 -2.04068 -12.293961 -16.884506 -4.8188934 -10.464569z" fill-rule="nonzero"></path><path fill="#b4a7d6" d="m332.43307 196.86812l0 0c0 2.5744324 8.347961 4.6614227 18.64566 4.6614227c10.2977295 0 18.64566 -2.0869904 18.64566 -4.6614227l0 30.110245c0 2.574417 -8.347931 4.6614075 -18.64566 4.6614075c-10.297699 0 -18.64566 -2.0869904 -18.64566 -4.6614075z" fill-rule="nonzero"></path><path fill="#d2cae6" d="m332.43307 196.86812l0 0c0 -2.5744324 8.347961 -4.6614227 18.64566 -4.6614227c10.2977295 0 18.64566 2.0869904 18.64566 4.6614227l0 0c0 2.5744324 -8.347931 4.6614227 -18.64566 4.6614227c-10.297699 0 -18.64566 -2.0869904 -18.64566 -4.6614227z" fill-rule="nonzero"></path><path fill="#000000" fill-opacity="0.0" d="m369.7244 196.86812l0 0c0 2.5744324 -8.347931 4.6614227 -18.64566 4.6614227c-10.297699 0 -18.64566 -2.0869904 -18.64566 -4.6614227l0 0c0 -2.5744324 8.347961 -4.6614227 18.64566 -4.6614227c10.2977295 0 18.64566 2.0869904 18.64566 4.6614227l0 30.110245c0 2.574417 -8.347931 4.6614075 -18.64566 4.6614075c-10.297699 0 -18.64566 -2.0869904 -18.64566 -4.6614075l0 -30.110245" fill-rule="nonzero"></path><path fill="#000000" fill-opacity="0.0" d="m71.50879 186.91315c-8.382019 -8.382019 -31.859634 -20.529556 -22.375328 -27.640427c9.638969 -7.226822 7.6955147 30.272964 19.742783 30.272964" fill-rule="evenodd"></path><path stroke="#6aa84f" stroke-width="4.0" stroke-linejoin="round" stroke-linecap="butt" d="m71.50879 186.91315c-8.382019 -8.382019 -31.859634 -20.529556 -22.375328 -27.640427c9.638969 -7.226822 7.6955147 30.272964 19.742783 30.272964" fill-rule="evenodd"></path><path fill="#000000" fill-opacity="0.0" d="m41.23497 214.55652c-3.5100594 0 -8.048195 -2.4819946 -10.530184 0c-1.3874741 1.3874664 0.87786484 6.1432953 2.6325474 5.265091c3.37574 -1.6895599 -5.5532036 -7.4990997 -9.215223 -6.5826874c-4.7589073 1.190918 -9.081396 9.304474 -13.16273 6.5826874c-1.8615866 -1.2414703 -2.8971672 -5.000473 -1.3149614 -6.5826874c7.854561 -7.854553 22.968214 0.30140686 32.90551 5.265091" fill-rule="evenodd"></path><path stroke="#6aa84f" stroke-width="4.0" stroke-linejoin="round" stroke-linecap="butt" d="m41.23497 214.55652c-3.5100594 0 -8.048195 -2.4819946 -10.530184 0c-1.3874741 1.3874664 0.87786484 6.1432953 2.6325474 5.265091c3.37574 -1.6895599 -5.5532036 -7.4990997 -9.215223 -6.5826874c-4.7589073 1.190918 -9.081396 9.304474 -13.16273 6.5826874c-1.8615866 -1.2414703 -2.8971672 -5.000473 -1.3149614 -6.5826874c7.854561 -7.854553 22.968214 0.30140686 32.90551 5.265091" fill-rule="evenodd"></path><path fill="#000000" fill-opacity="0.0" d="m49.13475 229.03445c-10.101379 0 -20.174213 -1.3149719 -30.27559 -1.3149719c-3.7229824 0 -11.509674 6.995529 -7.8976383 7.897644c12.18969 3.0443878 25.620205 -13.52095 36.855644 -7.897644" fill-rule="evenodd"></path><path stroke="#6aa84f" stroke-width="4.0" stroke-linejoin="round" stroke-linecap="butt" d="m49.13475 229.03445c-10.101379 0 -20.174213 -1.3149719 -30.27559 -1.3149719c-3.7229824 0 -11.509674 6.995529 -7.8976383 7.897644c12.18969 3.0443878 25.620205 -13.52095 36.855644 -7.897644" fill-rule="evenodd"></path><path fill="#000000" fill-opacity="0.0" d="m64.93018 201.3936c-9.009823 -3.3798065 -18.65218 -19.521057 -11.847771 -26.32547c7.830059 -7.8300476 7.3544426 27.640427 18.427818 27.640427" fill-rule="evenodd"></path><path stroke="#6aa84f" stroke-width="4.0" stroke-linejoin="round" stroke-linecap="butt" d="m64.93018 201.3936c-9.009823 -3.3798065 -18.65218 -19.521057 -11.847771 -26.32547c7.830059 -7.8300476 7.3544426 27.640427 18.427818 27.640427" fill-rule="evenodd"></path><path fill="#000000" d="m213.48032 49.30971l0 0c0 -2.6787987 0.8813324 -4.850395 1.9685059 -4.850395l0 0c0.52207947 0 1.0227661 0.5110245 1.3919373 1.4206505c0.36917114 0.9096222 0.5765686 2.143341 0.5765686 3.4297447l0 0c0 2.6787987 -0.8813324 4.850395 -1.9685059 4.850395l0 0c-1.0871735 0 -1.9685059 -2.1715965 -1.9685059 -4.850395z" fill-rule="nonzero"></path><path stroke="#000000" stroke-width="1.0" stroke-linejoin="round" stroke-linecap="butt" d="m213.48032 49.30971l0 0c0 -2.6787987 0.8813324 -4.850395 1.9685059 -4.850395l0 0c0.52207947 0 1.0227661 0.5110245 1.3919373 1.4206505c0.36917114 0.9096222 0.5765686 2.143341 0.5765686 3.4297447l0 0c0 2.6787987 -0.8813324 4.850395 -1.9685059 4.850395l0 0c-1.0871735 0 -1.9685059 -2.1715965 -1.9685059 -4.850395z" fill-rule="nonzero"></path><path fill="#000000" d="m165.5538 48.29134l0 0c0 -2.6787987 2.3549194 -4.850395 5.259842 -4.850395l0 0c2.9049377 0 5.259842 2.1715965 5.259842 4.850395l0 0c0 2.6787987 -2.3549042 4.8503914 -5.259842 4.8503914l0 0c-2.9049225 0 -5.259842 -2.1715927 -5.259842 -4.8503914z" fill-rule="nonzero"></path><path stroke="#000000" stroke-width="1.0" stroke-linejoin="round" stroke-linecap="butt" d="m165.5538 48.29134l0 0c0 -2.6787987 2.3549194 -4.850395 5.259842 -4.850395l0 0c2.9049377 0 5.259842 2.1715965 5.259842 4.850395l0 0c0 2.6787987 -2.3549042 4.8503914 -5.259842 4.8503914l0 0c-2.9049225 0 -5.259842 -2.1715927 -5.259842 -4.8503914z" fill-rule="nonzero"></path><path fill="#000000" fill-opacity="0.0" d="m233.69933 200.721c-5.2407684 0 -11.494064 6.2816772 -10.753281 11.469818c0.6558533 4.593384 7.3202057 5.8110657 11.469818 7.8871307c3.8531342 1.9277496 16.75911 -1.2102661 12.905502 0.7165375c-3.1774597 1.5887299 -10.127029 5.9147644 -7.1706085 7.8845215c7.4009857 4.930969 18.57135 6.8473816 26.524933 2.8687592c3.9289246 -1.9653625 1.9120178 -9.079987 5.0183716 -12.186356c3.2805786 -3.2805634 11.54538 1.28125 13.619446 -2.8687592c1.8284607 -3.6586456 2.9520874 -8.388779 1.4330444 -12.186356c-1.1535645 -2.8839722 -9.04007 -0.5103607 -8.601044 -3.5852966c0.58984375 -4.1310577 6.1244507 -9.579239 2.86615 -12.186356c-12.744843 -10.197739 -58.137573 3.5133514 -46.595795 15.055115" fill-rule="evenodd"></path><path stroke="#000000" stroke-width="1.0" stroke-linejoin="round" stroke-linecap="butt" d="m233.69933 200.721c-5.2407684 0 -11.494064 6.2816772 -10.753281 11.469818c0.6558533 4.593384 7.3202057 5.8110657 11.469818 7.8871307c3.8531342 1.9277496 16.75911 -1.2102661 12.905502 0.7165375c-3.1774597 1.5887299 -10.127029 5.9147644 -7.1706085 7.8845215c7.4009857 4.930969 18.57135 6.8473816 26.524933 2.8687592c3.9289246 -1.9653625 1.9120178 -9.079987 5.0183716 -12.186356c3.2805786 -3.2805634 11.54538 1.28125 13.619446 -2.8687592c1.8284607 -3.6586456 2.9520874 -8.388779 1.4330444 -12.186356c-1.1535645 -2.8839722 -9.04007 -0.5103607 -8.601044 -3.5852966c0.58984375 -4.1310577 6.1244507 -9.579239 2.86615 -12.186356c-12.744843 -10.197739 -58.137573 3.5133514 -46.595795 15.055115" fill-rule="evenodd"></path><path fill="#000000" fill-opacity="0.0" d="m235.13124 201.43832c6.294693 5.036682 16.744568 9.163864 23.658798 5.0183716c5.832672 -3.497055 0.34661865 -19.35434 -6.4540863 -19.35434" fill-rule="evenodd"></path><path stroke="#000000" stroke-width="1.0" stroke-linejoin="round" stroke-linecap="butt" d="m235.13124 201.43832c6.294693 5.036682 16.744568 9.163864 23.658798 5.0183716c5.832672 -3.497055 0.34661865 -19.35434 -6.4540863 -19.35434" fill-rule="evenodd"></path><path fill="#000000" fill-opacity="0.0" d="m278.86172 200.72179c-7.499237 0 -20.586456 4.0724945 -19.35431 11.469818c1.0679626 6.4117126 12.471283 7.7904053 18.637787 5.734909" fill-rule="evenodd"></path><path stroke="#000000" stroke-width="1.0" stroke-linejoin="round" stroke-linecap="butt" d="m278.86172 200.72179c-7.499237 0 -20.586456 4.0724945 -19.35431 11.469818c1.0679626 6.4117126 12.471283 7.7904053 18.637787 5.734909" fill-rule="evenodd"></path><path fill="#000000" fill-opacity="0.0" d="m250.9029 206.4567c1.1420135 4.5722504 -2.5959778 11.04335 -7.167984 12.186356" fill-rule="evenodd"></path><path stroke="#000000" stroke-width="1.0" stroke-linejoin="round" stroke-linecap="butt" d="m250.9029 206.4567c1.1420135 4.5722504 -2.5959778 11.04335 -7.167984 12.186356" fill-rule="evenodd"></path><path fill="#000000" fill-opacity="0.0" d="m242.30183 218.64305c7.650284 0 15.51738 1.1373291 22.939621 -0.7165375" fill-rule="evenodd"></path><path stroke="#000000" stroke-width="1.0" stroke-linejoin="round" stroke-linecap="butt" d="m242.30183 218.64305c7.650284 0 15.51738 1.1373291 22.939621 -0.7165375" fill-rule="evenodd"></path><path fill="#000000" fill-opacity="0.0" d="m350.54745 191.40338c-6.434723 0 -17.72763 -1.3512573 -18.640411 5.0183716c-0.7647705 5.3366394 10.413422 2.987564 15.771637 3.5826874c7.779541 0.8640442 26.96463 1.6948395 22.939636 -5.0183716c-4.3856506 -7.3147583 -16.998169 -7.7154083 -25.089233 -5.0183716" fill-rule="evenodd"></path><path stroke="#000000" stroke-width="1.0" stroke-linejoin="round" stroke-linecap="butt" d="m350.54745 191.40338c-6.434723 0 -17.72763 -1.3512573 -18.640411 5.0183716c-0.7647705 5.3366394 10.413422 2.987564 15.771637 3.5826874c7.779541 0.8640442 26.96463 1.6948395 22.939636 -5.0183716c-4.3856506 -7.3147583 -16.998169 -7.7154083 -25.089233 -5.0183716" fill-rule="evenodd"></path><path fill="#000000" fill-opacity="0.0" d="m369.9029 200.72179c0 9.083633 3.5890198 18.623978 0.7165222 27.24147" fill-rule="evenodd"></path><path stroke="#000000" stroke-width="1.0" stroke-linejoin="round" stroke-linecap="butt" d="m369.9029 200.72179c0 9.083633 3.5890198 18.623978 0.7165222 27.24147" fill-rule="evenodd"></path><path fill="#000000" fill-opacity="0.0" d="m332.6267 197.13911c0 9.570099 -6.2196655 22.927979 1.4330444 28.67453c10.516418 7.896942 30.119965 10.723923 39.427826 1.433075" fill-rule="evenodd"></path><path stroke="#000000" stroke-width="1.0" stroke-linejoin="round" stroke-linecap="butt" d="m332.6267 197.13911c0 9.570099 -6.2196655 22.927979 1.4330444 28.67453c10.516418 7.896942 30.119965 10.723923 39.427826 1.433075" fill-rule="evenodd"></path><path fill="#000000" fill-opacity="0.0" d="m311.12112 202.87401c0 8.127747 -3.7351074 16.826294 -0.7165222 24.372711c2.9339294 7.3348236 16.160797 1.0623322 23.656158 -1.433075" fill-rule="evenodd"></path><path stroke="#000000" stroke-width="1.0" stroke-linejoin="round" stroke-linecap="butt" d="m311.12112 202.87401c0 8.127747 -3.7351074 16.826294 -0.7165222 24.372711c2.9339294 7.3348236 16.160797 1.0623322 23.656158 -1.433075" fill-rule="evenodd"></path><path fill="#000000" fill-opacity="0.0" d="m311.12073 203.59003c6.6945496 0 14.329224 4.1589966 20.070862 0.7165375c2.2912903 -1.373764 5.9750977 -5.973816 3.5853271 -7.167984c-7.1662903 -3.5809479 -20.406311 -0.43206787 -22.939636 7.167984" fill-rule="evenodd"></path><path stroke="#000000" stroke-width="1.0" stroke-linejoin="round" stroke-linecap="butt" d="m311.12073 203.59003c6.6945496 0 14.329224 4.1589966 20.070862 0.7165375c2.2912903 -1.373764 5.9750977 -5.973816 3.5853271 -7.167984c-7.1662903 -3.5809479 -20.406311 -0.43206787 -22.939636 7.167984" fill-rule="evenodd"></path><path fill="#000000" fill-opacity="0.0" d="m49.464493 232.26576c11.91901 -5.3000336 22.743721 -12.801376 34.409447 -18.637802c2.907051 -1.4544067 7.7657547 -5.349045 5.734909 -7.8871307c-3.1917114 -3.988922 -10.272171 1.0737915 -15.055115 2.8687592c-9.805336 3.6798096 -23.272015 4.969696 -27.958008 14.335968c-1.6905785 3.3790894 6.4514465 5.541794 6.4514465 9.320206" fill-rule="evenodd"></path><path stroke="#000000" stroke-width="1.0" stroke-linejoin="round" stroke-linecap="butt" d="m49.464493 232.26576c11.91901 -5.3000336 22.743721 -12.801376 34.409447 -18.637802c2.907051 -1.4544067 7.7657547 -5.349045 5.734909 -7.8871307c-3.1917114 -3.988922 -10.272171 1.0737915 -15.055115 2.8687592c-9.805336 3.6798096 -23.272015 4.969696 -27.958008 14.335968c-1.6905785 3.3790894 6.4514465 5.541794 6.4514465 9.320206" fill-rule="evenodd"></path><path fill="#000000" fill-opacity="0.0" d="m70.25197 187.8189c12.000862 -1.9989166 21.963226 14.265839 25.808395 25.80841c1.1327133 3.4001923 8.601791 5.733917 6.4514465 8.601044c-4.8704453 6.493927 -13.052238 -9.993195 -17.921257 -16.48819c-4.7903595 -6.3900604 -15.055122 -10.651535 -15.055122 -18.637802" fill-rule="evenodd"></path><path stroke="#000000" stroke-width="1.0" stroke-linejoin="round" stroke-linecap="butt" d="m70.25197 187.8189c12.000862 -1.9989166 21.963226 14.265839 25.808395 25.80841c1.1327133 3.4001923 8.601791 5.733917 6.4514465 8.601044c-4.8704453 6.493927 -13.052238 -9.993195 -17.921257 -16.48819c-4.7903595 -6.3900604 -15.055122 -10.651535 -15.055122 -18.637802" fill-rule="evenodd"></path><path fill="#000000" fill-opacity="0.0" d="m38.711285 212.1916c11.456654 -3.8165588 20.80547 -12.656967 32.25722 -16.48819" fill-rule="evenodd"></path><path stroke="#000000" stroke-width="1.0" stroke-linejoin="round" stroke-linecap="butt" d="m38.711285 212.1916c11.456654 -3.8165588 20.80547 -12.656967 32.25722 -16.48819" fill-rule="evenodd"></path><path fill="#000000" fill-opacity="0.0" d="m40.860893 214.34383c8.655766 -1.926239 17.394913 -3.65036 25.808395 -6.4514313" fill-rule="evenodd"></path><path stroke="#000000" stroke-width="1.0" stroke-linejoin="round" stroke-linecap="butt" d="m40.860893 214.34383c8.655766 -1.926239 17.394913 -3.65036 25.808395 -6.4514313" fill-rule="evenodd"></path><path fill="#000000" fill-opacity="0.0" d="m62.367455 201.43832c3.1663437 2.5335388 6.351631 5.229553 8.601051 8.603668" fill-rule="evenodd"></path><path stroke="#000000" stroke-width="1.0" stroke-linejoin="round" stroke-linecap="butt" d="m62.367455 201.43832c3.1663437 2.5335388 6.351631 5.229553 8.601051 8.603668" fill-rule="evenodd"></path><path fill="#000000" fill-opacity="0.0" d="m78.13911 216.49344c6.9786835 4.18721 11.570717 11.735428 18.637794 15.771652c1.7727585 1.0124817 4.510002 3.7828217 5.734909 2.1496124c5.583847 -7.4451294 -12.057167 -14.206787 -18.637794 -20.7874" fill-rule="evenodd"></path><path stroke="#000000" stroke-width="1.0" stroke-linejoin="round" stroke-linecap="butt" d="m78.13911 216.49344c6.9786835 4.18721 11.570717 11.735428 18.637794 15.771652c1.7727585 1.0124817 4.510002 3.7828217 5.734909 2.1496124c5.583847 -7.4451294 -12.057167 -14.206787 -18.637794 -20.7874" fill-rule="evenodd"></path><path fill="#000000" fill-opacity="0.0" d="m78.855644 205.74016c-3.490059 -2.0924988 -7.062973 -4.498657 -9.320213 -7.8845215" fill-rule="evenodd"></path><path stroke="#000000" stroke-width="1.0" stroke-linejoin="round" stroke-linecap="butt" d="m78.855644 205.74016c-3.490059 -2.0924988 -7.062973 -4.498657 -9.320213 -7.8845215" fill-rule="evenodd"></path><path fill="#000000" fill-opacity="0.0" d="m2.8687663 243.73491c1.786757 -8.043686 7.609978 -14.654556 12.186352 -21.506561" fill-rule="evenodd"></path><path stroke="#000000" stroke-width="1.0" stroke-linejoin="round" stroke-linecap="butt" d="m2.8687663 243.73491c1.786757 -8.043686 7.609978 -14.654556 12.186352 -21.506561" fill-rule="evenodd"></path><path fill="#000000" fill-opacity="0.0" d="m24.372704 209.32545c6.2387905 -10.139099 12.317715 -21.354416 22.223099 -27.958008" fill-rule="evenodd"></path><path stroke="#000000" stroke-width="1.0" stroke-linejoin="round" stroke-linecap="butt" d="m24.372704 209.32545c6.2387905 -10.139099 12.317715 -21.354416 22.223099 -27.958008" fill-rule="evenodd"></path><path fill="#000000" fill-opacity="0.0" d="m61.650917 179.21675c15.787048 0 36.149208 -9.013519 47.31234 2.1496124" fill-rule="evenodd"></path><path stroke="#000000" stroke-width="1.0" stroke-linejoin="round" stroke-linecap="butt" d="m61.650917 179.21675c15.787048 0 36.149208 -9.013519 47.31234 2.1496124" fill-rule="evenodd"></path><path fill="#000000" fill-opacity="0.0" d="m145.52493 179.21822c44.923645 0 89.84538 0.7165375 134.76904 0.7165375c17.204712 0 34.409424 0 51.614166 0c6.6954346 0 15.78717 -4.4270325 20.073486 0.7165375c2.4714966 2.965805 1.5719604 8.023407 4.3018494 10.753281" fill-rule="evenodd"></path><path stroke="#000000" stroke-width="1.0" stroke-linejoin="round" stroke-linecap="butt" d="m145.52493 179.21822c44.923645 0 89.84538 0.7165375 134.76904 0.7165375c17.204712 0 34.409424 0 51.614166 0c6.6954346 0 15.78717 -4.4270325 20.073486 0.7165375c2.4714966 2.965805 1.5719604 8.023407 4.3018494 10.753281" fill-rule="evenodd"></path><path fill="#000000" fill-opacity="0.0" d="m40.860893 256.6378c0 43.25705 2.1522293 86.49625 2.1522293 129.7533" fill-rule="evenodd"></path><path stroke="#000000" stroke-width="1.0" stroke-linejoin="round" stroke-linecap="butt" d="m40.860893 256.6378c0 43.25705 2.1522293 86.49625 2.1522293 129.7533" fill-rule="evenodd"></path><path fill="#000000" fill-opacity="0.0" d="m43.013123 386.39108c3.3447075 0 6.8610535 1.0576782 10.034122 0" fill-rule="evenodd"></path><path stroke="#000000" stroke-width="1.0" stroke-linejoin="round" stroke-linecap="butt" d="m43.013123 386.39108c3.3447075 0 6.8610535 1.0576782 10.034122 0" fill-rule="evenodd"></path><path fill="#000000" fill-opacity="0.0" d="m53.047245 386.39108c-2.254589 -45.116547 -2.8661423 -90.31537 -2.8661423 -135.48819" fill-rule="evenodd"></path><path stroke="#000000" stroke-width="1.0" stroke-linejoin="round" stroke-linecap="butt" d="m53.047245 386.39108c-2.254589 -45.116547 -2.8661423 -90.31537 -2.8661423 -135.48819" fill-rule="evenodd"></path><path fill="#000000" fill-opacity="0.0" d="m68.8189 255.92126c0 18.162537 -0.7165375 36.320374 -0.7165375 54.48294" fill-rule="evenodd"></path><path stroke="#000000" stroke-width="1.0" stroke-linejoin="round" stroke-linecap="butt" d="m68.8189 255.92126c0 18.162537 -0.7165375 36.320374 -0.7165375 54.48294" fill-rule="evenodd"></path><path fill="#000000" fill-opacity="0.0" d="m68.10236 311.83728c3.379509 0 7.644882 0.95440674 10.036743 -1.433075" fill-rule="evenodd"></path><path stroke="#000000" stroke-width="1.0" stroke-linejoin="round" stroke-linecap="butt" d="m68.10236 311.83728c3.379509 0 7.644882 0.95440674 10.036743 -1.433075" fill-rule="evenodd"></path><path fill="#000000" fill-opacity="0.0" d="m78.139626 312.5538c-1.5569458 -20.251709 -4.9220123 -41.228302 0 -60.934387" fill-rule="evenodd"></path><path stroke="#000000" stroke-width="1.0" stroke-linejoin="round" stroke-linecap="butt" d="m78.139626 312.5538c-1.5569458 -20.251709 -4.9220123 -41.228302 0 -60.934387" fill-rule="evenodd"></path><path fill="#000000" fill-opacity="0.0" d="m313.27036 311.83728c0 -18.401398 2.8897095 -37.154938 -0.71655273 -55.199493" fill-rule="evenodd"></path><path stroke="#000000" stroke-width="1.0" stroke-linejoin="round" stroke-linecap="butt" d="m313.27036 311.83728c0 -18.401398 2.8897095 -37.154938 -0.71655273 -55.199493" fill-rule="evenodd"></path><path fill="#000000" fill-opacity="0.0" d="m313.27036 311.83728c2.639862 0 5.2472534 -0.71655273 7.8871155 -0.71655273" fill-rule="evenodd"></path><path stroke="#000000" stroke-width="1.0" stroke-linejoin="round" stroke-linecap="butt" d="m313.27036 311.83728c2.639862 0 5.2472534 -0.71655273 7.8871155 -0.71655273" fill-rule="evenodd"></path><path fill="#000000" fill-opacity="0.0" d="m321.87402 254.48819c0 18.883575 -1.4356995 37.748962 -1.4356995 56.632538" fill-rule="evenodd"></path><path stroke="#000000" stroke-width="1.0" stroke-linejoin="round" stroke-linecap="butt" d="m321.87402 254.48819c0 18.883575 -1.4356995 37.748962 -1.4356995 56.632538" fill-rule="evenodd"></path><path fill="#000000" fill-opacity="0.0" d="m344.0971 255.92126c0 43.253723 1.433075 86.49954 1.433075 129.75327" fill-rule="evenodd"></path><path stroke="#000000" stroke-width="1.0" stroke-linejoin="round" stroke-linecap="butt" d="m344.0971 255.92126c0 43.253723 1.433075 86.49954 1.433075 129.75327" fill-rule="evenodd"></path><path fill="#000000" fill-opacity="0.0" d="m359.1496 385.67453c-4.784607 0 -9.796875 0.7965088 -14.3359375 -0.7165222" fill-rule="evenodd"></path><path stroke="#000000" stroke-width="1.0" stroke-linejoin="round" stroke-linecap="butt" d="m359.1496 385.67453c-4.784607 0 -9.796875 0.7965088 -14.3359375 -0.7165222" fill-rule="evenodd"></path><path fill="#000000" fill-opacity="0.0" d="m357.71774 384.958c-5.107849 -43.435364 -2.1495972 -87.45169 -2.1495972 -131.18636" fill-rule="evenodd"></path><path stroke="#000000" stroke-width="1.0" stroke-linejoin="round" stroke-linecap="butt" d="m357.71774 384.958c-5.107849 -43.435364 -2.1495972 -87.45169 -2.1495972 -131.18636" fill-rule="evenodd"></path><path fill="#000000" fill-opacity="0.0" d="m372.0525 212.90814c2.9989624 14.950943 29.197418 24.24504 24.375336 38.711273" fill-rule="evenodd"></path><path stroke="#000000" stroke-width="1.0" stroke-linejoin="round" stroke-linecap="butt" d="m372.0525 212.90814c2.9989624 14.950943 29.197418 24.24504 24.375336 38.711273" fill-rule="evenodd"></path><path fill="#000000" fill-opacity="0.0" d="m1.4324832 244.45145c0 3.4216309 -1.094214 8.955917 2.152231 10.036743" fill-rule="evenodd"></path><path stroke="#000000" stroke-width="1.0" stroke-linejoin="round" stroke-linecap="butt" d="m1.4324832 244.45145c0 3.4216309 -1.094214 8.955917 2.152231 10.036743" fill-rule="evenodd"></path><path fill="#000000" fill-opacity="0.0" d="m1.4330709 254.48819c132.86 0 265.7174 -1.433075 398.57742 -1.433075" fill-rule="evenodd"></path><path stroke="#000000" stroke-width="1.0" stroke-linejoin="round" stroke-linecap="butt" d="m1.4330709 254.48819c132.86 0 265.7174 -1.433075 398.57742 -1.433075" fill-rule="evenodd"></path><path fill="#000000" fill-opacity="0.0" d="m0.71653545 245.16798c131.6381 0 263.24548 -5.0183716 394.8836 -5.0183716" fill-rule="evenodd"></path><path stroke="#000000" stroke-width="1.0" stroke-linejoin="round" stroke-linecap="butt" d="m0.71653545 245.16798c131.6381 0 263.24548 -5.0183716 394.8836 -5.0183716" fill-rule="evenodd"></path></g></svg>

