<?xml version="1.0" standalone="yes"?>

<svg version="1.1" viewBox="0.0 0.0 264.0 252.0" fill="none" stroke="none" stroke-linecap="square" stroke-miterlimit="10" xmlns="http://www.w3.org/2000/svg" xmlns:xlink="http://www.w3.org/1999/xlink"><clipPath id="p.0"><path d="m0 0l264.0 0l0 252.0l-264.0 0l0 -252.0z" clip-rule="nonzero"></path></clipPath><g clip-path="url(#p.0)"><path fill="#000000" fill-opacity="0.0" d="m0 0l264.0 0l0 252.0l-264.0 0z" fill-rule="nonzero"></path><path fill="#ff9900" d="m160.12491 53.678272l31.83931 0l0 63.641468l-31.83931 0z" fill-rule="nonzero"></path><path fill="#ff9900" d="m150.07262 35.179867l0 0c0 -10.216389 11.6280365 -18.498407 25.971954 -18.498407l0 0c14.343903 0 25.97194 8.282019 25.97194 18.498407l0 0c0 10.216385 -11.6280365 18.498405 -25.97194 18.498405l0 0c-14.343918 0 -25.971954 -8.282021 -25.971954 -18.498405z" fill-rule="nonzero"></path><path fill="#000000" fill-opacity="0.0" d="m151.46027 32.97841c3.0594482 -13.826456 39.646454 -17.594006 46.483124 -4.9198723c3.061203 5.67498 4.2018127 14.553619 -0.83769226 18.925507c-3.6704712 3.1842346 -16.75119 2.6269112 -13.609863 6.244087c2.0261078 2.3330154 7.594589 -1.9710045 9.8420105 0.19007874c11.95079 11.491665 -0.63090515 31.539257 -0.63090515 47.310596c0 6.265808 -1.8616486 17.034225 -8.794006 17.034225" fill-rule="evenodd"></path><path stroke="#000000" stroke-width="2.0" stroke-linejoin="round" stroke-linecap="butt" d="m151.46027 32.97841c3.0594482 -13.826456 39.646454 -17.594006 46.483124 -4.9198723c3.061203 5.67498 4.2018127 14.553619 -0.83769226 18.925507c-3.6704712 3.1842346 -16.75119 2.6269112 -13.609863 6.244087c2.0261078 2.3330154 7.594589 -1.9710045 9.8420105 0.19007874c11.95079 11.491665 -0.63090515 31.539257 -0.63090515 47.310596c0 6.265808 -1.8616486 17.034225 -8.794006 17.034225" fill-rule="evenodd"></path><path fill="#6d9eeb" d="m193.33914 95.236176l34.94362 0l0 53.271347l-34.94362 0z" fill-rule="nonzero"></path><path fill="#6d9eeb" d="m182.30673 79.75201l0 0c0 -8.551666 12.76178 -15.484161 28.504211 -15.484161l0 0c15.742447 0 28.504227 6.932495 28.504227 15.484161l0 0c0 8.551674 -12.76178 15.484169 -28.504227 15.484169l0 0c-15.742432 0 -28.504211 -6.932495 -28.504211 -15.484169z" fill-rule="nonzero"></path><path fill="#93c47d" d="m127.58835 93.06643l24.891968 0l0 63.641457l-24.891968 0z" fill-rule="nonzero"></path><path fill="#93c47d" d="m119.72946 74.56802l0 0c0 -10.2163925 9.090805 -18.49841 20.30487 -18.49841l0 0c11.214066 0 20.30487 8.282017 20.30487 18.49841l0 0c0 10.216385 -9.090805 18.498405 -20.30487 18.498405l0 0c-11.214066 0 -20.30487 -8.282021 -20.30487 -18.498405z" fill-rule="nonzero"></path><path fill="#93c47d" d="m25.165066 115.11504l31.839302 0l0 69.64486l-31.839302 0z" fill-rule="nonzero"></path><path fill="#93c47d" d="m15.112764 94.87166l0 0c0 -11.180115 11.628038 -20.243385 25.971952 -20.243385l0 0c14.343914 0 25.971954 9.063271 25.971954 20.243385l0 0c0 11.180115 -11.62804 20.243385 -25.971954 20.243385l0 0c-14.343914 0 -25.971952 -9.063271 -25.971952 -20.243385z" fill-rule="nonzero"></path><path fill="#ffd966" d="m74.913956 56.72902l24.891968 0l0 49.071762l-24.891968 0z" fill-rule="nonzero"></path><path fill="#ffd966" d="m67.05507 42.46553l0 0c0 -7.8775063 9.090797 -14.263489 20.30487 -14.263489l0 0c11.214066 0 20.30487 6.3859825 20.30487 14.263489l0 0c0 7.8775063 -9.090805 14.263489 -20.30487 14.263489l0 0c-11.214073 0 -20.30487 -6.3859825 -20.30487 -14.263489z" fill-rule="nonzero"></path><path fill="#93c47d" d="m156.31007 185.23044l19.759476 0l0 49.071762l-19.759476 0z" fill-rule="nonzero"></path><path fill="#93c47d" d="m150.07161 170.96695l0 0c0 -7.8775024 7.2163696 -14.263489 16.118195 -14.263489l0 0c8.90184 0 16.118195 6.3859863 16.118195 14.263489l0 0c0 7.8775177 -7.2163544 14.263489 -16.118195 14.263489l0 0c-8.901825 0 -16.118195 -6.385971 -16.118195 -14.263489z" fill-rule="nonzero"></path><path fill="#ff9900" d="m86.61099 163.13211l31.839302 0l0 69.64485l-31.839302 0z" fill-rule="nonzero"></path><path fill="#ff9900" d="m76.558685 142.88872l0 0c0 -11.180115 11.628044 -20.243385 25.971954 -20.243385l0 0c14.343918 0 25.971954 9.063271 25.971954 20.243385l0 0c0 11.180115 -11.6280365 20.243393 -25.971954 20.243393l0 0c-14.34391 0 -25.971954 -9.063278 -25.971954 -20.243393z" fill-rule="nonzero"></path><path fill="#ffd966" d="m206.99678 155.62082l31.839294 0l0 69.64485l-31.839294 0z" fill-rule="nonzero"></path><path fill="#ffd966" d="m196.94447 135.37744l0 0c0 -11.180115 11.6280365 -20.243385 25.971954 -20.243385l0 0c14.343918 0 25.971954 9.063271 25.971954 20.243385l0 0c0 11.180115 -11.6280365 20.243378 -25.971954 20.243378l0 0c-14.343918 0 -25.971954 -9.063263 -25.971954 -20.243378z" fill-rule="nonzero"></path><path fill="#6d9eeb" d="m50.561115 185.23044l19.759472 0l0 49.071762l-19.759472 0z" fill-rule="nonzero"></path><path fill="#6d9eeb" d="m44.322655 170.96695l0 0c0 -7.8775024 7.216362 -14.263489 16.118195 -14.263489l0 0c8.901833 0 16.118195 6.3859863 16.118195 14.263489l0 0c0 7.8775177 -7.216362 14.263489 -16.118195 14.263489l0 0c-8.901833 0 -16.118195 -6.385971 -16.118195 -14.263489z" fill-rule="nonzero"></path><path fill="#000000" fill-opacity="0.0" d="m84.038826 27.111757c-8.517853 2.4351444 -19.01818 11.921354 -15.912643 19.492575c2.0109634 4.902672 15.183517 5.5744705 12.982475 10.409981c-6.5718994 14.437904 -10.944298 31.694962 -5.653549 46.556618c1.2048111 3.3843002 7.0235825 -3.223793 10.676193 -4.542885c3.9587097 -1.4296265 5.621849 7.9263077 9.842003 7.3813934c6.3622665 -0.8215027 3.1690674 -11.419411 2.9301682 -17.224304c-0.3815689 -9.271637 4.619484 -19.119652 1.0479889 -27.81802c-1.233551 -3.0043144 -10.167145 -2.8098412 -8.58371 -5.677021c3.2847977 -5.947891 17.010735 -7.920437 15.285248 -14.382622c-2.2805023 -8.540787 -14.522751 -12.727907 -23.868958 -15.1429405" fill-rule="evenodd"></path><path stroke="#000000" stroke-width="2.0" stroke-linejoin="round" stroke-linecap="butt" d="m84.038826 27.111757c-8.517853 2.4351444 -19.01818 11.921354 -15.912643 19.492575c2.0109634 4.902672 15.183517 5.5744705 12.982475 10.409981c-6.5718994 14.437904 -10.944298 31.694962 -5.653549 46.556618c1.2048111 3.3843002 7.0235825 -3.223793 10.676193 -4.542885c3.9587097 -1.4296265 5.621849 7.9263077 9.842003 7.3813934c6.3622665 -0.8215027 3.1690674 -11.419411 2.9301682 -17.224304c-0.3815689 -9.271637 4.619484 -19.119652 1.0479889 -27.81802c-1.233551 -3.0043144 -10.167145 -2.8098412 -8.58371 -5.677021c3.2847977 -5.947891 17.010735 -7.920437 15.285248 -14.382622c-2.2805023 -8.540787 -14.522751 -12.727907 -23.868958 -15.1429405" fill-rule="evenodd"></path><path fill="#000000" fill-opacity="0.0" d="m57.237286 156.74979c-6.624218 2.4656982 -13.330299 9.482498 -12.351574 15.896927c0.73132324 4.792984 10.610825 6.339218 10.259094 11.167114c-1.2376709 16.988602 -17.486725 38.48398 -4.6055527 50.906265c3.579296 3.4517822 4.7320175 -9.252594 9.421406 -11.354034c4.631016 -2.0752869 4.0880013 13.476654 8.79401 11.544113c14.121002 -5.798828 2.0959854 -27.994934 2.0959854 -42.01375c0 -3.4489594 -11.144798 -7.948456 -7.32893 -7.948456c6.8562813 0 13.716152 -8.434677 12.772175 -14.572708c-1.153122 -7.4978943 -12.096848 -15.853668 -20.1011 -13.625473" fill-rule="evenodd"></path><path stroke="#000000" stroke-width="2.0" stroke-linejoin="round" stroke-linecap="butt" d="m57.237286 156.74979c-6.624218 2.4656982 -13.330299 9.482498 -12.351574 15.896927c0.73132324 4.792984 10.610825 6.339218 10.259094 11.167114c-1.2376709 16.988602 -17.486725 38.48398 -4.6055527 50.906265c3.579296 3.4517822 4.7320175 -9.252594 9.421406 -11.354034c4.631016 -2.0752869 4.0880013 13.476654 8.79401 11.544113c14.121002 -5.798828 2.0959854 -27.994934 2.0959854 -42.01375c0 -3.4489594 -11.144798 -7.948456 -7.32893 -7.948456c6.8562813 0 13.716152 -8.434677 12.772175 -14.572708c-1.153122 -7.4978943 -12.096848 -15.853668 -20.1011 -13.625473" fill-rule="evenodd"></path><path fill="#000000" fill-opacity="0.0" d="m166.11647 158.0715c-8.19873 0.41322327 -15.849442 10.890259 -14.240768 18.168365c0.97891235 4.4288635 13.8737335 5.02063 11.307098 8.895676c-9.34874 14.114563 -10.0733795 51.07361 7.956314 48.824905c17.906708 -2.2333832 0 -32.67665 0 -49.014984c0 -6.0804443 11.1892395 -9.684357 10.262604 -15.706833c-0.9981537 -6.487198 -11.56218 -15.1772 -17.591522 -11.544113" fill-rule="evenodd"></path><path stroke="#000000" stroke-width="2.0" stroke-linejoin="round" stroke-linecap="butt" d="m166.11647 158.0715c-8.19873 0.41322327 -15.849442 10.890259 -14.240768 18.168365c0.97891235 4.4288635 13.8737335 5.02063 11.307098 8.895676c-9.34874 14.114563 -10.0733795 51.07361 7.956314 48.824905c17.906708 -2.2333832 0 -32.67665 0 -49.014984c0 -6.0804443 11.1892395 -9.684357 10.262604 -15.706833c-0.9981537 -6.487198 -11.56218 -15.1772 -17.591522 -11.544113" fill-rule="evenodd"></path><path fill="#000000" fill-opacity="0.0" d="m86.34242 227.71829c1.5447617 -15.900223 -0.048690796 -31.931152 0.62739563 -47.880844c0.23033142 -5.4338837 -4.001404 -13.633789 1.2582855 -16.27391c2.6869736 -1.3487244 8.39006 3.0540314 9.211105 0.3769989c2.6027145 -8.486221 -18.21585 -11.114365 -19.263405 -19.869568c-1.3561554 -11.334412 15.894379 -23.302162 28.47802 -22.521164c11.010887 0.68338776 23.9301 12.963959 21.566177 22.708069c-2.1035461 8.670883 -19.71434 9.927811 -20.93879 18.735428c-0.57927704 4.1668243 11.724182 2.6147308 11.724182 6.814331c0 19.052109 -0.62739563 38.101395 -0.62739563 57.153503" fill-rule="evenodd"></path><path stroke="#000000" stroke-width="2.0" stroke-linejoin="round" stroke-linecap="butt" d="m86.34242 227.71829c1.5447617 -15.900223 -0.048690796 -31.931152 0.62739563 -47.880844c0.23033142 -5.4338837 -4.001404 -13.633789 1.2582855 -16.27391c2.6869736 -1.3487244 8.39006 3.0540314 9.211105 0.3769989c2.6027145 -8.486221 -18.21585 -11.114365 -19.263405 -19.869568c-1.3561554 -11.334412 15.894379 -23.302162 28.47802 -22.521164c11.010887 0.68338776 23.9301 12.963959 21.566177 22.708069c-2.1035461 8.670883 -19.71434 9.927811 -20.93879 18.735428c-0.57927704 4.1668243 11.724182 2.6147308 11.724182 6.814331c0 19.052109 -0.62739563 38.101395 -0.62739563 57.153503" fill-rule="evenodd"></path><path fill="#000000" fill-opacity="0.0" d="m85.713715 227.71822c0 4.461075 12.897011 6.061966 14.657852 1.8944397c0.9724426 -2.3015442 0.417099 -9.845047 0.417099 -7.381378c0 3.8103333 -2.085144 9.299332 1.4650803 11.354034c5.1554337 2.9837189 13.8515625 -2.8102722 16.12294 -7.948456" fill-rule="evenodd"></path><path stroke="#000000" stroke-width="2.0" stroke-linejoin="round" stroke-linecap="butt" d="m85.713715 227.71822c0 4.461075 12.897011 6.061966 14.657852 1.8944397c0.9724426 -2.3015442 0.417099 -9.845047 0.417099 -7.381378c0 3.8103333 -2.085144 9.299332 1.4650803 11.354034c5.1554337 2.9837189 13.8515625 -2.8102722 16.12294 -7.948456" fill-rule="evenodd"></path><path fill="#000000" fill-opacity="0.0" d="m153.34447 153.72137c0 -20.17514 -4.9102783 -40.106262 -7.1221313 -60.1821c-0.5349121 -4.8550644 10.921768 -4.7588043 12.355072 -9.462753c2.7486267 -9.020699 -0.24765015 -24.114002 -10.259094 -26.493809c-9.191788 -2.1849594 -23.078033 2.0983315 -26.175247 10.219898c-3.1421967 8.239555 7.184021 16.176498 10.889999 24.222374c1.3330536 2.8941345 -6.96653 4.0687103 -6.701538 7.194481c0.97675323 11.52137 0.7612915 23.106773 1.6753845 34.63234" fill-rule="evenodd"></path><path stroke="#000000" stroke-width="2.0" stroke-linejoin="round" stroke-linecap="butt" d="m153.34447 153.72137c0 -20.17514 -4.9102783 -40.106262 -7.1221313 -60.1821c-0.5349121 -4.8550644 10.921768 -4.7588043 12.355072 -9.462753c2.7486267 -9.020699 -0.24765015 -24.114002 -10.259094 -26.493809c-9.191788 -2.1849594 -23.078033 2.0983315 -26.175247 10.219898c-3.1421967 8.239555 7.184021 16.176498 10.889999 24.222374c1.3330536 2.8941345 -6.96653 4.0687103 -6.701538 7.194481c0.97675323 11.52137 0.7612915 23.106773 1.6753845 34.63234" fill-rule="evenodd"></path><path fill="#000000" fill-opacity="0.0" d="m128.00839 148.61009c0 3.976471 5.4537964 8.2331085 9.841995 7.948456" fill-rule="evenodd"></path><path stroke="#000000" stroke-width="2.0" stroke-linejoin="round" stroke-linecap="butt" d="m128.00839 148.61009c0 3.976471 5.4537964 8.2331085 9.841995 7.948456" fill-rule="evenodd"></path><path fill="#000000" fill-opacity="0.0" d="m138.47778 156.55855c0.38101196 -2.0681305 0.68270874 -4.1521606 0.83769226 -6.244095" fill-rule="evenodd"></path><path stroke="#000000" stroke-width="2.0" stroke-linejoin="round" stroke-linecap="butt" d="m138.47778 156.55855c0.38101196 -2.0681305 0.68270874 -4.1521606 0.83769226 -6.244095" fill-rule="evenodd"></path><path fill="#000000" fill-opacity="0.0" d="m139.73608 148.99025c0.53248596 4.3478546 10.122986 8.871399 13.189255 5.4869385" fill-rule="evenodd"></path><path stroke="#000000" stroke-width="2.0" stroke-linejoin="round" stroke-linecap="butt" d="m139.73608 148.99025c0.53248596 4.3478546 10.122986 8.871399 13.189255 5.4869385" fill-rule="evenodd"></path><path fill="#000000" fill-opacity="0.0" d="m160.87991 116.81625c0 -17.347855 0 -34.69571 0 -52.043564c0 -5.2497253 13.426636 -9.446602 9.421402 -13.248486c-6.365677 -6.0424957 -20.268448 -9.894215 -19.053116 -18.165192" fill-rule="evenodd"></path><path stroke="#000000" stroke-width="2.0" stroke-linejoin="round" stroke-linecap="butt" d="m160.87991 116.81625c0 -17.347855 0 -34.69571 0 -52.043564c0 -5.2497253 13.426636 -9.446602 9.421402 -13.248486c-6.365677 -6.0424957 -20.268448 -9.894215 -19.053116 -18.165192" fill-rule="evenodd"></path><path fill="#000000" fill-opacity="0.0" d="m183.70613 117.19737c-5.336075 -1.2864914 -1.555603 -17.128662 -5.8638306 -14.0056305c-3.8363647 2.7809677 1.7025299 10.018059 -1.6753845 13.248482c-3.1675415 3.0292282 -9.20871 0.56707 -13.820175 0.56707" fill-rule="evenodd"></path><path stroke="#000000" stroke-width="2.0" stroke-linejoin="round" stroke-linecap="butt" d="m183.70613 117.19737c-5.336075 -1.2864914 -1.555603 -17.128662 -5.8638306 -14.0056305c-3.8363647 2.7809677 1.7025299 10.018059 -1.6753845 13.248482c-3.1675415 3.0292282 -9.20871 0.56707 -13.820175 0.56707" fill-rule="evenodd"></path><path fill="#000000" fill-opacity="0.0" d="m201.71219 94.48531c-9.239395 0 -24.279343 -11.933075 -18.636017 -18.54535c9.305771 -10.903549 30.383865 -15.261066 44.390656 -9.842911c7.020874 2.7158432 10.827057 13.648575 7.118637 19.682655c-2.277771 3.7062073 -11.516037 4.6210327 -10.2591095 8.705605c2.123993 6.902153 5.0261536 13.842712 5.0261536 21.006874" fill-rule="evenodd"></path><path stroke="#000000" stroke-width="2.0" stroke-linejoin="round" stroke-linecap="butt" d="m201.71219 94.48531c-9.239395 0 -24.279343 -11.933075 -18.636017 -18.54535c9.305771 -10.903549 30.383865 -15.261066 44.390656 -9.842911c7.020874 2.7158432 10.827057 13.648575 7.118637 19.682655c-2.277771 3.7062073 -11.516037 4.6210327 -10.2591095 8.705605c2.123993 6.902153 5.0261536 13.842712 5.0261536 21.006874" fill-rule="evenodd"></path><path fill="#000000" fill-opacity="0.0" d="m204.85188 148.99019c-14.219147 0 -10.905716 -24.642235 -10.048798 -37.470848c0.37268066 -5.5791397 -0.940155 -16.416824 5.232956 -16.086998" fill-rule="evenodd"></path><path stroke="#000000" stroke-width="2.0" stroke-linejoin="round" stroke-linecap="butt" d="m204.85188 148.99019c-14.219147 0 -10.905716 -24.642235 -10.048798 -37.470848c0.37268066 -5.5791397 -0.940155 -16.416824 5.232956 -16.086998" fill-rule="evenodd"></path><path fill="#000000" fill-opacity="0.0" d="m239.40192 214.28137c0 -18.045456 0.87376404 -36.166412 -1.0479889 -54.128082c-0.31576538 -2.9512787 -7.3374634 -2.544983 -7.7460327 -5.4869385c-1.1524048 -8.2981415 15.076996 -12.462097 15.49556 -20.816788c0.53515625 -10.682182 -17.76236 -21.396667 -29.105423 -18.358444c-13.010803 3.4849243 -20.058456 22.92398 -14.864639 34.255356c1.374939 2.9997253 8.717636 1.5457458 9.421402 4.7297974c4.41127 19.95787 -4.1884613 40.587006 -4.1884613 60.93924" fill-rule="evenodd"></path><path stroke="#000000" stroke-width="2.0" stroke-linejoin="round" stroke-linecap="butt" d="m239.40192 214.28137c0 -18.045456 0.87376404 -36.166412 -1.0479889 -54.128082c-0.31576538 -2.9512787 -7.3374634 -2.544983 -7.7460327 -5.4869385c-1.1524048 -8.2981415 15.076996 -12.462097 15.49556 -20.816788c0.53515625 -10.682182 -17.76236 -21.396667 -29.105423 -18.358444c-13.010803 3.4849243 -20.058456 22.92398 -14.864639 34.255356c1.374939 2.9997253 8.717636 1.5457458 9.421402 4.7297974c4.41127 19.95787 -4.1884613 40.587006 -4.1884613 60.93924" fill-rule="evenodd"></path><path fill="#000000" fill-opacity="0.0" d="m207.78398 213.33507c0 4.0244446 -1.9543915 10.245895 2.0924683 11.924271c9.507629 3.943161 29.635025 -2.5276947 28.474518 -11.924271" fill-rule="evenodd"></path><path stroke="#000000" stroke-width="2.0" stroke-linejoin="round" stroke-linecap="butt" d="m207.78398 213.33507c0 4.0244446 -1.9543915 10.245895 2.0924683 11.924271c9.507629 3.943161 29.635025 -2.5276947 28.474518 -11.924271" fill-rule="evenodd"></path><path fill="#000000" fill-opacity="0.0" d="m24.3656 183.81267c1.0402889 -17.57611 1.47225 -35.21602 0.6273937 -52.800705c-0.28849983 -6.004738 10.092497 -11.468285 7.1186275 -16.84414c-4.6691074 -8.440338 -19.249336 -15.796982 -15.495546 -24.602531" fill-rule="evenodd"></path><path stroke="#000000" stroke-width="2.0" stroke-linejoin="round" stroke-linecap="butt" d="m24.3656 183.81267c1.0402889 -17.57611 1.47225 -35.21602 0.6273937 -52.800705c-0.28849983 -6.004738 10.092497 -11.468285 7.1186275 -16.84414c-4.6691074 -8.440338 -19.249336 -15.796982 -15.495546 -24.602531" fill-rule="evenodd"></path><path fill="#000000" fill-opacity="0.0" d="m15.778711 89.37554c1.3175774 -14.231155 40.044518 -17.503021 47.110527 -4.7297974c3.2203636 5.8214493 5.1698494 14.027954 1.2582893 19.492577c-3.446682 4.8151703 -18.34122 6.3072205 -14.657856 10.977043c8.646389 10.962021 6.8913345 26.314201 7.9563217 39.742302" fill-rule="evenodd"></path><path stroke="#000000" stroke-width="2.0" stroke-linejoin="round" stroke-linecap="butt" d="m15.778711 89.37554c1.3175774 -14.231155 40.044518 -17.503021 47.110527 -4.7297974c3.2203636 5.8214493 5.1698494 14.027954 1.2582893 19.492577c-3.446682 4.8151703 -18.34122 6.3072205 -14.657856 10.977043c8.646389 10.962021 6.8913345 26.314201 7.9563217 39.742302" fill-rule="evenodd"></path><path fill="#000000" fill-opacity="0.0" d="m24.572723 183.05553c5.3139305 0.34429932 14.868156 -0.4847107 14.868156 -5.3000336c0 -3.5956573 0 -14.382629 0 -10.786972c0 6.807007 3.5656586 17.788208 11.0967865 17.788208" fill-rule="evenodd"></path><path stroke="#000000" stroke-width="2.0" stroke-linejoin="round" stroke-linecap="butt" d="m24.572723 183.05553c5.3139305 0.34429932 14.868156 -0.4847107 14.868156 -5.3000336c0 -3.5956573 0 -14.382629 0 -10.786972c0 6.807007 3.5656586 17.788208 11.0967865 17.788208" fill-rule="evenodd"></path><path fill="#cfe2f3" d="m26.130514 89.43727l0 0c0 -0.41748047 0.6134052 -0.75590515 1.370079 -0.75590515l0 0c0.7566738 0 1.370079 0.33842468 1.370079 0.75590515l0 0c0 0.41747284 -0.6134052 0.75590515 -1.370079 0.75590515l0 0c-0.7566738 0 -1.370079 -0.3384323 -1.370079 -0.75590515z" fill-rule="nonzero"></path><path stroke="#000000" stroke-width="2.0" stroke-linejoin="round" stroke-linecap="butt" d="m26.130514 89.43727l0 0c0 -0.41748047 0.6134052 -0.75590515 1.370079 -0.75590515l0 0c0.7566738 0 1.370079 0.33842468 1.370079 0.75590515l0 0c0 0.41747284 -0.6134052 0.75590515 -1.370079 0.75590515l0 0c-0.7566738 0 -1.370079 -0.3384323 -1.370079 -0.75590515z" fill-rule="nonzero"></path><path fill="#cfe2f3" d="m45.187447 90.00432l0 0c0 -0.41747284 0.42303848 -0.75590515 0.94488144 -0.75590515l0 0c0.5218468 0 0.94488144 0.3384323 0.94488144 0.75590515l0 0c0 0.41747284 -0.42303467 0.75590515 -0.94488144 0.75590515l0 0c-0.52184296 0 -0.94488144 -0.3384323 -0.94488144 -0.75590515z" fill-rule="nonzero"></path><path stroke="#000000" stroke-width="2.0" stroke-linejoin="round" stroke-linecap="butt" d="m45.187447 90.00432l0 0c0 -0.41747284 0.42303848 -0.75590515 0.94488144 -0.75590515l0 0c0.5218468 0 0.94488144 0.3384323 0.94488144 0.75590515l0 0c0 0.41747284 -0.42303467 0.75590515 -0.94488144 0.75590515l0 0c-0.52184296 0 -0.94488144 -0.3384323 -0.94488144 -0.75590515z" fill-rule="nonzero"></path><path fill="#cfe2f3" d="m76.17555 37.39548l0 0c0 -0.41747284 0.19036865 -0.75590515 0.42520142 -0.75590515l0 0c0.11277008 0 0.22091675 0.079639435 0.30065918 0.22140121c0.0797348 0.14175797 0.12453461 0.33402634 0.12453461 0.53450394l0 0c0 0.41747665 -0.19036865 0.75590515 -0.4251938 0.75590515l0 0c-0.23483276 0 -0.42520142 -0.3384285 -0.42520142 -0.75590515z" fill-rule="nonzero"></path><path stroke="#000000" stroke-width="2.0" stroke-linejoin="round" stroke-linecap="butt" d="m76.17555 37.39548l0 0c0 -0.41747284 0.19036865 -0.75590515 0.42520142 -0.75590515l0 0c0.11277008 0 0.22091675 0.079639435 0.30065918 0.22140121c0.0797348 0.14175797 0.12453461 0.33402634 0.12453461 0.53450394l0 0c0 0.41747665 -0.19036865 0.75590515 -0.4251938 0.75590515l0 0c-0.23483276 0 -0.42520142 -0.3384285 -0.42520142 -0.75590515z" fill-rule="nonzero"></path><path fill="#cfe2f3" d="m88.520325 36.638363l0 0c0 -0.41747665 0.4230423 -0.75590897 0.94488525 -0.75590897l0 0c0.52184296 0 0.9448776 0.3384323 0.9448776 0.75590897l0 0c0 0.41747284 -0.42303467 0.75590515 -0.9448776 0.75590515l0 0c-0.52184296 0 -0.94488525 -0.3384323 -0.94488525 -0.75590515z" fill-rule="nonzero"></path><path stroke="#000000" stroke-width="2.0" stroke-linejoin="round" stroke-linecap="butt" d="m88.520325 36.638363l0 0c0 -0.41747665 0.4230423 -0.75590897 0.94488525 -0.75590897l0 0c0.52184296 0 0.9448776 0.3384323 0.9448776 0.75590897l0 0c0 0.41747284 -0.42303467 0.75590515 -0.9448776 0.75590515l0 0c-0.52184296 0 -0.94488525 -0.3384323 -0.94488525 -0.75590515z" fill-rule="nonzero"></path><path fill="#cfe2f3" d="m49.971836 165.44717l0 0c0 -0.41748047 0.42303848 -0.75590515 0.94488144 -0.75590515l0 0c0.52184296 0 0.94488144 0.33842468 0.94488144 0.75590515l0 0c0 0.4174652 -0.42303848 0.75590515 -0.94488144 0.75590515l0 0c-0.52184296 0 -0.94488144 -0.33843994 -0.94488144 -0.75590515z" fill-rule="nonzero"></path><path stroke="#000000" stroke-width="2.0" stroke-linejoin="round" stroke-linecap="butt" d="m49.971836 165.44717l0 0c0 -0.41748047 0.42303848 -0.75590515 0.94488144 -0.75590515l0 0c0.52184296 0 0.94488144 0.33842468 0.94488144 0.75590515l0 0c0 0.4174652 -0.42303848 0.75590515 -0.94488144 0.75590515l0 0c-0.52184296 0 -0.94488144 -0.33843994 -0.94488144 -0.75590515z" fill-rule="nonzero"></path><path fill="#cfe2f3" d="m60.988194 165.74811l0 0c0 -0.4174652 0.19036484 -0.75590515 0.4251976 -0.75590515l0 0c0.112766266 0 0.22091675 0.07965088 0.30065918 0.22140503c0.07973862 0.14175415 0.12453461 0.33403015 0.12453461 0.5345001l0 0c0 0.41748047 -0.19036484 0.75590515 -0.4251938 0.75590515l0 0c-0.23483276 0 -0.4251976 -0.33842468 -0.4251976 -0.75590515z" fill-rule="nonzero"></path><path stroke="#000000" stroke-width="2.0" stroke-linejoin="round" stroke-linecap="butt" d="m60.988194 165.74811l0 0c0 -0.4174652 0.19036484 -0.75590515 0.4251976 -0.75590515l0 0c0.112766266 0 0.22091675 0.07965088 0.30065918 0.22140503c0.07973862 0.14175415 0.12453461 0.33403015 0.12453461 0.5345001l0 0c0 0.41748047 -0.19036484 0.75590515 -0.4251938 0.75590515l0 0c-0.23483276 0 -0.4251976 -0.33842468 -0.4251976 -0.75590515z" fill-rule="nonzero"></path><path fill="#cfe2f3" d="m88.61496 133.8261l0 0c0 -0.66101074 0.6134033 -1.1968536 1.370079 -1.1968536l0 0c0.7566757 0 1.370079 0.5358429 1.370079 1.1968536l0 0c0 0.6609955 -0.6134033 1.1968384 -1.370079 1.1968384l0 0c-0.7566757 0 -1.370079 -0.5358429 -1.370079 -1.1968384z" fill-rule="nonzero"></path><path stroke="#000000" stroke-width="2.0" stroke-linejoin="round" stroke-linecap="butt" d="m88.61496 133.8261l0 0c0 -0.66101074 0.6134033 -1.1968536 1.370079 -1.1968536l0 0c0.7566757 0 1.370079 0.5358429 1.370079 1.1968536l0 0c0 0.6609955 -0.6134033 1.1968384 -1.370079 1.1968384l0 0c-0.7566757 0 -1.370079 -0.5358429 -1.370079 -1.1968384z" fill-rule="nonzero"></path><path fill="#cfe2f3" d="m102.82442 134.6184l0 0c0 -0.9306183 0.6134033 -1.6850433 1.370079 -1.6850433l0 0c0.36336517 0 0.711853 0.17753601 0.96878815 0.49354553c0.25694275 0.31599426 0.4012909 0.7445984 0.4012909 1.1914978l0 0c0 0.9306183 -0.6134033 1.6850433 -1.370079 1.6850433l0 0c-0.7566757 0 -1.370079 -0.75442505 -1.370079 -1.6850433z" fill-rule="nonzero"></path><path stroke="#000000" stroke-width="2.0" stroke-linejoin="round" stroke-linecap="butt" d="m102.82442 134.6184l0 0c0 -0.9306183 0.6134033 -1.6850433 1.370079 -1.6850433l0 0c0.36336517 0 0.711853 0.17753601 0.96878815 0.49354553c0.25694275 0.31599426 0.4012909 0.7445984 0.4012909 1.1914978l0 0c0 0.9306183 -0.6134033 1.6850433 -1.370079 1.6850433l0 0c-0.7566757 0 -1.370079 -0.75442505 -1.370079 -1.6850433z" fill-rule="nonzero"></path><path fill="#cfe2f3" d="m129.45575 67.26741l0 0c0 -0.52184296 0.42303467 -0.9448776 0.94488525 -0.9448776l0 0c0.2505951 0 0.49093628 0.09954834 0.6681366 0.27674866c0.17720032 0.17720032 0.27674866 0.41753387 0.27674866 0.66812897l0 0c0 0.52184296 -0.42303467 0.94488525 -0.94488525 0.94488525l0 0c-0.5218506 0 -0.94488525 -0.4230423 -0.94488525 -0.94488525z" fill-rule="nonzero"></path><path stroke="#000000" stroke-width="2.0" stroke-linejoin="round" stroke-linecap="butt" d="m129.45575 67.26741l0 0c0 -0.52184296 0.42303467 -0.9448776 0.94488525 -0.9448776l0 0c0.2505951 0 0.49093628 0.09954834 0.6681366 0.27674866c0.17720032 0.17720032 0.27674866 0.41753387 0.27674866 0.66812897l0 0c0 0.52184296 -0.42303467 0.94488525 -0.94488525 0.94488525l0 0c-0.5218506 0 -0.94488525 -0.4230423 -0.94488525 -0.94488525z" fill-rule="nonzero"></path><path fill="#cfe2f3" d="m141.27827 68.349365l0 0c0 -0.6610031 0.9165802 -1.1968536 2.0472412 -1.1968536l0 0c1.130661 0 2.0472412 0.5358505 2.0472412 1.1968536l0 0c0 0.6609955 -0.9165802 1.196846 -2.0472412 1.196846l0 0c-1.130661 0 -2.0472412 -0.5358505 -2.0472412 -1.196846z" fill-rule="nonzero"></path><path stroke="#000000" stroke-width="2.0" stroke-linejoin="round" stroke-linecap="butt" d="m141.27827 68.349365l0 0c0 -0.6610031 0.9165802 -1.1968536 2.0472412 -1.1968536l0 0c1.130661 0 2.0472412 0.5358505 2.0472412 1.1968536l0 0c0 0.6609955 -0.9165802 1.196846 -2.0472412 1.196846l0 0c-1.130661 0 -2.0472412 -0.5358505 -2.0472412 -1.196846z" fill-rule="nonzero"></path><path fill="#cfe2f3" d="m160.14243 29.197643l0 0c0 -0.6610031 0.70506287 -1.1968517 1.5747986 -1.1968517l0 0c0.869751 0 1.5748138 0.5358486 1.5748138 1.1968517l0 0c0 0.6610012 -0.70506287 1.1968498 -1.5748138 1.1968498l0 0c-0.8697357 0 -1.5747986 -0.5358486 -1.5747986 -1.1968498z" fill-rule="nonzero"></path><path stroke="#000000" stroke-width="2.0" stroke-linejoin="round" stroke-linecap="butt" d="m160.14243 29.197643l0 0c0 -0.6610031 0.70506287 -1.1968517 1.5747986 -1.1968517l0 0c0.869751 0 1.5748138 0.5358486 1.5748138 1.1968517l0 0c0 0.6610012 -0.70506287 1.1968498 -1.5748138 1.1968498l0 0c-0.8697357 0 -1.5747986 -0.5358486 -1.5747986 -1.1968498z" fill-rule="nonzero"></path><path fill="#cfe2f3" d="m177.16994 31.134674l0 0c0 -0.52184486 1.156311 -0.94488335 2.582672 -0.94488335l0 0c1.4263763 0 2.5826874 0.42303848 2.5826874 0.94488335l0 0c0 0.52184296 -1.156311 0.94488144 -2.5826874 0.94488144l0 0c-1.4263611 0 -2.582672 -0.42303848 -2.582672 -0.94488144z" fill-rule="nonzero"></path><path stroke="#000000" stroke-width="2.0" stroke-linejoin="round" stroke-linecap="butt" d="m177.16994 31.134674l0 0c0 -0.52184486 1.156311 -0.94488335 2.582672 -0.94488335l0 0c1.4263763 0 2.5826874 0.42303848 2.5826874 0.94488335l0 0c0 0.52184296 -1.156311 0.94488144 -2.5826874 0.94488144l0 0c-1.4263611 0 -2.582672 -0.42303848 -2.582672 -0.94488144z" fill-rule="nonzero"></path><path fill="#cfe2f3" d="m193.38077 77.376305l0 0c0 -1.1045685 0.6134033 -2.0 1.3700867 -2.0l0 0c0.36335754 0 0.711853 0.21071625 0.9687958 0.5857849c0.2569275 0.3750763 0.40127563 0.88378143 0.40127563 1.4142151l0 0c0 1.1045685 -0.6134033 2.0 -1.3700714 2.0l0 0c-0.75668335 0 -1.3700867 -0.8954315 -1.3700867 -2.0z" fill-rule="nonzero"></path><path stroke="#000000" stroke-width="2.0" stroke-linejoin="round" stroke-linecap="butt" d="m193.38077 77.376305l0 0c0 -1.1045685 0.6134033 -2.0 1.3700867 -2.0l0 0c0.36335754 0 0.711853 0.21071625 0.9687958 0.5857849c0.2569275 0.3750763 0.40127563 0.88378143 0.40127563 1.4142151l0 0c0 1.1045685 -0.6134033 2.0 -1.3700714 2.0l0 0c-0.75668335 0 -1.3700867 -0.8954315 -1.3700867 -2.0z" fill-rule="nonzero"></path><path fill="#cfe2f3" d="m212.97398 78.005035l0 0c0 -0.6610031 1.3466644 -1.1968536 3.0078735 -1.1968536l0 0c1.6611938 0 3.0078735 0.5358505 3.0078735 1.1968536l0 0c0 0.6610031 -1.3466797 1.196846 -3.0078735 1.196846l0 0c-1.6612091 0 -3.0078735 -0.5358429 -3.0078735 -1.196846z" fill-rule="nonzero"></path><path stroke="#000000" stroke-width="2.0" stroke-linejoin="round" stroke-linecap="butt" d="m212.97398 78.005035l0 0c0 -0.6610031 1.3466644 -1.1968536 3.0078735 -1.1968536l0 0c1.6611938 0 3.0078735 0.5358505 3.0078735 1.1968536l0 0c0 0.6610031 -1.3466797 1.196846 -3.0078735 1.196846l0 0c-1.6612091 0 -3.0078735 -0.5358429 -3.0078735 -1.196846z" fill-rule="nonzero"></path><path fill="#cfe2f3" d="m210.1384 133.50745l0 0c0 -0.23483276 0.42303467 -0.42520142 0.94488525 -0.42520142l0 0c0.5218353 0 0.94487 0.19036865 0.94487 0.42520142l0 0c0 0.2348175 -0.42303467 0.42518616 -0.94487 0.42518616l0 0c-0.5218506 0 -0.94488525 -0.19036865 -0.94488525 -0.42518616z" fill-rule="nonzero"></path><path stroke="#000000" stroke-width="2.0" stroke-linejoin="round" stroke-linecap="butt" d="m210.1384 133.50745l0 0c0 -0.23483276 0.42303467 -0.42520142 0.94488525 -0.42520142l0 0c0.5218353 0 0.94487 0.19036865 0.94487 0.42520142l0 0c0 0.2348175 -0.42303467 0.42518616 -0.94487 0.42518616l0 0c-0.5218506 0 -0.94488525 -0.19036865 -0.94488525 -0.42518616z" fill-rule="nonzero"></path><path fill="#cfe2f3" d="m226.58057 134.05417l0 0c0 -0.6609955 1.0293884 -1.1968384 2.2992096 -1.1968384l0 0c1.2698212 0 2.2992096 0.5358429 2.2992096 1.1968384l0 0c0 0.66101074 -1.0293884 1.1968536 -2.2992096 1.1968536l0 0c-1.2698212 0 -2.2992096 -0.5358429 -2.2992096 -1.1968536z" fill-rule="nonzero"></path><path stroke="#000000" stroke-width="2.0" stroke-linejoin="round" stroke-linecap="butt" d="m226.58057 134.05417l0 0c0 -0.6609955 1.0293884 -1.1968384 2.2992096 -1.1968384l0 0c1.2698212 0 2.2992096 0.5358429 2.2992096 1.1968384l0 0c0 0.66101074 -1.0293884 1.1968536 -2.2992096 1.1968536l0 0c-1.2698212 0 -2.2992096 -0.5358429 -2.2992096 -1.1968536z" fill-rule="nonzero"></path><path fill="#cfe2f3" d="m159.72533 169.25702l0 0c0 -0.5218353 0.19036865 -0.94488525 0.42520142 -0.94488525l0 0c0.11276245 0 0.22091675 0.09954834 0.30065918 0.27674866c0.07974243 0.17720032 0.12452698 0.4175415 0.12452698 0.6681366l0 0c0 0.5218506 -0.19036865 0.94488525 -0.42518616 0.94488525l0 0c-0.23483276 0 -0.42520142 -0.42303467 -0.42520142 -0.94488525z" fill-rule="nonzero"></path><path stroke="#000000" stroke-width="2.0" stroke-linejoin="round" stroke-linecap="butt" d="m159.72533 169.25702l0 0c0 -0.5218353 0.19036865 -0.94488525 0.42520142 -0.94488525l0 0c0.11276245 0 0.22091675 0.09954834 0.30065918 0.27674866c0.07974243 0.17720032 0.12452698 0.4175415 0.12452698 0.6681366l0 0c0 0.5218506 -0.19036865 0.94488525 -0.42518616 0.94488525l0 0c-0.23483276 0 -0.42520142 -0.42303467 -0.42520142 -0.94488525z" fill-rule="nonzero"></path><path fill="#cfe2f3" d="m168.07085 169.36899l0 0c0 -0.4174652 0.1903534 -0.75590515 0.42518616 -0.75590515l0 0c0.11277771 0 0.22091675 0.07963562 0.30065918 0.22140503c0.07974243 0.14175415 0.12454224 0.33403015 0.12454224 0.5345001l0 0c0 0.41748047 -0.19036865 0.75590515 -0.42520142 0.75590515l0 0c-0.23483276 0 -0.42518616 -0.33842468 -0.42518616 -0.75590515z" fill-rule="nonzero"></path><path stroke="#000000" stroke-width="2.0" stroke-linejoin="round" stroke-linecap="butt" d="m168.07085 169.36899l0 0c0 -0.4174652 0.1903534 -0.75590515 0.42518616 -0.75590515l0 0c0.11277771 0 0.22091675 0.07963562 0.30065918 0.22140503c0.07974243 0.14175415 0.12454224 0.33403015 0.12454224 0.5345001l0 0c0 0.41748047 -0.19036865 0.75590515 -0.42520142 0.75590515l0 0c-0.23483276 0 -0.42518616 -0.33842468 -0.42518616 -0.75590515z" fill-rule="nonzero"></path></g></svg>

