<?xml version="1.0" standalone="yes"?>

<svg version="1.1" viewBox="0.0 0.0 264.0 252.0" fill="none" stroke="none" stroke-linecap="square" stroke-miterlimit="10" xmlns="http://www.w3.org/2000/svg" xmlns:xlink="http://www.w3.org/1999/xlink"><clipPath id="p.0"><path d="m0 0l264.0 0l0 252.0l-264.0 0l0 -252.0z" clip-rule="nonzero"></path></clipPath><g clip-path="url(#p.0)"><path fill="#000000" fill-opacity="0.0" d="m0 0l264.0 0l0 252.0l-264.0 0z" fill-rule="nonzero"></path><path fill="#8e7cc3" d="m160.12488 53.678284l31.839294 0l0 63.641464l-31.839294 0z" fill-rule="nonzero"></path><path fill="#8e7cc3" d="m150.07257 35.17988l0 0c0 -10.216389 11.6280365 -18.498407 25.971954 -18.498407l0 0c14.343918 0 25.971954 8.282019 25.971954 18.498407l0 0c0 10.216385 -11.6280365 18.498405 -25.971954 18.498405l0 0c-14.343918 0 -25.971954 -8.282021 -25.971954 -18.498405z" fill-rule="nonzero"></path><path fill="#000000" fill-opacity="0.0" d="m151.46022 32.97842c3.0594635 -13.826456 39.64647 -17.594006 46.48314 -4.9198723c3.0611877 5.67498 4.2017975 14.553619 -0.83769226 18.925507c-3.6704865 3.1842346 -16.75119 2.6269112 -13.609863 6.244087c2.0261078 2.3330154 7.594574 -1.9710045 9.841995 0.19007874c11.95079 11.491661 -0.6308899 31.539253 -0.6308899 47.3106c0 6.2658005 -1.8616638 17.034225 -8.794022 17.034225" fill-rule="evenodd"></path><path stroke="#000000" stroke-width="2.0" stroke-linejoin="round" stroke-linecap="butt" d="m151.46022 32.97842c3.0594635 -13.826456 39.64647 -17.594006 46.48314 -4.9198723c3.0611877 5.67498 4.2017975 14.553619 -0.83769226 18.925507c-3.6704865 3.1842346 -16.75119 2.6269112 -13.609863 6.244087c2.0261078 2.3330154 7.594574 -1.9710045 9.841995 0.19007874c11.95079 11.491661 -0.6308899 31.539253 -0.6308899 47.3106c0 6.2658005 -1.8616638 17.034225 -8.794022 17.034225" fill-rule="evenodd"></path><path fill="#6d9eeb" d="m193.3391 95.23619l34.943634 0l0 53.271347l-34.943634 0z" fill-rule="nonzero"></path><path fill="#6d9eeb" d="m182.3067 79.75202l0 0c0 -8.551666 12.761765 -15.484169 28.504211 -15.484169l0 0c15.742447 0 28.504211 6.9325027 28.504211 15.484169l0 0c0 8.551666 -12.761765 15.484169 -28.504211 15.484169l0 0c-15.742447 0 -28.504211 -6.9325027 -28.504211 -15.484169z" fill-rule="nonzero"></path><path fill="#e06666" d="m127.58831 93.06644l24.89196 0l0 63.641464l-24.89196 0z" fill-rule="nonzero"></path><path fill="#e06666" d="m119.72942 74.56803l0 0c0 -10.216385 9.090797 -18.498405 20.304878 -18.498405l0 0c11.214066 0 20.30487 8.282021 20.30487 18.498405l0 0c0 10.2163925 -9.090805 18.498405 -20.30487 18.498405l0 0c-11.214081 0 -20.304878 -8.282013 -20.304878 -18.498405z" fill-rule="nonzero"></path><path fill="#e06666" d="m25.16503 115.11506l31.8393 0l0 69.644844l-31.8393 0z" fill-rule="nonzero"></path><path fill="#e06666" d="m15.112728 94.87167l0 0c0 -11.180115 11.628038 -20.243385 25.97195 -20.243385l0 0c14.343914 0 25.971954 9.063271 25.971954 20.243385l0 0c0 11.180115 -11.62804 20.243385 -25.971954 20.243385l0 0c-14.343912 0 -25.97195 -9.063271 -25.97195 -20.243385z" fill-rule="nonzero"></path><path fill="#ffd966" d="m74.91392 56.72903l24.891968 0l0 49.07176l-24.891968 0z" fill-rule="nonzero"></path><path fill="#ffd966" d="m67.05503 42.46554l0 0c0 -7.87751 9.090797 -14.263491 20.30487 -14.263491l0 0c11.214073 0 20.30487 6.3859806 20.30487 14.263491l0 0c0 7.8775063 -9.090797 14.263489 -20.30487 14.263489l0 0c-11.214073 0 -20.30487 -6.3859825 -20.30487 -14.263489z" fill-rule="nonzero"></path><path fill="#e06666" d="m156.31004 185.23045l19.75946 0l0 49.071762l-19.75946 0z" fill-rule="nonzero"></path><path fill="#e06666" d="m150.07158 170.96696l0 0c0 -7.8775024 7.2163544 -14.263489 16.118195 -14.263489l0 0c8.901825 0 16.118195 6.3859863 16.118195 14.263489l0 0c0 7.8775024 -7.2163696 14.263489 -16.118195 14.263489l0 0c-8.90184 0 -16.118195 -6.3859863 -16.118195 -14.263489z" fill-rule="nonzero"></path><path fill="#8e7cc3" d="m86.610954 163.13211l31.839302 0l0 69.64485l-31.839302 0z" fill-rule="nonzero"></path><path fill="#8e7cc3" d="m76.558655 142.88873l0 0c0 -11.180115 11.6280365 -20.243385 25.971947 -20.243385l0 0c14.343918 0 25.971962 9.063271 25.971962 20.243385l0 0c0 11.180115 -11.628044 20.243378 -25.971962 20.243378l0 0c-14.34391 0 -25.971947 -9.063263 -25.971947 -20.243378z" fill-rule="nonzero"></path><path fill="#ffd966" d="m206.99673 155.62083l31.83931 0l0 69.64485l-31.83931 0z" fill-rule="nonzero"></path><path fill="#ffd966" d="m196.94444 135.37746l0 0c0 -11.180115 11.6280365 -20.243393 25.97194 -20.243393l0 0c14.343918 0 25.971954 9.063278 25.971954 20.243393l0 0c0 11.180115 -11.6280365 20.243378 -25.971954 20.243378l0 0c-14.343903 0 -25.97194 -9.063263 -25.97194 -20.243378z" fill-rule="nonzero"></path><path fill="#6d9eeb" d="m50.561077 185.23045l19.759472 0l0 49.071762l-19.759472 0z" fill-rule="nonzero"></path><path fill="#6d9eeb" d="m44.32262 170.96696l0 0c0 -7.8775024 7.216362 -14.263489 16.11819 -14.263489l0 0c8.901833 0 16.118195 6.3859863 16.118195 14.263489l0 0c0 7.8775024 -7.216362 14.263489 -16.118195 14.263489l0 0c-8.901829 0 -16.11819 -6.3859863 -16.11819 -14.263489z" fill-rule="nonzero"></path><path fill="#000000" fill-opacity="0.0" d="m84.03879 27.111769c-8.517853 2.4351425 -19.01818 11.921354 -15.912643 19.492575c2.0109634 4.902672 15.183517 5.5744705 12.982475 10.409977c-6.5718994 14.437904 -10.944298 31.69497 -5.6535416 46.556625c1.2048035 3.3842926 7.023575 -3.223793 10.676186 -4.542885c3.9587097 -1.4296341 5.621849 7.9263 9.842003 7.3813934c6.3622665 -0.8215027 3.1690674 -11.419411 2.9301682 -17.224304c-0.3815689 -9.271637 4.619484 -19.119652 1.0479889 -27.818024c-1.2335434 -3.0043144 -10.167145 -2.8098412 -8.58371 -5.677021c3.2848053 -5.947891 17.010735 -7.920437 15.285248 -14.382622c-2.2805023 -8.540791 -14.522751 -12.727909 -23.868958 -15.1429405" fill-rule="evenodd"></path><path stroke="#000000" stroke-width="2.0" stroke-linejoin="round" stroke-linecap="butt" d="m84.03879 27.111769c-8.517853 2.4351425 -19.01818 11.921354 -15.912643 19.492575c2.0109634 4.902672 15.183517 5.5744705 12.982475 10.409977c-6.5718994 14.437904 -10.944298 31.69497 -5.6535416 46.556625c1.2048035 3.3842926 7.023575 -3.223793 10.676186 -4.542885c3.9587097 -1.4296341 5.621849 7.9263 9.842003 7.3813934c6.3622665 -0.8215027 3.1690674 -11.419411 2.9301682 -17.224304c-0.3815689 -9.271637 4.619484 -19.119652 1.0479889 -27.818024c-1.2335434 -3.0043144 -10.167145 -2.8098412 -8.58371 -5.677021c3.2848053 -5.947891 17.010735 -7.920437 15.285248 -14.382622c-2.2805023 -8.540791 -14.522751 -12.727909 -23.868958 -15.1429405" fill-rule="evenodd"></path><path fill="#000000" fill-opacity="0.0" d="m57.237247 156.7498c-6.624214 2.4656982 -13.330299 9.482498 -12.351574 15.896912c0.73132706 4.7929993 10.610825 6.3392334 10.259098 11.1671295c-1.2376709 16.988602 -17.486725 38.48398 -4.6055527 50.906265c3.5792923 3.4517822 4.7320175 -9.252609 9.421406 -11.35405c4.631012 -2.0752716 4.0879974 13.476654 8.794014 11.544128c14.120995 -5.798828 2.0959778 -27.994934 2.0959778 -42.01375c0 -3.4489594 -11.144798 -7.948456 -7.328926 -7.948456c6.856285 0 13.716156 -8.434677 12.772171 -14.572708c-1.153122 -7.4978943 -12.096848 -15.853668 -20.1011 -13.625473" fill-rule="evenodd"></path><path stroke="#000000" stroke-width="2.0" stroke-linejoin="round" stroke-linecap="butt" d="m57.237247 156.7498c-6.624214 2.4656982 -13.330299 9.482498 -12.351574 15.896912c0.73132706 4.7929993 10.610825 6.3392334 10.259098 11.1671295c-1.2376709 16.988602 -17.486725 38.48398 -4.6055527 50.906265c3.5792923 3.4517822 4.7320175 -9.252609 9.421406 -11.35405c4.631012 -2.0752716 4.0879974 13.476654 8.794014 11.544128c14.120995 -5.798828 2.0959778 -27.994934 2.0959778 -42.01375c0 -3.4489594 -11.144798 -7.948456 -7.328926 -7.948456c6.856285 0 13.716156 -8.434677 12.772171 -14.572708c-1.153122 -7.4978943 -12.096848 -15.853668 -20.1011 -13.625473" fill-rule="evenodd"></path><path fill="#000000" fill-opacity="0.0" d="m166.11644 158.07152c-8.19873 0.41322327 -15.849442 10.890244 -14.240768 18.168365c0.97891235 4.4288635 13.873718 5.02063 11.307083 8.895676c-9.34874 14.114563 -10.0733795 51.07361 7.9563293 48.82489c17.906693 -2.233368 0 -32.676636 0 -49.01497c0 -6.0804443 11.1892395 -9.684357 10.262604 -15.706833c-0.9981537 -6.487213 -11.56218 -15.1772 -17.591537 -11.544113" fill-rule="evenodd"></path><path stroke="#000000" stroke-width="2.0" stroke-linejoin="round" stroke-linecap="butt" d="m166.11644 158.07152c-8.19873 0.41322327 -15.849442 10.890244 -14.240768 18.168365c0.97891235 4.4288635 13.873718 5.02063 11.307083 8.895676c-9.34874 14.114563 -10.0733795 51.07361 7.9563293 48.82489c17.906693 -2.233368 0 -32.676636 0 -49.01497c0 -6.0804443 11.1892395 -9.684357 10.262604 -15.706833c-0.9981537 -6.487213 -11.56218 -15.1772 -17.591537 -11.544113" fill-rule="evenodd"></path><path fill="#000000" fill-opacity="0.0" d="m86.342384 227.71829c1.5447617 -15.9002075 -0.048690796 -31.931137 0.62739563 -47.88083c0.23033142 -5.4338837 -4.001404 -13.633804 1.2582855 -16.27391c2.6869736 -1.3487244 8.39006 3.0540314 9.211105 0.3769989c2.6027145 -8.486221 -18.21585 -11.11438 -19.263405 -19.869568c-1.3561554 -11.334412 15.894379 -23.302162 28.47802 -22.521164c11.010895 0.68338776 23.930092 12.963959 21.566185 22.708069c-2.1035538 8.670883 -19.714348 9.927811 -20.938797 18.735428c-0.57927704 4.1668243 11.724182 2.6147308 11.724182 6.814331c0 19.052109 -0.627388 38.101395 -0.627388 57.153503" fill-rule="evenodd"></path><path stroke="#000000" stroke-width="2.0" stroke-linejoin="round" stroke-linecap="butt" d="m86.342384 227.71829c1.5447617 -15.9002075 -0.048690796 -31.931137 0.62739563 -47.88083c0.23033142 -5.4338837 -4.001404 -13.633804 1.2582855 -16.27391c2.6869736 -1.3487244 8.39006 3.0540314 9.211105 0.3769989c2.6027145 -8.486221 -18.21585 -11.11438 -19.263405 -19.869568c-1.3561554 -11.334412 15.894379 -23.302162 28.47802 -22.521164c11.010895 0.68338776 23.930092 12.963959 21.566185 22.708069c-2.1035538 8.670883 -19.714348 9.927811 -20.938797 18.735428c-0.57927704 4.1668243 11.724182 2.6147308 11.724182 6.814331c0 19.052109 -0.627388 38.101395 -0.627388 57.153503" fill-rule="evenodd"></path><path fill="#000000" fill-opacity="0.0" d="m85.71368 227.71823c0 4.461075 12.897011 6.061966 14.65786 1.8944397c0.972435 -2.3015442 0.41709137 -9.845062 0.41709137 -7.381378c0 3.810318 -2.0851364 9.299316 1.4650803 11.354034c5.1554337 2.9837189 13.8515625 -2.8102722 16.12294 -7.948471" fill-rule="evenodd"></path><path stroke="#000000" stroke-width="2.0" stroke-linejoin="round" stroke-linecap="butt" d="m85.71368 227.71823c0 4.461075 12.897011 6.061966 14.65786 1.8944397c0.972435 -2.3015442 0.41709137 -9.845062 0.41709137 -7.381378c0 3.810318 -2.0851364 9.299316 1.4650803 11.354034c5.1554337 2.9837189 13.8515625 -2.8102722 16.12294 -7.948471" fill-rule="evenodd"></path><path fill="#000000" fill-opacity="0.0" d="m153.34442 153.72139c0 -20.17514 -4.9102783 -40.106262 -7.1221313 -60.1821c-0.5349121 -4.8550644 10.921783 -4.758812 12.355087 -9.462753c2.7486115 -9.020699 -0.24765015 -24.114006 -10.2591095 -26.493813c-9.191772 -2.1849594 -23.078026 2.0983315 -26.175232 10.219902c-3.1422043 8.239548 7.184021 16.17649 10.889984 24.222366c1.3330688 2.8941422 -6.966522 4.068718 -6.7015305 7.194481c0.97675323 11.52137 0.7612915 23.106781 1.6753922 34.632347" fill-rule="evenodd"></path><path stroke="#000000" stroke-width="2.0" stroke-linejoin="round" stroke-linecap="butt" d="m153.34442 153.72139c0 -20.17514 -4.9102783 -40.106262 -7.1221313 -60.1821c-0.5349121 -4.8550644 10.921783 -4.758812 12.355087 -9.462753c2.7486115 -9.020699 -0.24765015 -24.114006 -10.2591095 -26.493813c-9.191772 -2.1849594 -23.078026 2.0983315 -26.175232 10.219902c-3.1422043 8.239548 7.184021 16.17649 10.889984 24.222366c1.3330688 2.8941422 -6.966522 4.068718 -6.7015305 7.194481c0.97675323 11.52137 0.7612915 23.106781 1.6753922 34.632347" fill-rule="evenodd"></path><path fill="#000000" fill-opacity="0.0" d="m128.00836 148.6101c0 3.976471 5.4537964 8.2331085 9.841995 7.948456" fill-rule="evenodd"></path><path stroke="#000000" stroke-width="2.0" stroke-linejoin="round" stroke-linecap="butt" d="m128.00836 148.6101c0 3.976471 5.4537964 8.2331085 9.841995 7.948456" fill-rule="evenodd"></path><path fill="#000000" fill-opacity="0.0" d="m138.47775 156.55856c0.3809967 -2.0681305 0.68270874 -4.1521606 0.83769226 -6.244095" fill-rule="evenodd"></path><path stroke="#000000" stroke-width="2.0" stroke-linejoin="round" stroke-linecap="butt" d="m138.47775 156.55856c0.3809967 -2.0681305 0.68270874 -4.1521606 0.83769226 -6.244095" fill-rule="evenodd"></path><path fill="#000000" fill-opacity="0.0" d="m139.73604 148.99026c0.5325012 4.3478394 10.123001 8.871399 13.18927 5.4869385" fill-rule="evenodd"></path><path stroke="#000000" stroke-width="2.0" stroke-linejoin="round" stroke-linecap="butt" d="m139.73604 148.99026c0.5325012 4.3478394 10.123001 8.871399 13.18927 5.4869385" fill-rule="evenodd"></path><path fill="#000000" fill-opacity="0.0" d="m160.87987 116.81626c0 -17.347855 0 -34.6957 0 -52.043556c0 -5.249729 13.426636 -9.446606 9.421417 -13.248489c-6.365677 -6.0424957 -20.268463 -9.894215 -19.053116 -18.165192" fill-rule="evenodd"></path><path stroke="#000000" stroke-width="2.0" stroke-linejoin="round" stroke-linecap="butt" d="m160.87987 116.81626c0 -17.347855 0 -34.6957 0 -52.043556c0 -5.249729 13.426636 -9.446606 9.421417 -13.248489c-6.365677 -6.0424957 -20.268463 -9.894215 -19.053116 -18.165192" fill-rule="evenodd"></path><path fill="#000000" fill-opacity="0.0" d="m183.7061 117.19739c-5.336075 -1.286499 -1.5556183 -17.12867 -5.863846 -14.005638c-3.8363495 2.7809753 1.7025452 10.018059 -1.6753845 13.248489c-3.1675262 3.0292206 -9.208694 0.56707 -13.82016 0.56707" fill-rule="evenodd"></path><path stroke="#000000" stroke-width="2.0" stroke-linejoin="round" stroke-linecap="butt" d="m183.7061 117.19739c-5.336075 -1.286499 -1.5556183 -17.12867 -5.863846 -14.005638c-3.8363495 2.7809753 1.7025452 10.018059 -1.6753845 13.248489c-3.1675262 3.0292206 -9.208694 0.56707 -13.82016 0.56707" fill-rule="evenodd"></path><path fill="#000000" fill-opacity="0.0" d="m201.71214 94.48533c-9.23938 0 -24.279343 -11.933075 -18.636017 -18.54535c9.305786 -10.903557 30.38388 -15.26107 44.39067 -9.842911c7.020859 2.7158356 10.827042 13.648567 7.118622 19.682655c-2.2777557 3.7062073 -11.516037 4.621025 -10.259094 8.705605c2.1239777 6.9021454 5.0261536 13.842712 5.0261536 21.006866" fill-rule="evenodd"></path><path stroke="#000000" stroke-width="2.0" stroke-linejoin="round" stroke-linecap="butt" d="m201.71214 94.48533c-9.23938 0 -24.279343 -11.933075 -18.636017 -18.54535c9.305786 -10.903557 30.38388 -15.26107 44.39067 -9.842911c7.020859 2.7158356 10.827042 13.648567 7.118622 19.682655c-2.2777557 3.7062073 -11.516037 4.621025 -10.259094 8.705605c2.1239777 6.9021454 5.0261536 13.842712 5.0261536 21.006866" fill-rule="evenodd"></path><path fill="#000000" fill-opacity="0.0" d="m204.85185 148.9902c-14.219162 0 -10.905731 -24.642242 -10.048798 -37.470848c0.37268066 -5.5791473 -0.9401703 -16.416824 5.2329407 -16.086998" fill-rule="evenodd"></path><path stroke="#000000" stroke-width="2.0" stroke-linejoin="round" stroke-linecap="butt" d="m204.85185 148.9902c-14.219162 0 -10.905731 -24.642242 -10.048798 -37.470848c0.37268066 -5.5791473 -0.9401703 -16.416824 5.2329407 -16.086998" fill-rule="evenodd"></path><path fill="#000000" fill-opacity="0.0" d="m239.40187 214.28139c0 -18.045456 0.87376404 -36.166412 -1.0479889 -54.128082c-0.31576538 -2.951294 -7.337448 -2.544983 -7.7460175 -5.4869385c-1.15242 -8.2981415 15.076981 -12.462097 15.495544 -20.816803c0.53515625 -10.682167 -17.762344 -21.396652 -29.105408 -18.358429c-13.010803 3.4849243 -20.058472 22.92398 -14.864655 34.255356c1.3749542 2.9997253 8.717636 1.5457458 9.421402 4.7297974c4.41127 19.95787 -4.1884613 40.587006 -4.1884613 60.93924" fill-rule="evenodd"></path><path stroke="#000000" stroke-width="2.0" stroke-linejoin="round" stroke-linecap="butt" d="m239.40187 214.28139c0 -18.045456 0.87376404 -36.166412 -1.0479889 -54.128082c-0.31576538 -2.951294 -7.337448 -2.544983 -7.7460175 -5.4869385c-1.15242 -8.2981415 15.076981 -12.462097 15.495544 -20.816803c0.53515625 -10.682167 -17.762344 -21.396652 -29.105408 -18.358429c-13.010803 3.4849243 -20.058472 22.92398 -14.864655 34.255356c1.3749542 2.9997253 8.717636 1.5457458 9.421402 4.7297974c4.41127 19.95787 -4.1884613 40.587006 -4.1884613 60.93924" fill-rule="evenodd"></path><path fill="#000000" fill-opacity="0.0" d="m207.78394 213.33508c0 4.0244446 -1.9543915 10.24588 2.0924835 11.924271c9.507614 3.943161 29.63501 -2.5276947 28.474503 -11.924271" fill-rule="evenodd"></path><path stroke="#000000" stroke-width="2.0" stroke-linejoin="round" stroke-linecap="butt" d="m207.78394 213.33508c0 4.0244446 -1.9543915 10.24588 2.0924835 11.924271c9.507614 3.943161 29.63501 -2.5276947 28.474503 -11.924271" fill-rule="evenodd"></path><path fill="#000000" fill-opacity="0.0" d="m24.365564 183.81268c1.0402889 -17.57611 1.47225 -35.216034 0.6273937 -52.800705c-0.28849792 -6.004738 10.092499 -11.468285 7.1186295 -16.844147c-4.6691093 -8.440338 -19.249336 -15.796982 -15.495548 -24.602524" fill-rule="evenodd"></path><path stroke="#000000" stroke-width="2.0" stroke-linejoin="round" stroke-linecap="butt" d="m24.365564 183.81268c1.0402889 -17.57611 1.47225 -35.216034 0.6273937 -52.800705c-0.28849792 -6.004738 10.092499 -11.468285 7.1186295 -16.844147c-4.6691093 -8.440338 -19.249336 -15.796982 -15.495548 -24.602524" fill-rule="evenodd"></path><path fill="#000000" fill-opacity="0.0" d="m15.778676 89.37555c1.3175783 -14.231155 40.044514 -17.503014 47.110527 -4.7297897c3.2203636 5.8214417 5.1698494 14.027954 1.2582893 19.492569c-3.446682 4.815178 -18.341217 6.307228 -14.657852 10.977051c8.646385 10.962021 6.8913307 26.314186 7.9563217 39.742302" fill-rule="evenodd"></path><path stroke="#000000" stroke-width="2.0" stroke-linejoin="round" stroke-linecap="butt" d="m15.778676 89.37555c1.3175783 -14.231155 40.044514 -17.503014 47.110527 -4.7297897c3.2203636 5.8214417 5.1698494 14.027954 1.2582893 19.492569c-3.446682 4.815178 -18.341217 6.307228 -14.657852 10.977051c8.646385 10.962021 6.8913307 26.314186 7.9563217 39.742302" fill-rule="evenodd"></path><path fill="#000000" fill-opacity="0.0" d="m24.572687 183.05554c5.3139305 0.34429932 14.868155 -0.48472595 14.868155 -5.3000336c0 -3.5956573 0 -14.382629 0 -10.786972c0 6.807007 3.5656624 17.788208 11.09679 17.788208" fill-rule="evenodd"></path><path stroke="#000000" stroke-width="2.0" stroke-linejoin="round" stroke-linecap="butt" d="m24.572687 183.05554c5.3139305 0.34429932 14.868155 -0.48472595 14.868155 -5.3000336c0 -3.5956573 0 -14.382629 0 -10.786972c0 6.807007 3.5656624 17.788208 11.09679 17.788208" fill-rule="evenodd"></path><path fill="#cfe2f3" d="m26.130514 89.43727l0 0c0 -0.41748047 0.6134052 -0.75590515 1.370079 -0.75590515l0 0c0.7566738 0 1.370079 0.33842468 1.370079 0.75590515l0 0c0 0.41747284 -0.6134052 0.75590515 -1.370079 0.75590515l0 0c-0.7566738 0 -1.370079 -0.3384323 -1.370079 -0.75590515z" fill-rule="nonzero"></path><path stroke="#000000" stroke-width="2.0" stroke-linejoin="round" stroke-linecap="butt" d="m26.130514 89.43727l0 0c0 -0.41748047 0.6134052 -0.75590515 1.370079 -0.75590515l0 0c0.7566738 0 1.370079 0.33842468 1.370079 0.75590515l0 0c0 0.41747284 -0.6134052 0.75590515 -1.370079 0.75590515l0 0c-0.7566738 0 -1.370079 -0.3384323 -1.370079 -0.75590515z" fill-rule="nonzero"></path><path fill="#cfe2f3" d="m45.18745 90.00432l0 0c0 -0.41748047 0.42303467 -0.75590515 0.94488144 -0.75590515l0 0c0.52184296 0 0.94488144 0.33842468 0.94488144 0.75590515l0 0c0 0.41747284 -0.42303848 0.75590515 -0.94488144 0.75590515l0 0c-0.5218468 0 -0.94488144 -0.3384323 -0.94488144 -0.75590515z" fill-rule="nonzero"></path><path stroke="#000000" stroke-width="2.0" stroke-linejoin="round" stroke-linecap="butt" d="m45.18745 90.00432l0 0c0 -0.41748047 0.42303467 -0.75590515 0.94488144 -0.75590515l0 0c0.52184296 0 0.94488144 0.33842468 0.94488144 0.75590515l0 0c0 0.41747284 -0.42303848 0.75590515 -0.94488144 0.75590515l0 0c-0.5218468 0 -0.94488144 -0.3384323 -0.94488144 -0.75590515z" fill-rule="nonzero"></path><path fill="#cfe2f3" d="m76.17555 37.39548l0 0c0 -0.41747284 0.19036865 -0.75590515 0.42520142 -0.75590515l0 0c0.11277008 0 0.22091675 0.079639435 0.30065918 0.22140121c0.07974243 0.14175797 0.12453461 0.33402634 0.12453461 0.53450394l0 0c0 0.41747665 -0.19036865 0.75590515 -0.4251938 0.75590515l0 0c-0.23483276 0 -0.42520142 -0.3384285 -0.42520142 -0.75590515z" fill-rule="nonzero"></path><path stroke="#000000" stroke-width="2.0" stroke-linejoin="round" stroke-linecap="butt" d="m76.17555 37.39548l0 0c0 -0.41747284 0.19036865 -0.75590515 0.42520142 -0.75590515l0 0c0.11277008 0 0.22091675 0.079639435 0.30065918 0.22140121c0.07974243 0.14175797 0.12453461 0.33402634 0.12453461 0.53450394l0 0c0 0.41747665 -0.19036865 0.75590515 -0.4251938 0.75590515l0 0c-0.23483276 0 -0.42520142 -0.3384285 -0.42520142 -0.75590515z" fill-rule="nonzero"></path><path fill="#cfe2f3" d="m88.520325 36.638363l0 0c0 -0.41747665 0.4230423 -0.75590515 0.94488525 -0.75590515l0 0c0.52184296 0 0.9448776 0.3384285 0.9448776 0.75590515l0 0c0 0.41747284 -0.42303467 0.75590515 -0.9448776 0.75590515l0 0c-0.52184296 0 -0.94488525 -0.3384323 -0.94488525 -0.75590515z" fill-rule="nonzero"></path><path stroke="#000000" stroke-width="2.0" stroke-linejoin="round" stroke-linecap="butt" d="m88.520325 36.638363l0 0c0 -0.41747665 0.4230423 -0.75590515 0.94488525 -0.75590515l0 0c0.52184296 0 0.9448776 0.3384285 0.9448776 0.75590515l0 0c0 0.41747284 -0.42303467 0.75590515 -0.9448776 0.75590515l0 0c-0.52184296 0 -0.94488525 -0.3384323 -0.94488525 -0.75590515z" fill-rule="nonzero"></path><path fill="#cfe2f3" d="m49.971832 165.44717l0 0c0 -0.41748047 0.42303848 -0.75590515 0.94488144 -0.75590515l0 0c0.5218468 0 0.94488525 0.33842468 0.94488525 0.75590515l0 0c0 0.4174652 -0.42303848 0.75590515 -0.94488525 0.75590515l0 0c-0.52184296 0 -0.94488144 -0.33843994 -0.94488144 -0.75590515z" fill-rule="nonzero"></path><path stroke="#000000" stroke-width="2.0" stroke-linejoin="round" stroke-linecap="butt" d="m49.971832 165.44717l0 0c0 -0.41748047 0.42303848 -0.75590515 0.94488144 -0.75590515l0 0c0.5218468 0 0.94488525 0.33842468 0.94488525 0.75590515l0 0c0 0.4174652 -0.42303848 0.75590515 -0.94488525 0.75590515l0 0c-0.52184296 0 -0.94488144 -0.33843994 -0.94488144 -0.75590515z" fill-rule="nonzero"></path><path fill="#cfe2f3" d="m60.988194 165.74811l0 0c0 -0.4174652 0.19036865 -0.75590515 0.4251976 -0.75590515l0 0c0.11277008 0 0.22092056 0.07965088 0.30065918 0.22140503c0.07973862 0.14175415 0.12453842 0.33403015 0.12453842 0.5345001l0 0c0 0.41748047 -0.19036865 0.75590515 -0.4251976 0.75590515l0 0c-0.23482895 0 -0.4251976 -0.33842468 -0.4251976 -0.75590515z" fill-rule="nonzero"></path><path stroke="#000000" stroke-width="2.0" stroke-linejoin="round" stroke-linecap="butt" d="m60.988194 165.74811l0 0c0 -0.4174652 0.19036865 -0.75590515 0.4251976 -0.75590515l0 0c0.11277008 0 0.22092056 0.07965088 0.30065918 0.22140503c0.07973862 0.14175415 0.12453842 0.33403015 0.12453842 0.5345001l0 0c0 0.41748047 -0.19036865 0.75590515 -0.4251976 0.75590515l0 0c-0.23482895 0 -0.4251976 -0.33842468 -0.4251976 -0.75590515z" fill-rule="nonzero"></path><path fill="#cfe2f3" d="m88.61496 133.82608l0 0c0 -0.6609955 0.61341095 -1.1968384 1.370079 -1.1968384l0 0c0.7566757 0 1.370079 0.5358429 1.370079 1.1968384l0 0c0 0.66101074 -0.6134033 1.1968536 -1.370079 1.1968536l0 0c-0.7566681 0 -1.370079 -0.5358429 -1.370079 -1.1968536z" fill-rule="nonzero"></path><path stroke="#000000" stroke-width="2.0" stroke-linejoin="round" stroke-linecap="butt" d="m88.61496 133.82608l0 0c0 -0.6609955 0.61341095 -1.1968384 1.370079 -1.1968384l0 0c0.7566757 0 1.370079 0.5358429 1.370079 1.1968384l0 0c0 0.66101074 -0.6134033 1.1968536 -1.370079 1.1968536l0 0c-0.7566681 0 -1.370079 -0.5358429 -1.370079 -1.1968536z" fill-rule="nonzero"></path><path fill="#cfe2f3" d="m102.82442 134.6184l0 0c0 -0.9306183 0.6134033 -1.6850281 1.3700714 -1.6850281l0 0c0.3633728 0 0.711853 0.17752075 0.9687958 0.49353027c0.25694275 0.31600952 0.40128326 0.7445984 0.40128326 1.1914978l0 0c0 0.93063354 -0.6134033 1.6850433 -1.370079 1.6850433l0 0c-0.7566681 0 -1.3700714 -0.7544098 -1.3700714 -1.6850433z" fill-rule="nonzero"></path><path stroke="#000000" stroke-width="2.0" stroke-linejoin="round" stroke-linecap="butt" d="m102.82442 134.6184l0 0c0 -0.9306183 0.6134033 -1.6850281 1.3700714 -1.6850281l0 0c0.3633728 0 0.711853 0.17752075 0.9687958 0.49353027c0.25694275 0.31600952 0.40128326 0.7445984 0.40128326 1.1914978l0 0c0 0.93063354 -0.6134033 1.6850433 -1.370079 1.6850433l0 0c-0.7566681 0 -1.3700714 -0.7544098 -1.3700714 -1.6850433z" fill-rule="nonzero"></path><path fill="#cfe2f3" d="m129.45575 67.26741l0 0c0 -0.52184296 0.42303467 -0.94488525 0.94488525 -0.94488525l0 0c0.2505951 0 0.49093628 0.09954834 0.6681366 0.27674866c0.17718506 0.17720032 0.27674866 0.41753387 0.27674866 0.6681366l0 0c0 0.52184296 -0.42304993 0.9448776 -0.94488525 0.9448776l0 0c-0.5218506 0 -0.94488525 -0.42303467 -0.94488525 -0.9448776z" fill-rule="nonzero"></path><path stroke="#000000" stroke-width="2.0" stroke-linejoin="round" stroke-linecap="butt" d="m129.45575 67.26741l0 0c0 -0.52184296 0.42303467 -0.94488525 0.94488525 -0.94488525l0 0c0.2505951 0 0.49093628 0.09954834 0.6681366 0.27674866c0.17718506 0.17720032 0.27674866 0.41753387 0.27674866 0.6681366l0 0c0 0.52184296 -0.42304993 0.9448776 -0.94488525 0.9448776l0 0c-0.5218506 0 -0.94488525 -0.42303467 -0.94488525 -0.9448776z" fill-rule="nonzero"></path><path fill="#cfe2f3" d="m141.27826 68.349365l0 0c0 -0.6610031 0.91659546 -1.1968536 2.0472565 -1.1968536l0 0c1.130661 0 2.0472412 0.5358505 2.0472412 1.1968536l0 0c0 0.6610031 -0.9165802 1.196846 -2.0472412 1.196846l0 0c-1.130661 0 -2.0472565 -0.5358429 -2.0472565 -1.196846z" fill-rule="nonzero"></path><path stroke="#000000" stroke-width="2.0" stroke-linejoin="round" stroke-linecap="butt" d="m141.27826 68.349365l0 0c0 -0.6610031 0.91659546 -1.1968536 2.0472565 -1.1968536l0 0c1.130661 0 2.0472412 0.5358505 2.0472412 1.1968536l0 0c0 0.6610031 -0.9165802 1.196846 -2.0472412 1.196846l0 0c-1.130661 0 -2.0472565 -0.5358429 -2.0472565 -1.196846z" fill-rule="nonzero"></path><path fill="#cfe2f3" d="m160.14243 29.197643l0 0c0 -0.6610031 0.70506287 -1.1968517 1.5748138 -1.1968517l0 0c0.8697357 0 1.5747986 0.5358486 1.5747986 1.1968517l0 0c0 0.6610012 -0.70506287 1.1968498 -1.5747986 1.1968498l0 0c-0.869751 0 -1.5748138 -0.5358486 -1.5748138 -1.1968498z" fill-rule="nonzero"></path><path stroke="#000000" stroke-width="2.0" stroke-linejoin="round" stroke-linecap="butt" d="m160.14243 29.197643l0 0c0 -0.6610031 0.70506287 -1.1968517 1.5748138 -1.1968517l0 0c0.8697357 0 1.5747986 0.5358486 1.5747986 1.1968517l0 0c0 0.6610012 -0.70506287 1.1968498 -1.5747986 1.1968498l0 0c-0.869751 0 -1.5748138 -0.5358486 -1.5748138 -1.1968498z" fill-rule="nonzero"></path><path fill="#cfe2f3" d="m177.16994 31.134674l0 0c0 -0.52184486 1.156311 -0.94488335 2.582672 -0.94488335l0 0c1.4263763 0 2.5826874 0.42303848 2.5826874 0.94488335l0 0c0 0.52184296 -1.156311 0.94488144 -2.5826874 0.94488144l0 0c-1.4263611 0 -2.582672 -0.42303848 -2.582672 -0.94488144z" fill-rule="nonzero"></path><path stroke="#000000" stroke-width="2.0" stroke-linejoin="round" stroke-linecap="butt" d="m177.16994 31.134674l0 0c0 -0.52184486 1.156311 -0.94488335 2.582672 -0.94488335l0 0c1.4263763 0 2.5826874 0.42303848 2.5826874 0.94488335l0 0c0 0.52184296 -1.156311 0.94488144 -2.5826874 0.94488144l0 0c-1.4263611 0 -2.582672 -0.42303848 -2.582672 -0.94488144z" fill-rule="nonzero"></path><path fill="#cfe2f3" d="m193.38078 77.376305l0 0c0 -1.1045685 0.6134033 -2.0 1.3700714 -2.0l0 0c0.3633728 0 0.711853 0.21070862 0.9687958 0.5857849c0.25694275 0.37506866 0.4012909 0.88378143 0.4012909 1.4142151l0 0c0 1.1045685 -0.6134033 2.0 -1.3700867 2.0l0 0c-0.7566681 0 -1.3700714 -0.8954315 -1.3700714 -2.0z" fill-rule="nonzero"></path><path stroke="#000000" stroke-width="2.0" stroke-linejoin="round" stroke-linecap="butt" d="m193.38078 77.376305l0 0c0 -1.1045685 0.6134033 -2.0 1.3700714 -2.0l0 0c0.3633728 0 0.711853 0.21070862 0.9687958 0.5857849c0.25694275 0.37506866 0.4012909 0.88378143 0.4012909 1.4142151l0 0c0 1.1045685 -0.6134033 2.0 -1.3700867 2.0l0 0c-0.7566681 0 -1.3700714 -0.8954315 -1.3700714 -2.0z" fill-rule="nonzero"></path><path fill="#cfe2f3" d="m212.97398 78.005035l0 0c0 -0.6610031 1.3466644 -1.1968536 3.0078735 -1.1968536l0 0c1.6611938 0 3.0078735 0.5358505 3.0078735 1.1968536l0 0c0 0.6610031 -1.3466797 1.196846 -3.0078735 1.196846l0 0c-1.6612091 0 -3.0078735 -0.5358429 -3.0078735 -1.196846z" fill-rule="nonzero"></path><path stroke="#000000" stroke-width="2.0" stroke-linejoin="round" stroke-linecap="butt" d="m212.97398 78.005035l0 0c0 -0.6610031 1.3466644 -1.1968536 3.0078735 -1.1968536l0 0c1.6611938 0 3.0078735 0.5358505 3.0078735 1.1968536l0 0c0 0.6610031 -1.3466797 1.196846 -3.0078735 1.196846l0 0c-1.6612091 0 -3.0078735 -0.5358429 -3.0078735 -1.196846z" fill-rule="nonzero"></path><path fill="#cfe2f3" d="m210.1384 133.50745l0 0c0 -0.23483276 0.42303467 -0.42520142 0.94487 -0.42520142l0 0c0.5218506 0 0.94488525 0.19036865 0.94488525 0.42520142l0 0c0 0.23483276 -0.42303467 0.42520142 -0.94488525 0.42520142l0 0c-0.5218353 0 -0.94487 -0.19036865 -0.94487 -0.42520142z" fill-rule="nonzero"></path><path stroke="#000000" stroke-width="2.0" stroke-linejoin="round" stroke-linecap="butt" d="m210.1384 133.50745l0 0c0 -0.23483276 0.42303467 -0.42520142 0.94487 -0.42520142l0 0c0.5218506 0 0.94488525 0.19036865 0.94488525 0.42520142l0 0c0 0.23483276 -0.42303467 0.42520142 -0.94488525 0.42520142l0 0c-0.5218353 0 -0.94487 -0.19036865 -0.94487 -0.42520142z" fill-rule="nonzero"></path><path fill="#cfe2f3" d="m226.58057 134.05417l0 0c0 -0.6609955 1.0293884 -1.1968384 2.2992096 -1.1968384l0 0c1.2698212 0 2.2992096 0.5358429 2.2992096 1.1968384l0 0c0 0.66101074 -1.0293884 1.1968536 -2.2992096 1.1968536l0 0c-1.2698212 0 -2.2992096 -0.5358429 -2.2992096 -1.1968536z" fill-rule="nonzero"></path><path stroke="#000000" stroke-width="2.0" stroke-linejoin="round" stroke-linecap="butt" d="m226.58057 134.05417l0 0c0 -0.6609955 1.0293884 -1.1968384 2.2992096 -1.1968384l0 0c1.2698212 0 2.2992096 0.5358429 2.2992096 1.1968384l0 0c0 0.66101074 -1.0293884 1.1968536 -2.2992096 1.1968536l0 0c-1.2698212 0 -2.2992096 -0.5358429 -2.2992096 -1.1968536z" fill-rule="nonzero"></path><path fill="#cfe2f3" d="m159.72533 169.25702l0 0c0 -0.5218353 0.19036865 -0.94488525 0.42518616 -0.94488525l0 0c0.11277771 0 0.220932 0.0995636 0.30065918 0.27676392c0.07974243 0.17718506 0.12454224 0.41752625 0.12454224 0.66812134l0 0c0 0.5218506 -0.19036865 0.94488525 -0.42520142 0.94488525l0 0c-0.2348175 0 -0.42518616 -0.42303467 -0.42518616 -0.94488525z" fill-rule="nonzero"></path><path stroke="#000000" stroke-width="2.0" stroke-linejoin="round" stroke-linecap="butt" d="m159.72533 169.25702l0 0c0 -0.5218353 0.19036865 -0.94488525 0.42518616 -0.94488525l0 0c0.11277771 0 0.220932 0.0995636 0.30065918 0.27676392c0.07974243 0.17718506 0.12454224 0.41752625 0.12454224 0.66812134l0 0c0 0.5218506 -0.19036865 0.94488525 -0.42520142 0.94488525l0 0c-0.2348175 0 -0.42518616 -0.42303467 -0.42518616 -0.94488525z" fill-rule="nonzero"></path><path fill="#cfe2f3" d="m168.07083 169.36899l0 0c0 -0.4174652 0.19036865 -0.75590515 0.42520142 -0.75590515l0 0c0.11276245 0 0.22091675 0.07965088 0.30065918 0.22140503c0.07974243 0.14175415 0.12454224 0.33403015 0.12454224 0.5345001l0 0c0 0.41748047 -0.19036865 0.75590515 -0.42520142 0.75590515l0 0c-0.23483276 0 -0.42520142 -0.33842468 -0.42520142 -0.75590515z" fill-rule="nonzero"></path><path stroke="#000000" stroke-width="2.0" stroke-linejoin="round" stroke-linecap="butt" d="m168.07083 169.36899l0 0c0 -0.4174652 0.19036865 -0.75590515 0.42520142 -0.75590515l0 0c0.11276245 0 0.22091675 0.07965088 0.30065918 0.22140503c0.07974243 0.14175415 0.12454224 0.33403015 0.12454224 0.5345001l0 0c0 0.41748047 -0.19036865 0.75590515 -0.42520142 0.75590515l0 0c-0.23483276 0 -0.42520142 -0.33842468 -0.42520142 -0.75590515z" fill-rule="nonzero"></path></g></svg>

