<?xml version="1.0" standalone="yes"?>

<svg version="1.1" viewBox="0.0 0.0 445.2965879265092 416.4461942257218" fill="none" stroke="none" stroke-linecap="square" stroke-miterlimit="10" xmlns="http://www.w3.org/2000/svg" xmlns:xlink="http://www.w3.org/1999/xlink"><clipPath id="p.0"><path d="m0 0l445.2966 0l0 416.4462l-445.2966 0l0 -416.4462z" clip-rule="nonzero"></path></clipPath><g clip-path="url(#p.0)"><path fill="#000000" fill-opacity="0.0" d="m0 0l445.2966 0l0 416.4462l-445.2966 0z" fill-rule="nonzero"></path><path fill="#000000" fill-opacity="0.0" d="m18.071861 148.18965l56.743958 -36.715088l21.675934 -59.403023l70.14098 -0.0016708374l56.746536 -36.7116l56.74652 36.7116l70.14099 0.0016708374l21.675934 59.403023l56.743958 36.715088l-21.673584 59.40483l21.673584 59.404846l-56.743958 36.715088l-21.675934 59.403015l-70.14099 0.0016784668l-56.74652 36.71161l-56.746536 -36.71161l-70.14098 -0.0016784668l-21.675934 -59.403015l-56.743958 -36.715088l21.673569 -59.404846z" fill-rule="nonzero"></path><path stroke="#ff9900" stroke-width="24.0" stroke-linejoin="round" stroke-linecap="butt" d="m18.071861 148.18965l56.743958 -36.715088l21.675934 -59.403023l70.14098 -0.0016708374l56.746536 -36.7116l56.74652 36.7116l70.14099 0.0016708374l21.675934 59.403023l56.743958 36.715088l-21.673584 59.40483l21.673584 59.404846l-56.743958 36.715088l-21.675934 59.403015l-70.14099 0.0016784668l-56.74652 36.71161l-56.746536 -36.71161l-70.14098 -0.0016784668l-21.675934 -59.403015l-56.743958 -36.715088l21.673569 -59.404846z" fill-rule="nonzero"></path><path fill="#ff9900" d="m248.69725 303.59445l-23.46875 0l0 -149.53123q-8.46875 8.078125 -22.21875 16.171875q-13.749985 8.078125 -24.70311 12.109375l0 -22.6875q19.6875 -9.25 34.406235 -22.40625q14.734375 -13.171875 20.859375 -25.5625l15.125 0l0 191.90623z" fill-rule="nonzero"></path><path fill="#000000" fill-opacity="0.0" d="m29.97154 156.14676c12.694712 -7.934616 25.78742 -15.757736 36.375328 -26.341217c5.42881 -5.4265366 17.961548 -3.9083176 20.070862 -11.288712c5.5270233 -19.338799 10.974724 -39.19934 21.322838 -56.44619c11.023575 -18.372631 43.64537 13.050583 63.97113 6.2729645c14.422745 -4.8092575 26.386703 -15.181118 38.88713 -23.834644c5.1106415 -3.53788 7.7202454 -13.846056 13.797913 -12.543308c21.586426 4.6270485 38.13057 27.595798 60.20735 27.595798c13.3797 0 26.7594 0 40.1391 0c4.618286 0 10.532288 -4.5202026 13.797913 -1.2545929c14.679108 14.679119 1.793457 49.112125 20.070862 58.95538c21.23703 11.43718 55.47754 16.486938 60.20996 40.139114c3.2327576 16.156998 -24.852112 24.154327 -28.850403 40.1391c-4.5431213 18.163055 18.03653 33.26683 22.577454 51.43045c0.9182434 3.6730347 4.6407776 9.595169 1.2545776 11.288712c-13.693939 6.8487854 -26.806152 15.51178 -37.629913 26.341217c-5.050995 5.0536194 -14.490387 3.0628662 -20.070862 7.524933c-4.29541 3.4345093 -1.2906189 10.944122 -2.5091858 16.307068c-3.2359314 14.241272 -7.2349243 29.812347 -17.561676 40.13913c-4.444275 4.4442444 -12.528503 1.2545776 -18.81366 1.2545776c-18.022736 0 -37.573578 -3.789795 -53.93701 3.763794c-14.960236 6.9058228 -23.92775 31.798462 -40.1391 28.850372c-20.424866 -3.7142944 -32.156525 -27.410553 -51.43045 -35.123352c-17.472961 -6.992096 -37.626144 1.2546082 -56.446198 1.2546082c-4.2019653 0 -10.4589 4.9031067 -12.543304 1.2545776c-10.6323395 -18.610748 -4.7377014 -48.32663 -22.57743 -60.207336c-14.285355 -9.513611 -30.511978 -16.71408 -42.648293 -28.850403c-2.1318855 -2.1318665 -8.202526 -2.0805664 -7.524935 -5.0183716c4.5901165 -19.901184 27.190222 -36.300507 23.832022 -56.446198c-3.289936 -19.73616 -12.193062 -39.788864 -26.341208 -53.936996c-2.7892017 -2.789215 6.506029 8.037003 10.034121 6.2729645" fill-rule="evenodd"></path><path stroke="#000000" stroke-width="4.0" stroke-linejoin="round" stroke-linecap="butt" d="m29.97154 156.14676c12.694712 -7.934616 25.78742 -15.757736 36.375328 -26.341217c5.42881 -5.4265366 17.961548 -3.9083176 20.070862 -11.288712c5.5270233 -19.338799 10.974724 -39.19934 21.322838 -56.44619c11.023575 -18.372631 43.64537 13.050583 63.97113 6.2729645c14.422745 -4.8092575 26.386703 -15.181118 38.88713 -23.834644c5.1106415 -3.53788 7.7202454 -13.846056 13.797913 -12.543308c21.586426 4.6270485 38.13057 27.595798 60.20735 27.595798c13.3797 0 26.7594 0 40.1391 0c4.618286 0 10.532288 -4.5202026 13.797913 -1.2545929c14.679108 14.679119 1.793457 49.112125 20.070862 58.95538c21.23703 11.43718 55.47754 16.486938 60.20996 40.139114c3.2327576 16.156998 -24.852112 24.154327 -28.850403 40.1391c-4.5431213 18.163055 18.03653 33.26683 22.577454 51.43045c0.9182434 3.6730347 4.6407776 9.595169 1.2545776 11.288712c-13.693939 6.8487854 -26.806152 15.51178 -37.629913 26.341217c-5.050995 5.0536194 -14.490387 3.0628662 -20.070862 7.524933c-4.29541 3.4345093 -1.2906189 10.944122 -2.5091858 16.307068c-3.2359314 14.241272 -7.2349243 29.812347 -17.561676 40.13913c-4.444275 4.4442444 -12.528503 1.2545776 -18.81366 1.2545776c-18.022736 0 -37.573578 -3.789795 -53.93701 3.763794c-14.960236 6.9058228 -23.92775 31.798462 -40.1391 28.850372c-20.424866 -3.7142944 -32.156525 -27.410553 -51.43045 -35.123352c-17.472961 -6.992096 -37.626144 1.2546082 -56.446198 1.2546082c-4.2019653 0 -10.4589 4.9031067 -12.543304 1.2545776c-10.6323395 -18.610748 -4.7377014 -48.32663 -22.57743 -60.207336c-14.285355 -9.513611 -30.511978 -16.71408 -42.648293 -28.850403c-2.1318855 -2.1318665 -8.202526 -2.0805664 -7.524935 -5.0183716c4.5901165 -19.901184 27.190222 -36.300507 23.832022 -56.446198c-3.289936 -19.73616 -12.193062 -39.788864 -26.341208 -53.936996c-2.7892017 -2.789215 6.506029 8.037003 10.034121 6.2729645" fill-rule="evenodd"></path><path fill="#000000" fill-opacity="0.0" d="m218.36089 304.3176c10.486603 0 20.872986 -2.5091858 31.359589 -2.5091858" fill-rule="evenodd"></path><path stroke="#000000" stroke-width="4.0" stroke-linejoin="round" stroke-linecap="butt" d="m218.36089 304.3176c10.486603 0 20.872986 -2.5091858 31.359589 -2.5091858" fill-rule="evenodd"></path><path fill="#000000" fill-opacity="0.0" d="m247.21129 113.656166c0 63.14115 -2.5091858 126.26568 -2.5091858 189.40683" fill-rule="evenodd"></path><path stroke="#000000" stroke-width="4.0" stroke-linejoin="round" stroke-linecap="butt" d="m247.21129 113.656166c0 63.14115 -2.5091858 126.26568 -2.5091858 189.40683" fill-rule="evenodd"></path><path fill="#000000" fill-opacity="0.0" d="m176.9672 162.5748c14.804245 -11.843399 27.481339 -26.2547 42.648285 -37.629913c5.7549896 -4.3162384 5.349594 -17.561684 12.54332 -17.561684c7.145035 0 12.925827 7.524933 20.070862 7.524933" fill-rule="evenodd"></path><path stroke="#000000" stroke-width="4.0" stroke-linejoin="round" stroke-linecap="butt" d="m176.9672 162.5748c14.804245 -11.843399 27.481339 -26.2547 42.648285 -37.629913c5.7549896 -4.3162384 5.349594 -17.561684 12.54332 -17.561684c7.145035 0 12.925827 7.524933 20.070862 7.524933" fill-rule="evenodd"></path><path fill="#000000" fill-opacity="0.0" d="m225.88583 156.30183c0 48.509384 -2.5065613 96.99718 -2.5065613 145.50658" fill-rule="evenodd"></path><path stroke="#000000" stroke-width="4.0" stroke-linejoin="round" stroke-linecap="butt" d="m225.88583 156.30183c0 48.509384 -2.5065613 96.99718 -2.5065613 145.50658" fill-rule="evenodd"></path><path fill="#000000" fill-opacity="0.0" d="m179.47675 162.5748c0 0.28981018 -0.9182739 27.901901 0 27.59581c17.074432 -5.6914825 28.411407 -27.59581 46.40944 -27.59581" fill-rule="evenodd"></path><path stroke="#000000" stroke-width="4.0" stroke-linejoin="round" stroke-linecap="butt" d="m179.47675 162.5748c0 0.28981018 -0.9182739 27.901901 0 27.59581c17.074432 -5.6914825 28.411407 -27.59581 46.40944 -27.59581" fill-rule="evenodd"></path></g></svg>

